<?xml version="1.0" encoding="UTF-8"?>
<svg id="_レイヤー_1" data-name="レイヤー 1" xmlns="http://www.w3.org/2000/svg" viewBox="0 0 1280 1024">
  <g id="umibozu_ashi2">
    <g>
      <path d="M783.17,236.3c.08.49.51.13.24-.85-.24-.18-.47-.33-.74-.42.28.38.45.8.5,1.27Z" fill="#9f2d20"/>
      <path d="M777.77,232.5c-.67.36-1.14,1.03-1.25,1.48-.1.48.03.66.42.51.04-.3.17-.49.27-.68.13-.15.25-.31.39-.43.31-.24.62-.5,1.34-.85,1.23-.11,2.03.47,1.77.57.1,0,.26.05.44.12.17.09.38.19.58.31.39.25.78.53,1.09.67-.36-.68-1.11-1.31-2.06-1.61-.94-.29-2.08-.24-2.96.27-.43.09-.11-.22-.03-.34Z" fill="#9f2d20"/>
      <path d="M778.69,247.6c-.27.09-.53.2-.82.27.24-.04.51-.15.82-.27Z" fill="#9f2d20"/>
      <path d="M782.86,228.83c.65.19.93.28.98.25-.6-.23-1.11-.33-.98-.25Z" fill="#9f2d20"/>
      <path d="M773,237.26c-.02-.32-.05-.59-.05-.89-.03.34,0,.68.05.89Z" fill="#9f2d20"/>
      <path d="M778.69,247.6c.7-.24,1.37-.56,2.02-.91.04-.22-1.01.54-2.02.91Z" fill="#9f2d20"/>
      <path d="M782.24,240.63c.09.09.13.2.19.32l.84-1.15c-.06.03-.1.05-.15.07l.15-.05-.83,1.13c-.03-.14-.06-.25-.13-.34-.02,0-.05,0-.08.02Z" fill="#9f2d20"/>
      <path d="M791.2,239.88c.04.23.07.47.09.7.08.2.16.39.25.56-.09-.42-.2-.85-.34-1.26Z" fill="#9f2d20"/>
      <path d="M780.77,264.39c.53-.37.44-.84.5-1.14-.15.36-.48.71-.91,1.06.04.07.16.11.41.08Z" fill="#9f2d20"/>
      <path d="M777.79,238.47c.24-.09.5-.19.76-.25-.2.05-.54.16-.76.25Z" fill="#9f2d20"/>
      <path d="M773.46,235.24c-.08,0-.2.06-.32.14.04.03.16-.03.32-.14Z" fill="#9f2d20"/>
      <path d="M761.85,236.09s-.05,0-.07-.02c0,.15.03.2.07.02Z" fill="#9f2d20"/>
      <path d="M769.96,262.13l-.41-.13c-.07.06-.15.11-.17.19l.58-.05Z" fill="#9f2d20"/>
      <path d="M792.44,239.89c-.01.06-.02.08-.03.13-.16.77-.04.34.03-.13Z" fill="#9f2d20"/>
      <path d="M781.03,225.76c1.37.15.26.28-.65.48-.46.08-.87.19-.91.28-.04.08.28.11,1.28.16-.42-.2,3.67-.71.28-.92Z" fill="#9f2d20"/>
      <path d="M782.11,240.38c-.12-.12-.34-.22-.55-.32.3.15.46.25.55.32Z" fill="#9f2d20"/>
      <path d="M780.74,226.69h0s.41.02.41.02c-.17,0-.27-.01-.41-.02Z" fill="#9f2d20"/>
      <path d="M769.77,258.32c-.03-.15-.15-.38-.27-.62-.02.04.03.19.27.62Z" fill="#9f2d20"/>
      <path d="M785.36,226.09c-.38-.19-.77-.34-1.17-.45.47.16.85.3,1.17.45Z" fill="#9f2d20"/>
      <path d="M790.9,255.5c.41-.43.61-.54,1.05-1.22-.06.05-.12.1-.19.16-.12.27-.36.59-.86,1.06Z" fill="#9f2d20"/>
      <path d="M796.88,233.37c0,.13.02.3.04.45.08.23.13.5.18.74-.04-.4-.13-.8-.22-1.19Z" fill="#9f2d20"/>
      <path d="M799.05,247.05c.27-.4.47-.65.66-.83-.39.22.45-2.81-.66.83Z" fill="#9f2d20"/>
      <path d="M782.44,240.51c-.12,0-.2-.03-.33-.12.1.08.16.15.21.23.07,0,.13-.02.12-.1Z" fill="#9f2d20"/>
      <path d="M788.96,252.66c.34-.43.69-.86,1.02-1.3.31-.46.65-.9.93-1.37-.51.77-1.23,1.75-1.96,2.67Z" fill="#9f2d20"/>
      <path d="M770.2,256.72c.22.11.44.24.67.33-.26-.13-.48-.28-.67-.33Z" fill="#9f2d20"/>
      <path d="M794.1,240.82c.24-.56.32-1.17.43-1.81-.03-.14-.06-.29-.11-.38,0,.37-.08.74-.13,1.1-.05.37-.09.73-.19,1.09Z" fill="#9f2d20"/>
      <path d="M799.72,246.22s0,0,0,0c0,0,0,0,0,0Z" fill="#9f2d20"/>
      <path d="M795.02,226.98c1.17.91,1.47,1.09,1.64.99.16-.09.14-.42.48-.3,1.35,1.28,1.45,1.74,1.4,1.92-.06.19-.33.17-.11.73,1.27,1.7,2.18,3.24,2.38,4.99-.08.14-.08.47-.23.1.37,1.18.38,3.06.16,5.02-.22,1.96-.62,3.93-.78,5.46-.11.2-.19.3-.25.34.41-.38.71-.38.87-.23-.42,1.44-.57,2.78-1.13,3.16.37-.84.23-.98.28-1.42-.13.51-.26,1.02-.42,1.52-.52.55-.35.03-.1-.62.22-.67.51-1.5.33-1.56-.41,1.45-.92,3.01-1.55,4.44-.64,1.42-1.41,2.68-2.19,3.55-.36.02.46-1.04.96-1.93.27-.43.47-.81.49-.93.01-.12-.12.05-.63.62.69-.95,1.29-1.97,1.86-3.01-.96,1.05-.71.56-.45.07.24-.51.47-1.04-.42-.11-1.05,2.01-1.71,3.08-2.4,4.13-.69,1.04-1.45,2.08-3.17,3.45-.59.87.54.12-.09.97-.31.26-.6.5-.87.72-.29.2-.56.37-.81.52-.5.33-.97.5-1.37.66-.8.32-1.41.36-1.95.4-1.1.05-1.9.05-4.2.77-.59.26-.99.55-1.7.78-.7.22-1.73.39-3.46.2.4-.18.79-.38,1.18-.58-2.23,0-2.84.08-3.51.18-.33.04-.68.06-1.21-.02-.53-.08-1.26-.27-2.24-.78.4.06,1.19.28,1.84.41.64.13,1.13.19.81.1-1.37-.5-1.81-.63-2.26-.64-.42-.04-.85.05-1.78-.52-.04-.23-.07-.45-.09-.66-3.58-2.27-5.8-7.57-5.85-12.89.15.3.31,1.19.47-.04-.17-3.31.54-6.89,1.96-10.08,1.44-3.18,3.62-5.93,6.07-7.77l.78-.91.85-.85c.46-.32.98-.34.51,0,2.14-1.01-.03-.3.89-1.02,1.25-.62,1.76-.51,1.02-.05.23-.13.48-.26.73-.4.27-.11.55-.23.84-.36.58-.27,1.24-.45,1.92-.66,1.38-.35,2.93-.64,4.51-.61,3.16-.08,6.3.97,8.14,2.26l-.84-.27c1.52.82,2.38,1.26,3.26,1.7.84.47,1.67,1.04,2.47,2.48-.13-.17-.3-.3-.44-.45,2.26,3.07,3.14,7.26,2.55,11.09-.53,3.85-2.33,7.25-4.38,9.37-.07.64-1.37,2.12-2.79,3.31-1.41,1.22-2.92,2.15-2.9,2.67-2.05,1-2.87,1.12-3.85,1.41-1,.2-2.19.67-5.22.94-1.59.12-2.4.76-4.45.63v-.46c-.44.02-.9,0-1.37,0-.46-.04-.93-.07-1.4-.13-.41-.35-.82-.64-1.19-1.02l-.88-.32-.86-.38c.64.38,1.35.89,1.19.96-1.42-.49-2.98-1.54-3.99-2.57-1.04-1.02-1.56-1.97-1.49-2.07-.79-.8-1.49-1.69-2.03-2.67-.3-.48-.51-.99-.75-1.5-.18-.53-.39-1.05-.52-1.61.21.12.5,1.2.95,1.96-.8-1.58-.64-1.82-.56-1.95.12-.16.16-.22-.19-1.85-.07.46-.29-.23-.38-.3.1-.86.2-2.27.4-3.88.2-1.63.44-3.39.71-4.85l.19.62c.58-2.59,1.43-5.23,3-7.32.77-1.05,1.74-1.92,2.87-2.62,1.15-.69,2.48-1.21,3.9-1.59-1.04.2-1.46.19-1.45,0,.01-.18.49-.51,1.35-.76.27.09.54.2.81.3,1.05-.56-1.86.24.37-.65,2.29-.39,1.61.25.37.65.88-.24,1.8-.45,2.73-.65.19.12-.46.3-.6.51.54-.24,1.78-.3,3.09-.38,1.3-.08,2.6-.15,3.39-.46l.16.13c2.97-.17,4.95.1,6.66.71,1.68.62,3.18,1.55,4.12,3.2.2-.07.47.25.73.76.25.52.46,1.24.69,1.91.08,1.7-.29,3.6-.68,5.66-.4,2.03-.87,4.09-1.54,6.12-.4,1.44-.44,1.66-.35,1.71.08.05.25-.09.09.58-.22.02-.79.98-1.29,1.6-.5.63-.84.97-.35.03-1.35,2.03-2.59,3-4.03,3.96-1.47.92-3.22,1.85-6.45,2.61.73.03,1.54-.09,1.16.13-1.18.33-2.75.3-2.6.09.1-.02.21-.05.31-.08-1.83.4-3.88.45-5.95.27-1.04-.09-2.03-.25-2.78-.58-.76-.33-1.2-.8-1.62-1.51-.4-.71-.69-1.62-1-2.6-.3-.97-.6-1.92-.88-2.83-.54-1.8-.97-3.41-1.31-4.78l.08.31c-.4-1.91-.4-3.82.18-5.58.28-.58.41-.75.45-.74.03.01-.04.21-.09.44-.11.46-.22.96.27.2.44-1.33,1.32-2.39,2.28-3.22.97-.83,2.05-1.43,3.14-1.91,2.21-.93,4.4-1.48,7.05-1.85,2.08.41,5.7.54,9.16,1.99,1.72.7,3.34,1.71,4.6,2.91,1.29,1.19,2.1,2.56,2.5,3.8l.1-.39c.21.27.36.51.46.72.08.22.12.41.15.6.05.37.08.7.17,1.19.2-.2-.26-1.47.18-.72,1.01,2.73,1.18,5.91.27,8.76-.45,1.42-1.11,2.78-2.04,3.91-.48.55-.97,1.1-1.55,1.54-.53.49-1.18.89-1.83,1.26-2.64,1.46-5.82,2.08-8.99,2.23-3.14.15-6.15-.35-8.18-1.95-.78-.6-1.28-.98-1.66-1.27-.42-.28-.72-.47-1.06-.68-.62-.46-1.45-1.12-2.13-3.94.33.46.68.9,1.04,1.31-1.03-1.96-1.66-4.26-1.96-6.61-.31-2.34-.24-4.69.34-6.83.58-2.14,1.72-3.99,3.3-5.53,1.57-1.54,3.53-2.72,5.58-3.68-.46.3-.41.45-1.21.81.92-.25,2.53-.89,3.99-1.34,1.46-.47,2.72-.81,2.71-.95,1.35-.12.35.22,1.15.3.87.05,1.78.03,2.61.26.83.22,1.58.69,1.79,1.11.08.14-.42-.21-.68-.34.48.19,1.42,1.05,2.04,1.89.64.82,1.03,1.53.94.93.71,1.47,1.31,2.91,1.69,4.36.36,1.45.48,2.89.36,4.22.19.87.04,2.33-.28,3.6-.13.64-.31,1.23-.41,1.71-.09.48-.13.85-.03,1.03-.29-.22-.86,1.16-1.66,2.76-.78,1.61-1.84,3.42-2.41,4.35.14-.35-.19,0-.51.31-.33.31-.67.58-.51.17-1.52,1.85-3.25,3.2-2.7,3.24-2.01,1.02-3.85,2.11-5.66,2.57-1.78.53-3.51.28-4.35-.58-3-.88-5.23-3.78-6.38-6.93-1.15-3.16-1.37-6.69-.88-9.96.3.18,0,1.96.04,3.72,0,1.77.29,3.43.62,3.23-.55-3-.57-5.52-.19-7.92.42-2.39,1.27-4.8,3.29-7.12,1.1-1.14-.38.86-.54,1.38,1.61-2.56,4.03-4.47,6.63-5.48,1.31-.5,2.67-.83,3.88-.8,1.23.02,2.2.37,3.19,1.14-.05.04-.49-.27-.9-.46.78.42,1.55,1.54,1.71,1.26-.24-.24-.48-.46-.73-.65-.44-.67.48-.3,1.47.65,1.01.91,1.88,2.32,2.01,2.37-.81-.68-.2.6.06,1.8.13.6.19,1.18.12,1.43-.07.25-.25.17-.65-.44.2.63.42,1.46.6,1.29,0,.51-.04.84-.12.91-.08.08-.13-.1-.28-.59.12,1.77-.03,2.33-.04,2.88-.11.51-.1,1.1-1.07,2.37-.12-.11.26-.64.24-1-.26.72-.69,1.44-1.41,2.11-.72.64-1.75,1.29-3.14,1.48.14-.14-.18-.14.6-.36-2.26.68-4.33.37-5.93-1.04-1.58-1.4-2.65-3.8-2.92-6.63.44.78.4.28.38-.41-.03-.7.06-1.59.37-1.67.04-.87.29-1.64.74-2.29-.27.19-.53.42-.75.7.47-1.03,1.22-1.79,2.21-2.29.98-.49,2.15-.63,3.19-.39-.62-.01-1.24.06-1.81.22,1.49-.24,3.05.05,4.33.9-.69-.55-1.46-.96-2.33-1.18.64.04.95.09,1.12.06.17-.02.19-.1.23-.15.04-.05.1-.08.35.01.25.08.71.31,1.42.88-.32-.19.27.18.9.9.65.71,1.25,1.8,1.39,2.51h0c.73,1.1,1.37,2.47,1.29,4.53-.19.52-.62-.41-.74-.07.24.62.21,2.2-.27,3.74-.46,1.55-1.31,2.97-1.66,3.76.26-.51.03-.7-.13-.6-.13.35-.23.74-.4,1.08-.94.83-1.16.83-1.15.55-1.42,1.1-1.16.99-.88,1.04.13,0,.24.02.06.16-.18.13-.62.44-1.67.81.3-.16.13-.16.75-.51-.99.49-1.99.76-3.02.81-1.01.05-2.02-.15-2.7-.69-.7-.53-1-1.42-1.07-2.47-.08-1.06-.09-2.15-.02-3.22.3-.62.3.31.33,1.21.03.9.1,1.78.3,1.06-.17-3.02-.08-6.21.44-9.3.27-1.51.73-2.96,1.59-4.08.82-1.1,2.15-1.82,3.42-1.88-.32,0-.64.04-.96.12.21-.49,1.41-.69,2.5-.11,1.11.58,1.72,1.87,2.18,3.18-.22-.65-.67-.68-.52-.56.5,1.66.42,3.69-.18,5.8-.63,2.1-1.93,4.39-4.31,6.24l.47-.6c-.66.43-1.48.94-2.39,1.35-.46.19-.95.41-1.39.51-.47.11-.75.11-1.07,0-.28-.1-.51-.31-.66-.54-.17-.25-.31-.6-.41-.94-.42-.57-.67-2.08-.78-1.13-.14-2-.23-3.94.21-5.55.23-.8.61-1.46,1.16-1.96.56-.5,1.29-.79,2.15-.97,1.74-.3,3.65-.45,5.4-.31,1.75.15,3.52.71,4.56,1.9-.56-.49-1.6-.75-1.07-.49,1.61.72,2.61,2.18,2.87,4.06.26-.49.16-.77-.02-1.98.24.29.52.84.7,1.54.18.69.26,1.51.24,2.27-.29-2.74-.48.04-.81,1.16.12-.19.21.22.32.13-.45,1.55-.31,1.68-.16,1.99.14.3.36.78-.36,2.87l-.12-.27c-.3,1.59-.55,3.12-1.31,4.73-.65.51.51-1.68.2-1.9-.8,2.27-1.27,4.8-2.88,6.46.5-.93,1.27-2.23,1.62-3.22-.76.97-1.18,1.49-1.52,1.98-.34.49-.62.92-1.15,1.62l.11-.13c-.85,1.07-1.78,2.08-2.75,3,.27-.2.52-.44.79-.67-.59,1.49-1.73,2.59-3.15,3.49-1.44.87-3.08,1.6-5.14,1.84,1.01-.1,1.5-.35,1.73-.46.23-.12.18-.16.04-.16-.29-.01-.99.03-.87-.22-.97,0-2.17-.52-1.77-.55-.79-.04-1.36-.45-1.87-1-.52-.56-1.04-1.25-1.87-2.29.04-.15-.8-1.8-.29-1.56-.89-2.18-.07.61-.27.5-.96-1.62-1.33-3.91-1.1-6.29.21-2.4,1.01-4.82,2.18-7.26.57-1.01,1.12-1.78,1.62-2.43.5-.66.96-1.18,1.44-1.69.98-.98,2.01-1.96,4.11-2.92.77-.15.51.07.08.35-.43.27-1.02.64-1.02.64,1.14-.4,2.17-.77,3.11-.9.96-.13,1.99-.13,2.95.23-.45-.05,0,.21.25.63.44.39.52.54.68.83l.44-.6c-.32.18-.77.41-1.91.48.38-.22.83-.56,1.61-.95-.99.35-1.96.64-2.95.72-.99.07-1.97-.09-2.77-.7-.12-.26.18-.14.56.04.4.16.91.27,1.25.26-1-.1-2.08-.91-2.66-2-.62-1.06-.64-2.16-.79-2.53-.12.48-.17.99-.12,1.51-.09-.43.03-.55.12-.48.09.07.23.31.33.59.35.89.69,1.45.89,1.86.2.41.29.68.28.77-.37-.32-.73-.67-.99-1.1,0,.39.21.88.63,1.34.43.45,1.08.83,1.83,1,1.54.33,3.27-.17,4.72-.68l-.35.48c-.04-.34-.15-.62-.32-.86.34.13.66.42.86.85h0s-.05.05-.05.05l-.11.09.12-.06.08-.04v-.06c-.09-.57-.44-1.05-.87-1.32-.43-.28-.94-.4-1.44-.45-.3-.17-.57-.32-.57-.44,0-.1.31-.23,1.14,0-1.14-.54-1.75-.4-2.23-.37-.5.07-.95.13-2,.28-.23.02-.15-.04.05-.13-.73.31-1.45.64-2.13,1.04.37-.31-.56-.25.83-.75-2.07.65-3.5,1.76-4.5,2.72-1.01.98-1.65,1.8-2.35,2.27l.2-.3c-.93,1.18-1.29,1.88-1.45,2.25-.15.38-.11.43-.03.45.18.05.35-.06-.3,1.97-.71.72-1.37,1.55-1.96,2.47l.34.66c-.13.59-.27,1.79-.43,1.56.22,2.28.2-.37.45.95-.26,1.44.04,3.46.58,5.09.51,1.65,1.22,2.9,1.07,3.38.8.73-1.11-2.57.61.01-.1.57.44,1.37,1.35,2.09.92.74,2.22,1.23,3.55,1.54-.22.09-.55.08-.89.06-.33-.06-.66-.13-.87-.19-.2-.07-.3-.1-.19,0,.11.1.43.29,1.14.56.95-.12,2.3-.08,3.74-.38,1.43-.29,2.87-.9,3.79-1.62-.11-.26.9-.99,2.1-2.21,1.18-1.22,2.55-2.86,3.5-4.49,0,.15,1.07-1.28,2.12-3.28,1.05-2,2-4.58,2.46-6.3l.07.12c-.2-.4-.07-1.48.05-2.8.11-1.32.23-2.88.09-4.22.32.08.53.59.6,2.06.05-.84.05-1.71-.03-2.6-.28-.6-.36-1.46-1.22-3.03.24.14.46.29.68.46-.38-.89-.98-1.72-1.74-2.35-.76-.64-1.65-1.08-2.56-1.39-1.85-.61-3.81-.74-5.96-.85-.12.19.74.45,1.04.72.3.28.07.44-2.1.64-.17-.19-.36-.56.8-.68-.38.03-1.34.22-2.11.2.58-.17,1.16-.31,1.76-.45-1.93-.05-.98.31-2.52.45,0-.32-1.2.02-1.04-.24.42-.16,1.44-.16,2.02-.31-.88.04-1.91.11-2.84.42-.94.29-1.64.83-2.03,1.06.12-.02.19.06.12.28-.08.22-.31.57-.62,1.23-.41.84-.5,1.36-.61,1.66-.09.3-.15.4-.21.45-.12.11-.28.02-.41,1.08.09.44.1,1.22.2,1.88.1.66.25,1.2.47,1.19.17.97.02,1.18-.02,1.58.14.38.3,1.02.67,1.78.18.37.44.8.81,1.19.37.38.82.67,1.3.82.58.19,1.19.18,1.66.1.44-.08.77-.21,1-.31.44-.21.48-.32-.08-.25-.15.04-.31.07-.46.1.09-.03.19-.06.29-.1h-.01s.01,0,.01,0c2.68-1.13,5.1-2.9,6.84-5.31,1.73-2.38,2.76-5.41,2.34-8.33h.15c-.15-.88-.42-1.81-.9-2.66-.47-.86-1.24-1.62-2.14-2.03-.91-.42-1.89-.48-2.7-.33-.82.15-1.51.47-2.01.84-.91.43-2.07,1.33-1.89.89-.9,1.07-1.15,1.8-1.5,2.61-.32.82-.68,1.78-1.13,3.57.12-1.29.04-1.09,0-.99-.02.1-.08.09.47-1.66-.58,1.63-.8,2.63-1.01,3.66-.18,1.03-.29,2.12-.2,3.91-.32-1.24-.64,2.49-.39,4.08.06-.78.13-1.56.23-2.33.03.89.05,1.71.07,2.52.04.8.07,1.69.44,2.61-.29-.27-.55-.57-.79-.88.1,1.04.7,2.3,1.64,3.04.93.77,2,1.06,2.95,1.18,1.91.17,3.65-.37,5.02-1.2,1.37-.79,2.5-1.81,3.46-2.88.96-1.08,1.78-2.21,2.58-3.4.23-.96-.2-.05-.73.81-.52.87-1.22,1.64-.9.83.92-1.34,1.73-2.82,2.23-4.18.5-1.35.7-2.53.71-3.07.08-2.4-.51-3.48-1.05-4.45-.29-.49-.6-.96-1.01-1.57-.42-.6-.91-1.33-1.73-2.24.16.29.23.62-.04.56-.28-.04-.83-.55-2.31-1.36-1.36-.82-2.35-1.07-2.65-1.34-.32-.22.04-.45,1.15-.25.83.21,1.18.47,1.12.5,1.07.39,2.3,1.26,1.26.3-.16-.04-.32-.07-.49-.08-.35-.26-.94-.57-1.6-.81-.66-.23-1.41-.37-2.07-.44-1.32-.11-2.3.06-1.73-.19-.7.14-1.1.31-1.3.41-.19.1-.18.13-.02.11.32-.04,1.21-.23,2.22-.22-2.29-.02-4.19.88-5.47,2.4-1.28,1.52-1.76,3.55-1.69,5.81.05-.74.29-1.4.28-.68-.02,1.65.24,2.6.4,3.2.17.6.31.85.43,1.04.28.37.37.53,1.32,2.43.48,1.13.27,1.02.18,1.09-.04.03-.03.11.17.41.21.28.59.82,1.5,1.56,1.06.97,1.24,1.07.84,1.01-.38-.08-1.18-.54-1.66-.92,1.73,1.5,3.96,2.28,5.81,2.35,1.89.13,3.5-.28,4.67-.81-.68.41-1.43.71-2.2.96,1.39-.44,2.44-.94,3.45-1.59-.46.13-.89.28-1.34.36,1.25-.55,2.15-1.31,2.22-1.19.46-.57.15-.49-.02-.55-.2-.07-.18-.2.58-1.28.64-.6,1.31-1.79,1.64-2.89.36-1.1.5-2.1.76-2.37-.18,1.34-.41,1.95-.43,2.23-.06.27.04.2.16.09.11-.1.23-.23.25-.05,0,.18-.06.7-.59,1.82.38-.87.8-1.94,1.08-3.28.09-.19.06.21.02.58.39-1.34.38-2.21.35-2.78-.05-.58-.15-.89-.29-1.19-.12-.31-.28-.61-.47-1.15-.2-.54-.43-1.33-.93-2.54.51.53,0-1.35-.54-2.08.54.95.53,1.24.3,1.06-.24-.17-.72-.77-1.35-1.51-.84-1.42-1.58-2.07-2.18-2.51-.62-.43-1.11-.68-1.97-1.1.65.32,1.23.75,1.74,1.21-.35-.12-.86-.45-1.61-.79-.75-.34-1.78-.63-2.94-.62-.1-.11.44-.13.9-.08.46.05.84.14.43,0-1.37-.04-2.79-.07-4.34.17-1.53.23-3.19.75-4.6,1.8-1.47.73-.41-.35-1.68.39-1.49,1.37-2.27,2.11-3.09,2.89-.78.79-1.62,1.65-2.49,3.61.43-.46.69-.73.66-.55-.02.18-.33.8-.74,2.19.79-2.1,1.98-4.1,3.49-5.81-.89,1.18-1.62,2.46-2.18,3.78.98-1.75,2.32-3.6,3.28-4.37-1.26,1.65-1.12,1.45-.27.96-1.14.79-1.94,1.93-2.58,3.17-.64,1.26-1.13,2.6-1.8,4.02l-.81-.37c-.95,2.27-1.18,4.5-1.11,6.81.04,1.16.16,2.36.35,3.64.19,1.3.48,2.68.93,4.2-.16-.66-.3-1.32-.4-1.98.27.37.5,1.29.87,2.34.36,1.04.86,2.22,1.47,3.05-.36-.01.21,1.16.66,1.98.05-.11.77.86,1.81,1.67,1.02.83,2.32,1.45,2.72,1.28.81.56,1.73.95,2.69,1.27,1.34.25,2.43.2,3.31.02.89-.17,1.59-.46,2.25-.76,1.31-.66,2.49-1.36,4.46-2.66-.49.54-.28.55-.24.67.02.1-.09.39-1.51,1.27,1.48-.75,2.69-1.62,2.59-1.79.43-.21,1.27-.98,2.06-1.87.8-.88,1.56-1.86,2.11-2.36.29-.62.23-.95,1.21-2.4.16-.13.12.09.12.09-.08-.07,1.23-2.47.18-1.31.82-.9,1.54-2.17,2.18-3.59.59-1.44,1.08-3.06,1.35-4.69.56-3.29.29-6.54.12-8.72-.44-1.72-1.27-3.5-2.27-5.12-1.04-1.61-2.4-3-3.84-3.86.23.04.09-.12.6.26-.92-.72-1.67-1.02-2.23-1.15-.57-.13-.97-.11-1.37-.08-.81.11-1.64.14-4.05.37-1.26,0-.65-.2.11-.35.75-.15,1.67-.22.86-.23-.41-.45-1.92-.21-3.66.34-1.76.54-3.71,1.44-5.34,1.97l.71-.42c-2.47.83-5.52,3.46-7.7,7.18,0,0,.03-.22-.11-.09-.55,1.41-1.15,3.46-1.33,5.65-.2,2.19-.02,4.5.31,6.42-.54-1.15-.39-1.75-.71-.96.13.88.27.73.44.8.18.07.35.36.73,2.05,0,.57.12,1.48.23,2.31.11.82.23,1.55.09,1.79-.41-1.06-.73-2.14-.99-3.24-.17,1.84,1.26,4.24,2.08,5.84l-.31-.1c1.35,2.35,2.52,3.26,3.68,4.08,1.2.76,2.49,1.59,5.23,2.31l-.52-.32c1.54.11,2.13.22,2.75.39.61.15,1.25.33,2.74.08.31.18.62.37.94.54.99-.14,2.71-.46,4.56-1.04,1.85-.57,3.81-1.44,5.31-2.38-.76.69-2.11,1.52-3.64,2.13-1.52.63-3.18,1.06-4.46,1.35.99-.12,2.67-.41,4.18-.92,1.52-.48,2.85-1.18,3.25-1.55-.7.42-1.6.94-2.39,1.11,2.15-1.23,5.07-2.81,7.43-6,.12.31.62-.03,1.21-.85.27-.42.64-.93.9-1.56.14-.31.28-.64.43-.98.11-.35.23-.72.35-1.09.95-3.02.66-6.62.72-8.17-.49-1.78-1.17-3.49-2.09-5.11-.93-1.61-2.16-3.07-3.55-4.34-2.81-2.55-6.52-4.32-10.7-4.89,1.4.66.78.57-.11.45-.9-.16-2.11-.17-1.88.29-1.89-.04-2.6.03-2.77-.02-1.91-.07-3.87.06-5.79.49-1.42.16,1.72-.73,1.51-.84-2.1.51-2.54.65-2.85.62-.3,0-.44-.16-1.84.35.69.07-1.23.95-3.36,2.44,1.06-.64,2.14-1.14,3.25-1.53-2.57,1.61-3.64,2.43-4.76,3.28-.55.44-1.08.94-1.64,1.74-.55.8-1.11,1.94-1.39,3.59.06-.71.2-1.42.4-2.13-.31.82-.71,2.03-.85,3.43-.16,1.39-.11,2.93.13,4.38.48,2.91,1.57,5.46,2.39,6.69.08.52.08,1.26-.43.06.29.84.58,1.65.99,2.59.41.92.96,1.93,1.85,2.83.88.92,2.15,1.54,3.25,1.78,1.12.27,2.15.31,3.1.33,3.81.08,7.39-.43,10.2-.97l-.49.35c1.33-.42,2.19-1.04,3.86-1.55-.04.12-.43.43.18.18.32-.2,1.13-.68,2.01-1.33.45-.3.88-.69,1.33-1.02.43-.36.85-.71,1.21-1.01-.33.44-.7.84-1.07,1.25,1.55-1.09,2.69-2.41,3.51-3.7.83-1.3,1.36-2.59,1.75-3.85.77-2.53,1.02-4.93,1.38-7.77.32.05.75-1.21,1.09-2.92.34-1.7.42-3.99.04-5.59l.12.09c-.26-1.18-.74-2.32-1.41-3.29-.65-.97-1.45-1.76-2.28-2.4-1.68-1.26-3.5-1.96-5.3-2.34-3.66-.73-7.05-.17-10.64.44-1.14-.02-2.67.06-4.47.33-1.8.27-3.89.72-6.01,1.68-2.12.93-4.19,2.55-5.61,4.46-1.46,1.9-2.37,3.98-3.05,5.81.49-1.1.4.34.14,1.66-.61,1.71-.43,4.85-.98,4.49l.1-.62c-.77,1.2-1.15,4.85-.77,7.93.28.14.57.27.85.39-.02,1.95.64,4.27,1.92,6.29,1.25,2.05,3.09,3.75,5.01,5.03,1.93,1.29,3.97,2.14,5.76,2.7,1.8.57,3.35.83,4.4,1.18,1.89-.05,4.2-.25,5.95-.83v.44c2.53-.5,4.37-1.18,6.24-2.1,1.85-.94,3.79-2.12,6.09-4.31-.25.36-.5.74-.77,1.09,1.38-1.18,1.97-2.22,2.44-3.24.48-1.03.86-2.04,1.72-3.38.35-.16.69-.34,1.04-.52,1.55-2.68,2.7-5.66,3.17-8.8.23-1.57.23-3.19.04-4.78-.23-1.59-.71-3.15-1.44-4.57.12.06.36.17.74,1.16-.13-.36-.28-.81-.46-1.32-.22-.49-.47-1.03-.73-1.6-.32-.54-.63-1.12-1.01-1.65-.4-.52-.79-1.06-1.2-1.51-.44-.44-.86-.85-1.24-1.2-.42-.31-.79-.57-1.1-.76-.61-.39-.99-.42-.87-.1.13-.23-1.24-1.23-3.17-1.96-1.92-.76-4.37-1.07-6.03-1.11l.57-.36c-.73.06-1.27.11-1.74.17-.47.08-.87.15-1.29.21-.43.04-.89.13-1.48.21-.59.06-1.31.2-2.25.39-.46.03-.67.02-.61-.07.05-.09.37-.19.99-.22-.77.04-1.29.18-1.7.3-.41.13-.71.23-1.02.38-.61.33-1.31.58-3.04,1.26l1.16-.81c-.73.32-1.27.54-1.66.76-.39.23-.66.41-.88.58-.46.32-.7.64-1.31,1.25-.76.61-1.9,1.54-2.88,2.38-.97.85-1.81,1.6-2.08,1.68-.04.24-.27.74-.6,1.37-.31.65-.77,1.39-1.24,2.17-.25.15,0-.48.13-.8-1.45,2.19-2.05,4.09-2.46,5.77-.41,1.69-.65,3.17-1.07,4.92-.15.06-.24.28-.32.57.44-4.16,1.78-7.29,1.69-6.98-.4-.17-1.49,3.11-1.16.33-.32,1.37-.58,3.24-.72,5.17-.12,1.93-.09,3.91-.13,5.56-.03.16-.06.32-.11.44l-.06-.34c.01.77.07,1.45.22,2.09.06,1.06.13,1.75.36,2.76-.11.23.06,1.22.46,2.34.38,1.12,1,2.35,1.44,3.14.29-.32,1.43,1.66.61-.35.12.25-.23-.25-.74-1.28-.12-.23-.26-.5-.34-.65.02.03.05.06.08.09-.45-1.04-.93-2.43-1.25-4.04.49,1.27.99,2.54,1.54,4.36.59.7,1.32,1.38,1.71,1.75.34,1.12,1.27,2.61,2.39,3.71,1.1,1.12,2.3,1.84,2.54,2.13,2.63,1.01,5.8,1.25,8.55,1.03,2.75-.19,5.25-.78,6.69-1.57,1.36-.47,1.65-.25,2.22-.31-.77.37-1.74.63-2.16.85,1.4-.43,3.46-1.2,5.1-2.19,1.63-1,2.81-2.11,2.88-2.55.73-.54,1.01-.72,1.09-.72.08,0-.03.19-.13.34-.22.27-.25.49,1.46-1.38-.1.21-.22.42-.34.62,1.9-1.66,3.22-3.58,4.17-5.52.95-1.94,1.55-3.91,1.99-5.92.44-2.01.7-4.07.91-6.28.18-2.22.36-4.62,0-7.41.11.77.13,1.16.07,1.32-.32-3.14-1.92-6.24-4.27-8.46-2.33-2.25-5.27-3.8-8.35-4.65-3.08-.85-6.27-1.05-9.37-.91-3.11.16-6.14.56-9.14,1.25-1.69.44-2.58.89-3.27,1.31-.68.44-1.18.85-2.01,1.53-.3,0-.59.03-.89.04-.93.85-1.76,1.8-2.43,2.84-1.56,2.07-2.71,3.97-3.71,6.16-.5,1.1-.93,2.28-1.21,3.61-.29,1.33-.42,2.81-.29,4.44l.33-.82c-.1,1.16-.04,2.99.13,4.48.16,1.49.38,2.62.17,2.47.12.22.44.68.53,1.59l-.21.13c.61,1.82,1.41,3.55,2.38,5.19.96,1.98.76,1.93.59,2.12-.07.1-.1.24.12.72.23.46.69,1.29,1.88,2.54.91.91,2.48,1.93,3.8,2.39,1.31.48,2.25.53,1.84.32-.96-.32-2.24-1.21-2.15-1.46.64.35,1.31.64,1.99.86.31-.25.88-.42.81-.79-.06-.42-.81-.8-2.5-2.3-.93-.51-1.81-1.18-2.63-1.96-.14-.35-.26-.71-.38-1.06.55.76,1.15,1.46,1.8,2.08-.86-1.31-1.65-1.92-2.43-2.78,0-.33-.13-.79-.39-1.4-.7-.86-1.37-1.8-1.96-2.8.13-.47,1.01,1.22.41-.93-.76-1.41-.13,1.65-1.1-.82-.06-.85,0-1.16.01-1.5,0-.34-.09-.68-.37-1.62.14-.3.31.1.51.83-.58-1.64-.57-4.48-.88-5.38.2-.86.31-2.3.52-3.51.21-1.2.51-2.14.8-1.97-.04-.54.33-3.06,1.03-4.47-.22,1.47.32.08,1.2-1.29.85-1.4,2.28-2.58,2.3-2.04.45-.91,1.88-2.09,3.77-2.97,1.88-.9,4.16-1.51,6.02-2.05-.2.09-.59.29-.93.33,2.13-.38,2.8-.24,4.18-.27.2-.65,3.56-1.04,5.41-1.23,1.31.38.88.52.25.65-.63.11-1.47.27-1.08.55-.06-.24,1.07-.33,2.11-.31,1.03,0,1.98.1,1.58-.18.95.35,1.35.51,1.63.64.28.13.44.26.84.64.56-.6,1.74.42,3.36.78,1.15.84,1.17,1.12,1.3,1.31.11.21.33.32,1.54,1.21.45.56.14.44-.28.19-.41-.25-.98-.58-.98-.58ZM764.34,246.96h0c0,.66.06,1.22.08,1.58-.02-.33-.09-.78-.09-1.58ZM765.08,240.56c-.11.38-.21.81-.29,1.27-.09.46-.19.96-.24,1.48-.17.21-.29-.06-.2-.71.05.37.36-1.14.73-2.04ZM762.65,254.93c-.42-1.09-.42-1.49-.38-1.67.14.52.33,1.13.63,1.92.03.03.06.09.09.11-.11-.08-.22-.17-.35-.36Z" fill="#9f2d20"/>
      <path d="M763.94,256.66c.08.14.12.23.23.41-.07-.23-.14-.44-.2-.66-.1-.11-.2-.22-.29-.32.09.19.18.38.26.56Z" fill="#9f2d20"/>
      <path d="M777.72,247.92l.15-.04c-.13.03-.24.05-.33.04.11-.01.11,0,.18,0Z" fill="#9f2d20"/>
      <polygon points="776.59 258.78 776.58 258.89 777.12 258.85 776.59 258.78" fill="#9f2d20"/>
      <path d="M789.38,243.57c-.04.07-.09.2-.14.46.03-.02.08-.22.14-.46Z" fill="#9f2d20"/>
      <path d="M784.03,257.95c-.47.56-.96,1.11-1.46,1.63.67-.67,1.12-1.2,1.46-1.63Z" fill="#9f2d20"/>
      <path d="M774.97,264.44c-.12.09-.16.14-.19.2h.02c.06-.06.11-.12.17-.2Z" fill="#9f2d20"/>
      <path d="M784.77,228.96c-.11-.06-.21-.12-.31-.16-.75-.24-.25-.1.31.16Z" fill="#9f2d20"/>
      <path d="M787.03,234.62c-.32-.49-.67-.94-1.06-1.38.54.78.83,1.46,1.06,1.38Z" fill="#9f2d20"/>
      <path d="M788.72,252.93s0,0,0,0c.08-.1.15-.18.24-.27l-.24.27Z" fill="#9f2d20"/>
      <path d="M784.25,231.5c.7.62,1.24,1.17,1.72,1.73-.43-.65-1.06-1.33-1.72-1.73Z" fill="#9f2d20"/>
      <path d="M776.66,237.4c-.05-.14-.05-.3-.08-.44-.03.01-.05-.01-.08-.04.06.16.08.33.15.49Z" fill="#9f2d20"/>
      <path d="M776.51,236.92c-.05-.16-.06-.33-.09-.5.02.23.02.43.09.5Z" fill="#9f2d20"/>
      <path d="M776.43,235.37c-.03.17-.03.35-.05.52.02.18,0,.35.03.53,0-.37.07-.79.02-1.05Z" fill="#9f2d20"/>
      <path d="M778.74,239.82c-.04.06-.08.12-.11.18.07-.05.11-.11.11-.18Z" fill="#9f2d20"/>
      <path d="M774.62,241.7c.94-.57,2.57-1.06,3.93-1.55l.08-.15c-.23.16-1.1.37-1.94.63-.85.27-1.7.68-2.08,1.07Z" fill="#9f2d20"/>
      <path d="M766.53,258.92c-.39-1.39-.59-2.84-.6-4.27-.12.75-.27,1.8-.43-.21-.08,1.4.02,2.03.05,2.27.04.24.08.09.14-.04.05-.14.12-.27.22-.02.11.25.23.9.62,2.27Z" fill="#9f2d20"/>
      <path d="M776.78,266.19c-2.41.65.09.24,0,.34.75-.31,1.17-.54,1.21-.61.04-.07-.31.06-1.2.27Z" fill="#9f2d20"/>
      <path d="M776.44,231.71c-.06-.14-.11-.29-.15-.44-1.09,1.7.1.09.15.44Z" fill="#9f2d20"/>
      <path d="M776.46,248.77c-.18-.34-.27-.68-.28-1.11-.16-.16-.31-.37-.46-.59.12.74.34,1.32.74,1.7Z" fill="#9f2d20"/>
      <path d="M786.29,249.22l-.61.62c.83-.74,1.51-1.62,2.12-2.52-.22.34-.47.65-.71.98-.26.31-.53.61-.8.92Z" fill="#9f2d20"/>
      <path d="M797.91,237.58l-.46.57c.1,1.22.64,1.51.46-.57Z" fill="#9f2d20"/>
      <path d="M777.4,259.66c.35.22,1.03.49,1.79.65.76.16,1.59.2,2.21.11-1.62-.08-3.19-.58-4-.76Z" fill="#9f2d20"/>
      <path d="M760.8,251.27c-.23-.46-.49-.92-.66-1.41.32.93.73,1.82,1.21,2.65-.19-.41-.41-.81-.55-1.24Z" fill="#9f2d20"/>
    </g>
    <g>
      <path d="M757.91,208.9c0-.15-.21-.37-.32-.22.06.16.12.32.19.47l.13-.26Z" fill="#9f2d20"/>
      <path d="M756.38,209.03c.02.35.22.78.67.95-.25-.44-.08-.36-.34-.91.1-.18.35-.13.45.03-.03-.14.28-.1.16-.4-.43-.15-.72.09-.69.55-.13-.02-.18-.15-.24-.23Z" fill="#9f2d20"/>
      <path d="M764.02,210.16l-.12.12s.08-.07.12-.12Z" fill="#9f2d20"/>
      <path d="M754.16,204.74c.09-.05.11-.12.1-.16-.08.07-.14.13-.1.16Z" fill="#9f2d20"/>
      <path d="M751.82,205.51s.09-.04.14-.06c-.07,0-.13.01-.14.06Z" fill="#9f2d20"/>
      <path d="M764.02,210.16l.27-.33c-.15-.07-.18.16-.27.33Z" fill="#9f2d20"/>
      <path d="M756.36,211.71c-.01-.06-.05-.11-.1-.17.01.05.02.1.03.14.03,0,.05.01.08.02Z" fill="#9f2d20"/>
      <path d="M758.49,213.04l-.12-.04c-.05.04-.11.09-.17.15l.29-.11Z" fill="#9f2d20"/>
      <path d="M758.66,210.62c-.06-.14-.45.04-.62.1.18-.04.31,0,.39.09.07-.04.15-.09.23-.2Z" fill="#9f2d20"/>
      <path d="M754.58,212.41l-.06-.13s.03.09.06.13Z" fill="#9f2d20"/>
      <path d="M762.35,212.82s.08.09.12.1c-.03-.05-.07-.08-.12-.1Z" fill="#9f2d20"/>
      <path d="M754.01,214.06s-.02.04-.04.07c.03-.03.05-.05.04-.07Z" fill="#9f2d20"/>
      <path d="M757.7,215.46l-.04.06c.05.06.1.12.16.17l-.12-.24Z" fill="#9f2d20"/>
      <path d="M748.34,208.67s.01,0,.02-.02c.02-.14,0-.07-.02.02Z" fill="#9f2d20"/>
      <path d="M763.86,201.46c.23.55-.9.07-.48.77,0-.19.89-.26.48-.77Z" fill="#9f2d20"/>
      <path d="M756.29,211.79s-.01.09-.02.13c.02-.06.03-.1.02-.13Z" fill="#9f2d20"/>
      <path d="M763.39,202.22h0s.04.07.04.07c-.02-.03-.03-.05-.04-.07Z" fill="#9f2d20"/>
      <path d="M750.51,219.19c.03-.07.03-.14.03-.21-.03.04-.04.09-.03.21Z" fill="#9f2d20"/>
      <path d="M748.19,211.6l-.08.19c.05-.07.07-.13.08-.19Z" fill="#9f2d20"/>
      <path d="M754.48,220.58c.1.06.12.13.28.1,0-.02-.02-.04-.03-.06-.06.05-.14.05-.24-.04Z" fill="#9f2d20"/>
      <path d="M758.81,220.25s-.07-.03-.11-.04c-.04.02-.08.05-.12.08l.23-.04Z" fill="#9f2d20"/>
      <path d="M755.12,207.84c-.13-.05-.24-.12-.35-.2.23.2-.06.57.35.2Z" fill="#9f2d20"/>
      <path d="M756.13,211.67c.1.04.15.07.16.12,0-.03,0-.06,0-.1-.06-.02-.12-.03-.16-.02Z" fill="#9f2d20"/>
      <path d="M755.35,217.38l.38.12c-.1-.06-.24-.09-.38-.12Z" fill="#9f2d20"/>
      <path d="M754.11,213.55h.11s-.07-.03-.11,0Z" fill="#9f2d20"/>
      <path d="M756.81,217.41c.09.15.18.21.26.24,0-.04.02-.07.01-.12-.1-.04-.18-.06-.27-.12Z" fill="#9f2d20"/>
      <path d="M754.77,207.64h0s0,0,0,0Z" fill="#9f2d20"/>
      <path d="M753.72,210.51c.16-.33-.41-.4-.66-.62.11-.54.47,0,.79,0,.02-.31-.25-.81-.08-.99.08.04.14.03.19.14-.11-.57.68-.78.67-1.47.06.02.1.04.13.07-.23-.17-.43-.37-.54-.54.17-.15.12-.55.42-.32-.12.08-.04.2-.02.33l.09-.27c.49.28-.15.34.09.65.24-.41.45-1.09.84-1.17.33.38-.6.61.04.72l-.55.16c.8.4-.29.15.52.62.63-.27.48-.65,1.16-.89,0-.33-.26-.33-.26-.66.68-.97,1.33.72,1.7-.23.01-.2-.03-.45,0-.65.02-.1.05-.18.13-.24.07-.05.22-.1.29-.04.04.2.13.36.14.57.17-.05.08-.24.1-.43,0-.18.06-.35.24-.19-.06.26-.2.28-.15.34.19.42.08-.39.28-.43,0,.19-.02.38-.04.56l.07-.03c.22-.14.66-.15.88.21-.15.04-.31.08-.42.21.02.01.04.03.07.06l.1.17c.06.11.11.24.15.36.09.25.13.51.16.77.05.53-.02,1.05-.12,1.51.16.1.31.2.46.3,0,.08-.19.16-.28.08-.15.35.28,0,.46.17.03.21-.25.27-.38.15.2.3.37.74.4,1.2.01.44-.11.89-.46,1.07l-.08-.15c-.16.17,0,.38.11.58.12.2.2.42-.1.5l-.02-.11c-.35.4-.67.82-1.08,1.09-.4.29-.9.43-1.35.22.02.32-.24.34-.49.33-.25.02-.48.02-.48.46-.33-.19-.44-.35-.57-.48-.13-.13-.29-.25-.66-.44-.19-.07-.41.48-.72.51l.11-.45c-.16.12-.32.24-.5.35,0-.19,0-.39,0-.59h-.27c.08.08.12.29.05.41-.49.04-.74-.73-.59-.93-.31-.04-.6-.12-.91-.23.14-.11.3-.07.46-.09-.65.05.27-.39-.29-.36-.04.11-.22.16-.3.21.06-.32-.17-.7-.44-.96l.32-.09c-.19-.54-.6-1.16-.61-1.92-.15.27-.7.26-.75,0l.49-.1c-.3-.16-.18.26-.55-.07.06-.32.55-.18.71-.02-.06-.12-.1-.24-.15-.36.15,0,.22.08.4.11-.3-.18.55-.49.07-.78h.15c.17-.69.17-1.06.43-1.61-.36-.22-.16-.39-.32-.74.4-.36.98-.49,1.39-.87.19-.42-.13-.36-.13-.68.26.29.72-.06.62.34.57-.41.7-.53,1.48-1.13-.15-.12-.28-.14-.27-.28.15-.13.44.03.46.22l-.03.05c.43-.44,1.15-.28,1.74-.08.6.19,1.1.46,1.55.09l-.05.03c.3-.1.61-.21.93-.28.39.14-.29.24-.05.53.52-.22.89-.08,1.19.08.31.17.57.36,1,.34,0,.64.38.84.76,1.08.37.22.72.51.49.86l.23-.14c.29,0-.08.2-.11.29.19-.08.18-.21.34-.19.36.47.26,1.27-.15,2.04-.39.78-1.04,1.58-1.61,2.44-.4.61,1.03,1.03,0,1.55l-.3-.48c-.22,1.6-1.63,2.65-2.1,4.03-.04-.14-.15-.23-.07-.33-.46.02-.67.76-.48.97-.16.12-.22-.15-.41-.17-.32.02-.17.77-.5.57-.05-.03-.02-.13,0-.18-.01.25-.58.35-.25.62-.44,0-.6.5-.99.34-.04.27-.23.23-.39.21-.16-.01-.29,0-.32.32,0-.34-.18-.48-.39-.49-.21-.02-.48.03-.65.18.13-.18-.19-.26-.02-.51-.28-.07-.59-.01-.65.32-.14-.5-.46-.43-.76-.45-.3,0-.59-.05-.43-.58-.98-.22-1.84-.79-2.41-1.52.31-.14.45.05.58.24.15.18.31.34.58.1-.66-.42-1.46-.65-1.5-1.51.03-.22.32.05.45.08-.47-.67-.11-1.44-.31-2.22.06.02.11.11.14.19.02-.15.18-.3-.12-.36l.04.16c-.5.16-.75-.86-.92-.99.73.56.51-.71,1.37.13-.02-.11-.09-.28-.29-.35.12-.11.25-.1.4.14.09-.55-.29-.55,0-.99.12.08.12.2.24.34-.12-.37-.2-.77.19-1.05.05.08.18.11.09.21.43-.59.34-1.56,1.25-1.89.19.68.36-.02.72.43l.28-.38-.3-.13c.33-.22.48-.74.88-.75-.06.11-.11.23-.17.35.2-.16.43-.29.65-.42l-.49-.02c.27-.43-.34-.62.26-.72-.09.09.42-.17.74.09h0c.14-.24.31-.49.67-.43.12.15.08.62.16.72.09-.52.91-.31,1.12-.83-.08.12-.05.42-.02.47l.14-.39c.21.1.23.17.22.4.57.05-.21-.71.49-.41-.06.03-.03.09-.14.14.67.16,1.38-.15,1.94.21.01.58-.54,0-.46.51.4.04.85.02,1.28.1.43.07.85.27,1.04.61l-.05-.15c.33-.23.38-.03.36.21,0,.25-.1.5.14.6-.09-.07-.45.07-.36.05.03.43.49.82.53,1.73l-.18-.15c-.24.25-.36.72-.62.92.12.2-.04.32.27.42-.79.04-.94.32-1.34.66-.36.32-.96.58-1.37.02.11.02.27-.16.19-.16-.25.04-.51.06-.78.03-.05.35.03.24.14.54-.16.18-.47.25-.7.15.49-.06.18-.52.15-.76-.02.11-.12.19-.16.29-.09-.76-.42.6-.77-.14l.14-.13c-.24-.06-.58-.05-.73-.3.23-.34.32.07.56-.16-.21-.16-.84-.1-.9-.45l-.21.22s.05.08.07.15c-.04,0-.09,0-.13,0l.43-.45c.12.08.2.21.34.25.11-.31.15-.41.13-.49l-1.12,1.18s.08.05.12.12v-.02c.06.13.11.26.13.39l.03-.15c.48-.26.68-.08.77.12.1.22.12.42.47.71-.34-.29-.45-.25-.51-.21-.06.05-.1.13-.33.14-.12.11-.27.2-.39.16.18.07.09.12.03.15-.07.03-.1.04.07.27-.12-.08-.11.12-.37-.15-.02.19.21.15.35.27.07.29-.23.37-.48.34-.27-.02-.42-.11-.66.13l.8.62-.1-.05c-.46-.5-1-.56-1.28-1.29.23-.24.53.18.54.17.19-.37.17-.61.05-.98.11.09.23.03.41-.04.01-.25-.5-.29-.19-.58.14.11.37.25.5.4-.06-.3-.24-.67-.21-1.03.27.03.27.33.4.49,0-.35.16-.88-.1-1.19-.09.04-.17.08-.25.13.05-.13.33.12.35.24.13.41-.32.32-.47.29,0-.08,0-.17.02-.26-.43-.08-.54.18-.5.5.02.32.18.67.11.9-.19-.1-.38-.22-.57-.34.14.22.26.42.42.61-.17.08-.53.14-.59-.14-.35.37.18.36-.17.69-.05.04-.08.02-.11-.02.06.14.12.27.2.39-.14-.07-.44.1-.36-.16-.16.39,0,.69.14.91.15.22.29.36.1.57l-.06-.05c.21.37.34.42.44.4l.28.22c.04-.17-.02-.38.36-.69.13.38.35.73.64,1.06,0-.16,0-.32,0-.47.11,0,.32-.05.35.13.26-.45-.13-.16-.04-.52.31.09.6-.15.8-.36.21-.21.36-.4.71-.27-.2-.33-.49.27-.41-.31.38.13.44-.06.42-.29-.02-.24-.12-.47.07-.7.41.15.12.71.55.16-.33-.2-.3-.43-.25-.73.05-.29.1-.67-.08-.86-.25.11-.4-.08-.62-.32-.21-.25-.53-.56-.91-.64.02-.02,0-.06-.04-.11l-.8-.92.09,1.67c0,.16.12.49.32.83.2.33.47.67.67.9l-.07.06c.43-.36.92.07,1.41.11-.13.3-.26.41-.58.42.15.07.3.13.46.18.17-.13.33-.17.64-.16l-.21.37c.69.13,1.33-.26,2.17-.14-.02-.19-.22-.42-.31-.67-.09-.25-.07-.47.21-.67.07.2.19.53.01.66.06-.04.19-.21.33-.17-.06.15-.13.28-.22.42.38.07.11-.32.37-.37.09.28.27.13.31.36-.06.05-.28-.03-.36.11.33-.04.78-.06,1.03.07-.11-.13-.19-.35,0-.51.52-.38.39.17.81.04,0-.26.46-.43.13-.74.12-.14.3-.04.45-.02.03-.2.25-.54.34-.84.09-.3.09-.52-.2-.44l-.06.06s0-.03,0-.05h0s0,0,0,0c0-.55.17-1,.3-1.52.13-.51.18-1.1-.09-1.57l.14-.05c-.36-.56-.79-1.22-1.31-1.28-.12-.11-.12-.48.05-.56-.46-.21-.56-.1-1.03-.63.54,0-.03-.29.52.08-.47-.42-.54-.72-1.3-.56.34-.29-.31-.61-.62-.55.12.12.24.24.35.37-.32-.04-.59-.13-.86-.21l.24-.47c-.59-.42-1.23-.2-1.74,0-.53.21-.95.4-1.49-.02-.26.39.69.14.45.59-.52,0-1.24-.59-1.42-.54-.85-.08-.49.9-1.28.96.16.13.4.54-.03.91-.48.14-.91-.42-.65-.69.11-.07.2-.04.21.02.13-.13.32-.29.04-.38v.19c-.33-.07-1,.3-.97-.04-.3.35-.02.34.29.28-.76.1-.97.53-1.67.81.15,0,.36.11.26.18-.97.48-.18.53-.65,1.06-.48.07-.33-.58-.71.08-.44.2-.41-.27-.37-.5-.24.73-1.06.81-1.36,1.12l.12-.39c-.08.24-.19.38-.31.54l.42.04c-.18.14-.3.29-.41.2.07.32.58.2.61.74-.31.14-.27.81-.72.68.56-.72-.49-.15-.15-.86-.03.16-.14.31-.29.49-.06,0-.07-.07-.07-.14-.78.65.25.6-.08,1.45-.21-.21-.55.03-.55.2.14-.36.47-.02.57.35-.34.51-.01.65-.09.93.04-.11.11-.21.17-.31.22.17.14.43.18.82-.21,0-.09-.37-.2-.24.21.25.04.46-.11.72-.14.26-.32.57-.14.87-.15.31-.5.06-.59.35.43.72-.22.92.28,1.65.28-.35.16-.32.68.05-.24-.35-.41-.74-.6-1.14.23.24.48.45.71.64-.09-.34-.44-.68-.39-.93.34.32.24.29.51.07-.23.28-.07.51.09.71.15.21.36.39.31.7l-.82.34c-.01.52.32.82.65,1.12.35.29.73.55,1.03,1.04-.04-.12-.09-.24-.12-.37.36-.11.5.46.84.61-.23.19-.13.42-.13.66.12-.18.63.56,1.07.11l.19.6c.72.6,1.28-.24,1.97.14-.35.21-.05.55-.68.55.27.11.5.26.57.07.11.24.88-.16,1.06.17.15-.11.24-.41.54-.34.03.06-.02.14-.02.14.03-.14.5-.13.27-.49.35.5.99.52,1.57.39.29-.04.57-.13.84-.18.27-.04.53-.02.78.07.58-.34,1.16-.82,1.56-1.18.03.09.09.12-.01.16.77-.29-.2-.93.58-1.27.64.03-.12.49.19.43.8.59.6-.83,1.35-.9l-.04.14c.53-.14.32-1.04.75-1.54,0,0,.05.08.12.09-.15-.66.17-1.45.38-2.06.22.36.02.35.42.45.1-.27-.57-.25-.38-.79.27-.05.63-.31,1.02-.15l-.25.48c.6.03.34-.62.55-.82l.19.14c.33-.77-.19-1.05.24-1.82h-.2c-.32-.68.47-.21.28-.84l.6.11c0-.36-.08-1.28-.04-1.87.34.44.31,1.19.37,1.7.14-.3.38-1.1.14-1.36.02.15.1.36-.03.46-.3-.55-.37-1.1-.25-1.74.55.15.72-.29.76-.87.05-.58-.06-1.25.27-1.68-.41-.68-.73-1.34-1.13-1.97-.4-.63-.9-1.24-1.57-1.64-.04,1.04-.39-.22-.79.62-.31-.12-.41-.18-.41-.25-.2-.32-.43-.62-.67-.92-.12-.34.38-.06.43-.26-.68-.36-.14-.5-.55-.9-.01.35-.41.35-.8.1.16.19.31.4.45.59-.57.05-.72-.17-.9-.42-.17-.25-.37-.49-.95-.35l.39-.22c-.57.02-2.09-.3-2.61.48-.09-.11-.23-.36.01-.42-.66-.06-1.39.22-2.03.49-.65.28-1.22.55-1.77.53l.02-.25c-.21.15-.25.53-.62.46-.02-.09,0-.25-.11-.21-.1.13-.43.63-.77.68l.13-.36c-.66.18-1.02.61-1.27,1.07-.25.45-.4.95-.7,1.38-.48-.47-1.34.22-1.72.63l-.07-.07c-.93,1.38-.7,2.7-.65,4.07-.4.38-.56,1.15-.5,1.99.04.85.26,1.75.39,2.53.02-.26.49-.16.65.04.04.38.84.59.3.86-.02-.04-.03-.08-.05-.11-.37.53.19,1.1.6,1.54l.64-.47c.08.92.98,1.5,1.8,1.75.83.27,1.55.35,1.82.93.38-.11.8-.03,1.15-.2l-.06.42c.95.2,1.47.27,2.67-.04l-.2.34c.74-.09.6-1.38,1.11-1.57l.39.52c.55-.22,1.17-.38,1.72-.72.55-.31,1.05-.82,1.18-1.46.06.07.18.21.07.39.2-.21.63-.62.87-1.03.22-.42.28-.8-.16-.89.26.11.39-.17.45-.56.03-.4-.02-.88-.1-1.19l.39.18c-.42-.62-.57-.64-.65-1.31.06-.15.34-.12.22.09.25-.52-.36-.43-.15-1.05l.27.23c.03-.55-.12-.5-.45-.77-.18-.31,0-.98.35-1.13-.24-.03-.59-.26-.55-.57.13-.07.24.02.3.06.08-.94-.8-1.12-.6-1.8.13-.06.18-.12.2-.18.23.66.35,1.22.31,1.17.37-.1.27-.69.92-.38-.21-.18-.5-.44-.79-.69-.13-.13-.26-.26-.35-.39-.09-.14-.19-.38-.23-.57.02-.05.03-.11.07-.17l.07.06c-.05-.2-.16-.33-.29-.43-.08-.26-.14-.44-.29-.65.18-.33-.56-.88-.94-1.07-.17.39-.57.1-.31.63-.04-.05.09-.02.29.12.05.02.11.06.15.06h-.04c.2.16.43.38.65.69-.34-.1-.61-.16-.79-.61-.29.11-.56.28-.7.35-.05-.3-.23-.57-.45-.78-.32-.3-.72-.45-.81-.66-.32.1-.65.23-.97.4-.16.08-.32.18-.47.27-.15.09-.33.21-.39.27-.35.29-.63.63-.67,1.1-.16.2-.34-.08-.48-.15.08-.13.23-.2.24-.33-.32.39-1.19.73-1,1.27-.63.09.02-.61-.63-.11v-.2c-.93.06-1.31.77-1.64,1.46-.34.71-.59,1.34-1.61,1.74.14-.06.2-.1.29-.06-.87.69-1.31,1.8-1.51,2.89-.19,1.12-.2,2.19-.23,3.43.07.7.46.64.86.84-.11.11-.21.23-.32.35.29.12.55.21.84.26.43.22.54.65.78,1.11.24.42.66.88,1.37.71l-.05-.34c.38.22,1.31.1,1.21.43.05-.05.16-.31.32-.15v.24c.37-.13.72-.3,1.02-.5.4,0,.45.2.54.41.08.19.22.42.92.09.22-.18.47-.55.55-.88.09-.33.06-.57-.06-.56-.14.13-.45.22-.6.04l.18-.34c-.23-.26-.44-.55-.7-.75-.27-.2-.55-.33-.82-.44.03.16.02.33-.02.51-.08-.09-.15-.17-.22-.27.07-.03.12-.08.19-.11-.26-.24-.17.05-.22.26-.08-.17-.14-.26-.21-.32-.03.23-.1.48-.22.7-.05-.27.09-.55-.12-.69-.15.32.2.6-.1.82-.2-.33-.1-.56-.35-.33,0-.18.05-.29.14-.36-.2.2-.47.01-.68.33-.06-.42-.69-.17-.35-.76-.12.12-.54.28-.71.18.71-.4-.41-.47.33-.94-.31.17-.48.07-.61-.12-.11-.19-.2-.41-.42-.59.06.01.18.04.15.08.01-.24.23-.34.34-.48-.59.02-.73-.39-1.07-.68.61-.27.66.28,1.22.21-.49-.01-.4-.58-.8-.55.4-.18.21-.19.72-.19-.69-.24-.07-.25-.41-.6.48-.23.67.17.62-.29.15-.03.23.06.29.15.06.1.09.2.09.2ZM760.32,205.63h0s-.06-.09-.08-.11c.02.02.04.06.08.11ZM760.64,206.49c-.02-.12-.07-.26-.12-.41.13-.08.28-.1.3,0-.11-.02-.11.23-.18.41ZM761.85,202.62c.24.15.25.3.21.39-.09-.1-.2-.2-.36-.31-.02,0-.04.01-.05.02.07-.05.13-.09.21-.1Z" fill="#9f2d20"/>
      <path d="M761.17,202.77s-.06,0-.1-.03c.02.06.04.12.07.17.05-.02.09-.04.14-.06-.04-.03-.07-.05-.11-.08Z" fill="#9f2d20"/>
      <path d="M763.89,210.3l.02-.02s-.05.03-.08.03c.03,0,.04,0,.06,0Z" fill="#9f2d20"/>
      <path d="M755.02,213.66l-.03.1.09-.07s-.04-.02-.07-.03Z" fill="#9f2d20"/>
      <path d="M758.64,211.04s0-.08,0-.12c-.01.03,0,.07,0,.12Z" fill="#9f2d20"/>
      <path d="M756.4,211.16c.03.08.05.16.06.24,0-.12-.03-.19-.06-.24Z" fill="#9f2d20"/>
      <path d="M756.78,212.14c.08,0,.13,0,.18,0h0s-.19,0-.19,0Z" fill="#9f2d20"/>
      <path d="M750.99,212s0,.04,0,.06c.07.15.04.05,0-.06Z" fill="#9f2d20"/>
      <path d="M755.82,205.81c-.06.1-.13.2-.2.28.16-.02.27-.05.2-.28Z" fill="#9f2d20"/>
      <polygon points="755.31 217.36 755.31 217.36 755.35 217.38 755.31 217.36" fill="#9f2d20"/>
      <path d="M755.24,206.22c.17.01.28-.05.37-.14-.13,0-.28.03-.37.14Z" fill="#9f2d20"/>
      <path d="M756.87,210.47l.05-.05s-.04-.03-.05-.04v.1Z" fill="#9f2d20"/>
      <path d="M756.86,210.37v-.1s-.03.06,0,.1Z" fill="#9f2d20"/>
      <path d="M756.87,210.08v.2s.08-.1,0-.2Z" fill="#9f2d20"/>
      <path d="M756.13,212.35l.15.03s-.08-.02-.15-.03Z" fill="#9f2d20"/>
      <path d="M756.21,212.96c.02-.16.29-.38.2-.56l-.12-.02c.22.08-.36.46-.08.58Z" fill="#9f2d20"/>
      <path d="M757.78,214.21c-.24.17-.5.31-.76.4.2.08.51.15.15.4.65-.09.55-.17.42-.24-.13-.1-.25-.2.19-.55Z" fill="#9f2d20"/>
      <path d="M758.8,211.59c.17.5.24-.05.33-.05-.23-.32-.29-.36-.33.05Z" fill="#9f2d20"/>
      <path d="M762.86,205.09l.27-.27c-.32-.18-.09.12-.27.27Z" fill="#9f2d20"/>
      <path d="M759.49,205.81l.19.27.17-.32c-.12.01-.24.04-.36.05Z" fill="#9f2d20"/>
      <path d="M757.84,203.02l.14-.06c-.18.05-.36.12-.54.18l.4-.12Z" fill="#9f2d20"/>
      <path d="M758.16,220.88l-.23-.43c-.19.14-.13.68.23.43Z" fill="#9f2d20"/>
      <path d="M765.58,211.78c.27,0,.54-.23.42-.5-.14.22-.41.36-.42.5Z" fill="#9f2d20"/>
      <polygon points="750.77 215.62 750.45 215.54 750.95 215.81 750.77 215.62" fill="#9f2d20"/>
    </g>
    <g>
      <path d="M777.86,205.88c-.11-.1-.41-.12-.38.06.15.07.31.13.47.19-.03-.08-.06-.16-.09-.25Z" fill="#9f2d20"/>
      <path d="M776.89,207.02c.27.22.74.33,1.15.11-.5-.08-.31-.15-.9-.32-.07-.19.15-.33.33-.29-.13-.07.12-.25-.18-.38-.41.19-.43.57-.08.85-.1.08-.24.03-.33.03Z" fill="#9f2d20"/>
      <path d="M772.62,205.09l.04-.15s-.04.09-.04.15Z" fill="#9f2d20"/>
      <path d="M782.3,209.25c-.06.09-.06.16-.02.2.04-.1.07-.19.02-.2Z" fill="#9f2d20"/>
      <path d="M783.98,207.08c-.03.06-.05.11-.07.16.06-.05.1-.11.07-.16Z" fill="#9f2d20"/>
      <path d="M772.62,205.09l-.09.38c.16,0,.08-.2.09-.38Z" fill="#9f2d20"/>
      <path d="M777.34,207.38s.03.08.06.12c0-.02,0-.05,0-.07-.02-.02-.04-.03-.06-.05Z" fill="#9f2d20"/>
      <path d="M774.59,199.24s.08-.05.12-.07c0-.07.01-.15.01-.23-.05.1-.09.19-.13.3Z" fill="#9f2d20"/>
      <path d="M779.79,200.35c-.06-.11-.42.11-.59.2.17-.06.29-.04.38.02.07-.05.14-.11.21-.22Z" fill="#9f2d20"/>
      <path d="M779.17,207.6v.14s0-.1,0-.14Z" fill="#9f2d20"/>
      <path d="M772.22,202.24c-.06,0-.12,0-.16.01.05.01.1,0,.16-.01Z" fill="#9f2d20"/>
      <path d="M778.16,208.35s-.05,0-.07,0c.04.02.07.03.07,0Z" fill="#9f2d20"/>
      <path d="M776.35,213.33l-.03-.07c-.08,0-.16,0-.24,0l.26.07Z" fill="#9f2d20"/>
      <path d="M783,201.74s0,.01.01.03c.14.09.07.02-.01-.03Z" fill="#9f2d20"/>
      <path d="M785.47,199.44c-.12.62-.8-.55-.84.32.12-.15.88.38.84-.32Z" fill="#9f2d20"/>
      <path d="M777.41,207.39s.02-.04.04-.06c-.03.02-.04.04-.04.06Z" fill="#9f2d20"/>
      <path d="M784.63,199.77h0s0,.09,0,.09c0-.04,0-.06,0-.09Z" fill="#9f2d20"/>
      <path d="M772.57,204.63c.08,0,.15-.01.21-.03-.04-.01-.1-.01-.21.03Z" fill="#9f2d20"/>
      <path d="M779.73,200.91l-.21-.09c.08.05.15.07.21.09Z" fill="#9f2d20"/>
      <path d="M772.47,208.75c-.03.1-.09.14-.02.27.02-.01.04-.03.05-.04-.06-.05-.09-.11-.03-.23Z" fill="#9f2d20"/>
      <path d="M773.26,212.98l.03-.14s-.06-.09-.08-.14c.01.09.03.18.05.27Z" fill="#9f2d20"/>
      <path d="M781.34,204.25c0-.13.03-.26.06-.39-.1.28-.45.26-.06.39Z" fill="#9f2d20"/>
      <path d="M777.52,207.54c-.07-.08-.11-.12-.11-.15,0,.01,0,.04-.01.05.04.04.09.09.12.1Z" fill="#9f2d20"/>
      <path d="M775.8,208.77c-.02.16-.02.32-.03.48.03-.14.03-.31.03-.48Z" fill="#9f2d20"/>
      <path d="M771.46,211.24l.08.09s-.03-.07-.08-.09Z" fill="#9f2d20"/>
      <path d="M776.05,210.7c-.12.14-.22.12-.26.19.03,0,.06,0,.11-.02.03-.02.05-.04.08-.06.03-.01.06-.03.07-.11Z" fill="#9f2d20"/>
      <path d="M781.4,203.86h0s0,0,0,0Z" fill="#9f2d20"/>
      <path d="M779.12,204.65c.22-.06-.04-.55-.07-.88.38-.26.27.36.43.62.17-.18.38-.69.6-.65.01.09.05.13,0,.24.16-.22.38-.19.61-.16.23.04.45.07.72-.1,0,.06,0,.1-.01.14.06-.28.16-.54.25-.72.2.06.52-.13.41.22-.11-.07-.19.05-.29.12l.26-.03c-.11.54-.33.02-.5.36.37,0,1.04-.07,1.14.27-.16.2-.31.12-.41.06-.12-.05-.2-.06-.2.21-.07-.12-.12-.26-.21-.39-.19.83-.16-.16-.4.69.11.18.24.18.35.22.13.02.23.07.29.25.29-.06.33-.26.63-.3.44.23.19.55-.04.74-.26.23-.48.34-.11.52.36.05,1.02.06.71.54-.19-.05-.39-.09-.58-.12-.05.49.85.32.4.9-.21-.14-.14-.46-.22-.39-.49.32.31.3.24.61l-.51-.04c-.03.57.05,1.37-.27,2.06-.1-.12-.18-.3-.4-.25-.24.9-1.25,1.39-2.14,1.6-.01.18-.03.37-.05.55-.07.04-.23-.09-.2-.21-.39.03.13.25.06.49-.17.13-.36-.09-.31-.27-.34.64-1.39,1.53-2.23,1.29l.09-.17c-.57,0-.36,1.05-.99.8l.08-.1c-.63.07-1.26.26-1.89.37-.63.12-1.22.13-1.46-.22-.08.44-.28.11-.4.1-.07,0-.16.05-.33.27-.03-.3.07-.45.13-.58.07-.13.09-.28.04-.69-.05-.22-.65-.06-.85-.31l.42-.19c-.2-.06-.4-.12-.6-.2l.45-.39-.2-.22c0,.11-.13.28-.26.31-.36-.37.03-1.12.27-1.17-.2-.3-.37-.61-.53-.95.18,0,.26.17.4.29-.53-.49.47-.14,0-.58-.1.07-.28-.02-.37-.03.26-.26.27-.8.19-1.23l.31.11c.14-.7.08-1.54.38-2.32-.25.22-.75-.01-.7-.28l.49.08c-.22-.27-.27.18-.49-.27.18-.29.59.02.67.24-.01-.14,0-.28,0-.41.14.04.17.15.33.25-.21-.28.71-.33.35-.77l.13.06c.41-.67.52-1.05.95-1.56-.29-.3-.05-.44-.13-.82.48-.28,1.14-.37,1.62-.74.26-.41-.08-.37-.05-.69.23.3.76-.03.61.37.63-.41.79-.51,1.59-1.13-.15-.11-.29-.14-.27-.28.15-.12.44.02.47.21l-.03.05c.44-.44,1.15-.31,1.75-.13.63.19,1.08.4,1.46.04l-.04.04c.26-.12.51-.21.77-.28.26.15-.25.23-.12.51.38-.21.58-.06.66.08.09.15.12.31.44.48-.42.43-.26.79-.1,1.29.1.23.17.48.18.72.03.24-.04.47-.22.65l.27-.04c.26.2-.16.23-.22.36.21,0,.24-.2.38-.07.11.85-.18,1.74-.66,2.5-.49.77-1.16,1.39-1.77,1.95-.43.41.81,1.21-.25,1.35l-.18-.52c-.23.67-.79,1.07-1.34,1.4-.58.31-1.15.55-1.68.96.04-.13,0-.27.11-.3-.09-.07-.19-.09-.29-.08-.1.01-.22.06-.21.1-.04.1-.07.26-.08.41-.07-.02-.01-.27-.03-.42-.01-.11-.04.01-.11.11-.06.1-.15.17-.08-.02.02-.06.07-.11.09-.14-.12.18-.08-.1-.35.29.02-.14-.04-.16-.1-.2-.06-.04-.11-.11,0-.21-.12,0-.16.02-.19-.06-.03-.1-.03-.21-.03-.31,0-.21-.02-.38-.36-.37.67-.08.42-.95.1-1.25.21.09.2-.28.49-.17-.02-.34-.14-.65-.49-.6.41-.31.28-.6.19-.89-.09-.29-.13-.56.41-.58-.11-.98.1-1.79.71-2.48.39.52-.63.69-.04,1.13.19-.66.29-1.48,1.09-1.66.22.02,0,.31,0,.44.27-.28.62-.36.92-.4.32-.04.57-.02.88-.13-.02.06-.09.11-.15.15.1.01.2.15.28-.14l-.13.05c-.03-.23.13-.45.37-.58.23-.14.53-.2.59-.29-.61.65.5.58-.44,1.29.09-.01.24-.07.36-.24.06.12,0,.23-.24.34.38.13.54-.18.79.16-.13.08-.22.05-.38.12.34-.04.73.04.75.44-.09.01-.19.09-.22,0,.13.27.38.47.57.75.18.27.29.64.07.98-.59-.35-.26.19-.82.05.02.12.03.24.03.37l.31-.03c-.13.29.05.79-.3.94l-.03-.35c-.1.2-.2.4-.33.58.14-.04.28-.1.42-.16-.03.48.59.42.09.73.05-.12-.32.31-.69.18h0c-.04.26-.12.55-.46.59-.16-.12-.27-.56-.37-.64.08.52-.71.51-.79,1.04.05-.14-.05-.42-.09-.46l-.04.41c-.21-.07-.25-.12-.28-.35-.52.04.33.67-.37.49.05-.04.01-.09.11-.16-.33-.03-.61.05-.9.08-.29.04-.59.02-.79-.17.09-.56.44.01.44-.49-.28-.03-.6-.01-.96-.18-.35-.16-.69-.5-.8-.92v.17c-.77.22.1-.75-.38-1.04.09.09.47,0,.37,0-.07-.63-.6-1.17-1.04-2.04l.22.07c.1-.39-.06-.93.03-1.29-.21-.1-.17-.31-.47-.18.58-.57.51-1,.52-1.5,0-.49.2-1.11.88-1.04-.08.07-.05.3,0,.24.12-.21.27-.4.45-.57-.22-.27-.18-.14-.48-.27-.03-.23.12-.51.34-.61-.28.4.25.48.43.64-.06-.09-.05-.22-.1-.32.56.49-.11-.74.62-.4l-.02.18c.21-.11.47-.33.73-.21,0,.41-.29.13-.35.46.15,0,.34-.14.55-.21.2-.07.42-.05.46.2-.19.01-.38-.07-.55-.02.11.55.15.45.29.63v-.02c.08.14.15.3.2.46,0-.06,0-.11,0-.17.49-.26.7-.09.83.11.14.21.22.44.65.61-.84-.3-.38.06-.82.18-.06.17-.14.39-.28.38.21.05.16.16.13.27-.03.11-.04.21.24.36-.14.03,0,.27-.37.22.12.31.25-.08.44-.06.26.25.1.58-.07.91-.17.33-.35.68-.13,1.18.07.79.51,1.09.51,1.85-.15.07-.26-.03-.33-.13-.07-.11-.11-.23-.11-.23-.32.27-.38.49-.41.83-.07-.12-.2-.12-.37-.18-.06.13.29.49-.02.44-.04-.16-.16-.39-.25-.54.03.11.13.29.02.45l.57.33c-.06-.03-.13-.07-.18-.11.14-.14.31-.09.46-.07l-.84-.48c0-.07,0-.02,0,0,0-.02,0-.04,0-.07l.91.51c-.25-.18-.52-.52-.89-.52-.03.09-.04.18-.06.27-.06-.12.3-.18.4-.12.39.13.04.42-.07.52-.06-.05-.13-.1-.19-.16-.27.23-.22.42-.06.57l-.07-.04c.16-.04.29-.19.35-.34.07-.15.09-.28.18-.36.12.18.23.37.31.57.03-.26-.01-.5-.07-.72.18,0,.54.09.47.38.48-.2-.02-.4.44-.57.06-.02.09.01.09.05,0-.15-.02-.29-.04-.43.1.11.44.08.27.28.58-.58-.13-1.17.4-1.3l.02.06c.04-.96-.41-.22-.77-1,.4-.06.8-.14,1.2-.24l-.43-.17c.03-.09.09-.28.27-.22-.26-.41-.2.03-.47-.21.49-.44-.14-1.25.55-1.42-.36-.13-.22.48-.51,0,.38-.11.33-.27.21-.44-.13-.17-.32-.33-.22-.6.43-.01.37.51.56-.07-.37-.03-.41-.24-.43-.52-.01-.27-.02-.6-.2-.74-.44.31-.72-.6-1.46-.8.06-.06-.17-.31-.58-.52-.4-.22-.96-.34-1.34-.39v-.09c-.09.55-.76.57-1.14.92-.13-.3-.12-.47.11-.71-.17.06-.32.14-.47.22-.02.22-.11.37-.32.6l-.14-.41c-.57.44-.68,1.18-1.31,1.72.33.19,1.17.11,1.07.81-.19-.08-.53-.21-.5-.43-.01.07.05.28-.09.35-.06-.14-.12-.28-.17-.43-.29.24.17.29.04.51-.27-.12-.27.11-.47-.02,0-.08.2-.19.15-.33-.19.26-.48.6-.73.68.17.01.39.1.37.33-.08.59-.39.14-.59.48.18.17-.05.56.39.58,0,.17-.21.2-.33.27.17.32.18,1.42.61,1.02l.02-.08s.01.03.03.04h0s0,0,0,0c.56.83.16,1.91.62,2.71l-.14.04c.32.45.52,1.13,1,1.33.07.14-.04.48-.23.51.36.34.47.26.78.94-.53-.18-.05.3-.49-.25.33.56.36.92,1.21.95-.43.21.29.7.68.66-.14-.13-.27-.27-.38-.42.36.09.66.2.97.28-.08.16-.17.31-.26.46.72.44,1.44.14,1.95-.16.53-.3.9-.59,1.56-.31.18-.44-.74.03-.6-.47.52-.11,1.4.23,1.58.12.88-.24.24-1.02.96-1.41-.21-.05-.57-.34-.32-.85.37-.33,1.01-.06.89.33-.08.12-.17.14-.21.09-.07.18-.2.42.11.38l-.08-.18c.34-.09.83-.8.95-.48.12-.51-.14-.32-.4-.09.66-.52.65-1.06,1.04-1.83-.13.11-.36.17-.33.04.26-.56.17-.74.06-.82-.12-.1-.25-.15-.29-.52.26-.44.67.15.38-.66.1-.53.45-.19.63.03-.43-.76-.13-1.56-.3-2.07.12.12.21.24.32.37-.18-.23-.28-.43-.39-.64-.06.14-.13.27-.2.39-.06-.26-.17-.46-.04-.53-.34-.1-.41.46-.94.22-.03-.38-.72-.6-.48-1,.59.87.27-.44.94.23-.16-.11-.3-.28-.44-.52,0-.07.1-.04.17,0-.25-.55-.47-.54-.68-.47-.22.06-.46.16-.92-.11.26-.16.01-.58-.2-.6.43.22,0,.47-.44.52-.56-.44-.73-.07-1.04-.16.12.04.24.11.35.18-.19.22-.47.13-.88.18-.02-.22.39-.1.25-.21-.26.19-.49.08-.79-.06-.29-.12-.64-.24-.93-.02-.34-.11-.14-.48-.45-.53-.64.55-.96-.07-1.59.56.39.2.34.11.06.68.31-.29.65-.55,1.03-.78-.2.26-.37.53-.52.8.31-.16.61-.52.85-.54-.25.41-.23.31.02.53-.67-.33-.71.65-1.33.62l-.48-.75c-.49.1-.77.46-.99.87-.23.4-.4.86-.82,1.29.11-.08.23-.15.34-.22.2.32-.37.62-.39,1.02-.25-.16-.45,0-.68.07.2.06-.33.8.22,1.06-.17.12-.33.24-.5.37-.35.87.65,1.12.49,1.87-.31-.26-.55.11-.73-.47-.03.28-.09.53.12.54-.2.17.39.75.13,1,.13.11.45.12.44.41-.06.04-.15.01-.15.01.14,0,.24.43.54.15-.42.43-.33.98-.2,1.5.06.23.15.56.19.87.04.31.04.6-.03.93.19.31.46.61.78.83.32.22.69.34,1,.39-.07.07-.06.14-.16.08.39.25.62.03.8-.17.19-.21.34-.4.78-.32.52.4-.51.34-.2.47.05.48.44.42.82.22.38-.19.63-.39,1.01-.21-.04.04-.07.07-.12.1.53.14.9-.7,1.53-.98,0,0,0,.09.06.13.21-.65.85-1.25,1.26-1.77.08.42-.11.35.23.57.2-.23-.44-.44-.07-.88.28.05.71-.1,1.03.16-.13.14-.26.28-.41.4.59.22.53-.53.81-.66l.14.19c.3-.33.3-.64.34-.9.03-.28.09-.52.35-.89l-.2-.03c-.21-.73.52-.15.41-.8l.58.18c.02-.18.04-.5.07-.85.01-.35.03-.72.09-1,.27.46.21,1.21.19,1.71.19-.28.49-1.06.28-1.33,0,.14.06.36-.08.44-.13-.29-.19-.57-.19-.84-.02-.29.02-.57.12-.87.54.23.73-.17.88-.67.18-.49.21-1.08.7-1.3-.33-1.25.18-2.51-.33-4-.69.78-.16-.42-1-.02-.17-.29-.22-.41-.18-.46.02-.39-.02-.81-.14-1.26.01-.41.41.2.55.05-.25-.42-.27-.56-.23-.69.04-.13.14-.24-.06-.6-.12.34-.59.07-1.03-.34.17.26.32.55.43.83-.69-.26-.82-.5-1.01-.82-.17-.29-.42-.62-1.11-.53.15-.06.31-.12.48-.17-.36-.03-.96-.16-1.53-.13-.56.02-1.09.18-1.32.56-.1-.1-.24-.34,0-.42-.65,0-1.35.27-1.96.57-.62.29-1.16.58-1.69.53v-.24c-.19.14-.22.54-.57.44-.02-.09,0-.24-.11-.21-.09.11-.41.61-.74.63l.13-.34c-1.26.3-1.35,1.46-2.01,2.16-.4-.53-1.3-.07-1.72.22l-.05-.08c-1.11,1.02-1.24,2.28-1.6,3.54-1.05.42-1.36,2.47-1.86,3.75.14-.19.51.1.54.34-.17.3.4.87-.2.79l.02-.11c-.61.21-.47.89-.44,1.4l.8.03c-.53.68-.3,1.56.03,2.28.32.73.7,1.31.38,1.85.32.21.48.56.82.76l-.38.19c.3.69.77,1.49,1.83,2.02.14.06.41.18.74.25-.14.06-.29.12-.44.17.99.37,1.5-.9,2.03-.93l.22.62c.61-.05,1.11-.02,1.59-.03.49-.03.97-.13,1.38-.52,0,.09.02.28-.13.34.45-.07,1.88-.05,1.47-.84.17.55,1.01-.26,1.41-.69l.07.42c.24-.67.19-.8.7-1.2.16-.02.26.24.04.24.55-.03.18-.51.81-.61l-.07.34c.48-.22.37-.33.45-.75.18-.3.86-.45,1.16-.21-.08-.23-.04-.64.25-.76.13.08.1.22.08.29.43-.18.6-.52.73-.81.12-.3.22-.54.57-.67.12.07.2.08.26.06-.44.6-.9.99-.88.93.27.28.77-.14.8.6.18-.6.2-1.63.64-2.04.05,0,.09,0,.16,0v.08c.11-.1.14-.23.14-.36.15-.14.25-.23.34-.39.32.07.46-.6.57-.9-.41-.12-.21-.47-.66-.23.04-.03.03.07-.02.26,0,.05-.02.1,0,.14l-.03-.03c-.06.19-.16.42-.28.69-.09-.31-.16-.59.18-.8-.2-.23-.4-.48-.51-.6.69-.16,1.16-.89,1.53-.97-.05-.98-.14-2.43-1.09-2.76-.17-.21.13-.35.22-.49.12.12.17.31.3.36-.17-.24-.33-.62-.54-.91-.22-.29-.47-.48-.73-.38-.21-.69.67.03,0-.7h.21c-.32-1.1-1.35-1.33-2.15-1.33-.86,0-1.51.1-2.47-.48.14.06.2.1.23.2-1.09-.29-2.37.08-3.28.92-.48.4-.81.94-1.1,1.47-.27.53-.47,1.08-.72,1.61-.21.62.16.69.43,1.03l-.45.13c.18.2.36.38.55.56.43.77-1.03,1.43-.25,2.39l.3-.15c-.04.36.24,1.13-.11,1.09.06.03.32.1.17.25l-.24.02.46.86c-.13.69-.95-.05-.93.95.11.37.75,1.02.9.87,0-.15.13-.39.36-.42l.14.33c.7.02,1.43.24,1.87-.62l-.46-.56.33-.21.05.49c.3-.29.01-.45-.19-.64.18-.06.3-.15.36-.26l-.7-.53c.27-.08.56.22.68-.17-.32-.25-.6.29-.83-.14.3-.3.56-.23.27-.54.18-.06.3,0,.38.13-.23-.28-.13-.76-.51-.89.37-.31-.16-.97.5-.98-.16-.08-.55-.48-.59-.74.82.44-.01-1,.85-.9-.73-.32-.35-1.09-.65-1.52.05.03.15.1.11.13.1-.22.33-.22.48-.27-.56-.21-.55-.54-.75-.91.32.05.42.21.52.34.11.15.24.27.48.4-.44-.24-.21-.49-.53-.73.37.14.24.02.59.36-.42-.62.04-.17-.06-.64.43.22.33.6.52.3.19.19.03.49.06.49ZM782.44,209.73h0c.04-.09.08-.16.1-.2-.02.04-.05.1-.09.2ZM781.9,210.46c.09-.07.18-.17.26-.3.14.06.23.18.17.25-.04-.1-.25.03-.43.04ZM785.6,209.99c-.03.22-.14.25-.23.24.03-.09.07-.2.1-.35-.01-.01-.03-.03-.04-.04.07.05.13.1.16.16Z" fill="#9f2d20"/>
      <path d="M785.23,209.44s-.01-.05,0-.09c-.05.03-.09.05-.13.08l.1.11s.02-.07.03-.1Z" fill="#9f2d20"/>
      <path d="M772.66,204.92v.03s.02-.04.05-.06c-.02.02-.03.02-.05.03Z" fill="#9f2d20"/>
      <polygon points="771.98 212.09 771.88 212.13 772 212.17 771.98 212.09" fill="#9f2d20"/>
      <path d="M775.92,200.73s.05.06.09.08c-.01-.03-.04-.05-.09-.08Z" fill="#9f2d20"/>
      <path d="M777.55,201.03c.04.08.07.18.1.27-.02-.13-.06-.22-.1-.27Z" fill="#9f2d20"/>
      <path d="M778.25,202.25c.07-.01.13-.03.18-.05h0s-.18.05-.18.05Z" fill="#9f2d20"/>
      <path d="M779.33,203.71s-.03,0-.04.01c-.11.07-.04.04.04-.01Z" fill="#9f2d20"/>
      <path d="M780.37,208.92c.02-.12.03-.23.07-.32-.13.07-.22.13-.07.32Z" fill="#9f2d20"/>
      <polygon points="775.81 208.72 775.8 208.72 775.8 208.77 775.81 208.72" fill="#9f2d20"/>
      <path d="M780.7,208.35c-.15.05-.23.13-.27.25.1-.06.24-.12.27-.25Z" fill="#9f2d20"/>
      <path d="M778.29,207.52v-.06s-.05.02-.07.02l.07.05Z" fill="#9f2d20"/>
      <path d="M778.22,207.48l-.07-.05s.02.06.07.05Z" fill="#9f2d20"/>
      <path d="M778,207.31l.15.12c-.02-.05-.02-.12-.15-.12Z" fill="#9f2d20"/>
      <path d="M777.71,207.07l-.13-.08s.07.05.13.08Z" fill="#9f2d20"/>
      <path d="M777.88,206.44c-.09.19-.43.29-.41.48l.11.06c-.17-.16.49-.26.3-.55Z" fill="#9f2d20"/>
      <path d="M780.35,203.57c-.04.25-.09.49-.16.72.17-.11.41-.26.41.08.56-.92-.36.17-.25-.8Z" fill="#9f2d20"/>
      <path d="M780.04,201.15c.26.37.21-.11.3-.13-.27-.2-.33-.22-.3.13Z" fill="#9f2d20"/>
      <path d="M773.93,209.71l-.35.17c.24.27.13-.08.35-.17Z" fill="#9f2d20"/>
      <path d="M777.14,209.62c-.06-.08-.1-.18-.14-.26-.05.11-.1.22-.15.33.1-.02.2-.04.3-.07Z" fill="#9f2d20"/>
      <path d="M779.14,212.13l-.14.09c.19-.09.36-.2.53-.3-.13.07-.26.14-.4.21Z" fill="#9f2d20"/>
      <path d="M772.6,212.24c.14-.1.28-.2.42-.3-.14-.23-.67-.16-.42.3Z" fill="#9f2d20"/>
      <path d="M783.42,209.85c.26.04.59-.16.51-.46-.18.21-.48.32-.51.46Z" fill="#9f2d20"/>
      <polygon points="767.63 210.33 767.44 210.09 767.63 210.55 767.63 210.33" fill="#9f2d20"/>
    </g>
    <g>
      <path d="M799.97,210.46c-.07.14.03.42.11.35,0-.14-.06-.37-.09-.44,0-.03,0,.06-.02.1Z" fill="#9f2d20"/>
      <path d="M800.96,210.63c-.14-.31-.55-.55-1.02-.53.43.23.26.19.7.57-.03.18-.26.11-.38-.03.06.12-.12-.03-.02.26.31.31.65-.03.41-.4.12-.02.23.07.31.12Z" fill="#9f2d20"/>
      <path d="M797.66,214.18l-.11-.11s.06.08.11.11Z" fill="#9f2d20"/>
      <path d="M803.68,205.66c.06.09.13.1.17.09-.08-.07-.14-.13-.17-.09Z" fill="#9f2d20"/>
      <path d="M802.3,203.35s.08.09.12.13c-.03-.08-.07-.14-.12-.13Z" fill="#9f2d20"/>
      <path d="M797.66,214.18c.1.1.2.18.31.27.07-.15-.15-.16-.31-.27Z" fill="#9f2d20"/>
      <path d="M799.61,208.47c.05.05.11.09.18.12-.04-.04-.07-.09-.11-.13-.03,0-.05.01-.08.02Z" fill="#9f2d20"/>
      <path d="M793.75,209.61l-.02-.11c-.06-.02-.13-.05-.21-.07l.23.18Z" fill="#9f2d20"/>
      <path d="M794.56,204.72c-.09.1.22.39.35.53-.11-.15-.13-.28-.09-.39-.06-.05-.14-.1-.27-.14Z" fill="#9f2d20"/>
      <path d="M800.85,206.99l.1.09s-.07-.06-.1-.09Z" fill="#9f2d20"/>
      <path d="M795.07,212.84s-.08.09-.09.13c.04-.03.07-.08.09-.13Z" fill="#9f2d20"/>
      <path d="M795.73,212.42s-.04.02-.07.04c.05,0,.08,0,.07-.04Z" fill="#9f2d20"/>
      <path d="M796.93,217.04h-.07c-.03.08-.06.15-.09.22l.16-.22Z" fill="#9f2d20"/>
      <path d="M796.73,203.01s.02,0,.03,0c.1-.13.03-.07-.03,0Z" fill="#9f2d20"/>
      <path d="M793.59,204.2c.58-.02-.21.85.56.71-.16-.07.02-.91-.56-.71Z" fill="#9f2d20"/>
      <path d="M799.62,208.35s-.05-.1-.06-.15c.01.07.03.12.06.15Z" fill="#9f2d20"/>
      <path d="M794.15,204.9h0s.08-.01.08-.01c-.03,0-.05,0-.08.01Z" fill="#9f2d20"/>
      <path d="M797.88,213.55c.02-.08.01-.14,0-.22-.02.04-.03.1,0,.22Z" fill="#9f2d20"/>
      <path d="M795.42,206.03c-.05.06-.08.13-.12.19.06-.07.09-.13.12-.19Z" fill="#9f2d20"/>
      <path d="M802.07,214.2c.11.04.15.09.29.02-.01-.02-.03-.04-.05-.05-.05.06-.12.1-.25.03Z" fill="#9f2d20"/>
      <path d="M806.07,212.69s-.08,0-.12-.01c-.03.03-.06.07-.09.1l.21-.09Z" fill="#9f2d20"/>
      <path d="M796.07,204.99c-.12-.05-.24-.12-.35-.2.23.19,0,.53.35.2Z" fill="#9f2d20"/>
      <path d="M799.83,208.38c-.11.02-.17.01-.21-.03.02.03.04.07.06.1.06-.01.12-.03.14-.07Z" fill="#9f2d20"/>
      <path d="M802.13,210.87c.11.02.22.03.34.03-.1-.02-.22-.04-.34-.03Z" fill="#9f2d20"/>
      <path d="M803.4,214.51s.04-.07.05-.1c-.04.02-.06.05-.05.1Z" fill="#9f2d20"/>
      <path d="M803.34,210.55c.12.11.22.14.31.16,0-.04,0-.07-.02-.11-.1-.01-.2-.02-.29-.04Z" fill="#9f2d20"/>
      <path d="M795.72,204.79h0s0,0,0,0Z" fill="#9f2d20"/>
      <path d="M795.06,207.54c.11-.31-.47-.34-.74-.52.06-.51.47-.04.79-.06-.05-.3-.32-.75-.2-.94.08.04.13.02.2.12-.09-.25.06-.45.19-.67.17-.19.31-.42.27-.76.06.02.1.04.13.07-.24-.16-.44-.36-.57-.51.16-.15.08-.54.38-.31-.11.08-.02.2,0,.32l.07-.27c.48.27-.11.34.14.63.18-.4.36-1.05.72-1.11.31.38-.53.58.07.7l-.51.12c.78.42-.25.13.53.6.54-.21.38-.59.97-.75,0-.31-.23-.35-.23-.67.31-.42.61-.21.85.04.24.24.4.46.6.06.06-.35,0-1.03.54-.76l-.06.59c.55.02.25-.9.89-.5-.11.22-.45.19-.36.26.4.45.26-.33.58-.33l.04.51c.56-.04,1.31-.26,2.02-.06-.1.12-.27.23-.18.43.89.11,1.56,1.03,1.84,1.82.18-.02.36-.04.54-.05.05.06-.07.23-.18.22.06.36.23-.16.46-.13.14.14-.06.35-.24.33.65.2,1.59,1.12,1.31,1.88l-.17-.07c-.05.49,1.04.31.71.87l-.09-.08c0,.55.08,1.1.02,1.63-.05.52-.25.99-.69,1.25.27.17.1.39-.03.6-.14.21-.27.4.1.66-.33.17-.54.16-.72.21-.18.04-.37.11-.74.32-.16.14.19.61.05.89l-.33-.32c.03.21.05.42.05.62l-.52-.28-.12.26c.1-.05.3.01.37.13-.2.45-1.03.36-1.15.15-.2.28-.42.56-.67.81-.06-.18.06-.31.12-.47-.25.65-.29-.4-.53.2.1.07.08.26.11.35-.34-.16-.82.02-1.18.24v-.33c-.69.1-1.42.45-2.2.42.27.17.22.71-.04.75l-.08-.49c-.17.29.25.2-.1.55-.32-.07-.16-.56.01-.71-.12.05-.24.11-.37.15,0-.15.09-.21.13-.4-.19.29-.51-.56-.79-.09v-.15c-.67-.18-1.02-.15-1.49-.39-.23.35-.36.16-.7.33-.27-.38-.31-.92-.59-1.32-.36-.21-.36.09-.67.05.31-.21.07-.68.43-.53-.31-.59-.4-.75-.79-1.51-.14.11-.19.23-.33.19-.09-.16.1-.39.29-.37l.05.04c-.15-.23-.14-.5-.08-.77.1-.27.27-.52.43-.75.2-.23.38-.43.47-.63.13-.2.17-.41.06-.67l.02.06c-.03-.3,0-.6.02-.92.24-.3.14.35.47.23-.02-.52.19-.83.46-1.04.26-.22.51-.4.65-.79.58.21.93-.07,1.31-.42.2-.15.39-.34.61-.44.22-.09.45-.13.67-.03l-.14-.23c.08-.32.27.07.41.09-.08-.19-.27-.17-.21-.34.71-.45,1.6-.44,2.37-.23.78.19,1.4.67,1.95,1.12.37.32,1.05-1,1.23-.03-.16.08-.31.16-.47.25.61.1.98.55,1.18.97.2.44.26.8.49,1.24-.11-.06-.26-.07-.26-.14-.17.08-.19.19-.14.33.06.13.17.29.3.34-.07.12-.26-.06-.42-.04-.24.04.22.61-.16.51-.06-.02-.07-.11-.08-.15.1.2-.36.4.02.59-.37.12-.4.63-.8.59.05.53-.65.07-.47.7-.22-.63-.71-.36-.96-.05.07-.21-.21-.2-.13-.49-.24.01-.49.11-.49.46-.21-.44-.46-.31-.73-.26-.27.06-.53.06-.44-.47-.9-.02-1.75-.44-2.31-1.08.57-.32.57.7,1.11.19-.62-.28-1.41-.47-1.46-1.26.04-.2.31.04.44.05-.23-.29-.26-.63-.24-.92.02-.29.07-.55.01-.85.06.03.09.11.13.17.01-.1.18-.15-.09-.29,0,.04.02.09.03.13-.24-.02-.42-.21-.51-.46-.1-.25-.1-.55-.18-.63.53.71.65-.4,1.21.65,0-.09-.02-.25-.17-.4.13-.04.22.04.3.29.18-.35-.1-.56.25-.74.06.13.02.22.07.39,0-.33.12-.7.47-.63,0,.09.05.2-.04.21.23-.07.43-.25.73-.35.28-.09.64-.09.87.23-.52.43.07.31-.26.77.11.03.23.05.34.1.04-.1.07-.2.09-.29.21.22.74.23.76.61l-.34-.1c.15.16.3.33.43.52v-.45c.43.2.59-.4.71.17-.1-.08.18.39-.06.71h0c.23.12.49.28.43.62-.15.12-.62.1-.72.18.51.07.32.85.83,1.05-.13-.07-.42-.04-.47,0l.4.13c-.1.2-.16.23-.4.21-.05.54.71-.21.42.46-.03-.05-.09-.03-.15-.13-.08.32-.04.62-.04.91,0,.29-.06.58-.26.77-.55-.15.05-.44-.45-.49-.05.28-.1.63-.28.98-.18.35-.5.67-.9.75h.16c.11.38-.09.37-.32.28-.23-.08-.48-.23-.65-.01.09-.08.04-.46.04-.37-.51-.05-1.01.34-1.9.36l.15-.17c-.25-.25-.71-.37-.92-.62-.19.11-.34-.03-.41.28-.09-.79-.45-.97-.89-1.31-.42-.31-.84-.76-.5-1.37.03.11.25.2.22.12-.14-.23-.26-.48-.37-.74-.33.12-.19.14-.42.38-.22-.07-.44-.3-.45-.54.27.39.55-.08.73-.25-.1.04-.23-.01-.33.01.6-.49-.72-.05-.29-.72l.18.04c-.09-.24-.3-.5-.21-.76.41-.05.15.29.48.34,0-.33-.63-.85-.16-1.09.07.18,0,.4.1.57.53-.24.43-.29.56-.51l-.02.02c.12-.16.25-.29.36-.35-.05,0-.1.02-.15.03-.37-.31-.35-.56-.26-.72.1-.17.27-.27.37-.56.02-.07.05-.15.08-.26-.03.15-.04.25-.04.33,0,.27.09.24.18.29.05.03.11.08.17.2.16.05.33.14.35.28,0-.21.09-.15.17-.12.09.04.14.06.24-.21.01.15.18.03.11.4.18-.09-.01-.26,0-.45.21-.23.43-.01.58.22.19.25.26.43.75.47.59.29,1.1.19,1.63.73-.11.31-.56.05-.56.05-.04.42.1.65.39.93-.15-.02-.22.09-.33.25.13.25.58.01.48.4-.18-.01-.44.03-.64-.04.22.21.56.39.73.7-.24.11-.41-.12-.59-.18.19.28.32.74.71.88l.15-.22c.02.13-.35.06-.42-.02-.32-.25.11-.41.25-.46l.12.22c.42-.15.36-.43.16-.66-.2-.25-.51-.42-.58-.68l.66-.02-.67-.3c.11-.16.41-.36.59-.16.15-.46-.33-.22-.14-.65.03-.05.07-.05.1-.03l-.33-.26c.15,0,.37-.25.39,0,.02-.81-.94-.74-.71-1.22l.07.03c-.39-.34-.51-.26-.61-.16-.11.12-.24.25-.65.23.16-.37.27-.76.34-1.18l-.34.32c-.07-.07-.23-.2-.11-.34-.49.1-.04.2-.37.37-.11-.29-.47-.37-.74-.41-.28-.04-.51-.08-.6-.44-.15.34.48.28-.01.51-.11-.39-.28-.35-.45-.22-.18.12-.32.32-.6.25-.06-.43.51-.41-.13-.55,0,.26-.11.38-.27.45-.28.12-.79.19-.9.5.2.19.11.4-.02.69-.13.3-.29.63-.28.95-.18-.1-.57,1.08-.74,1.7l-.09-.02c.54.13.45.73.63,1.15-.33.03-.47-.03-.64-.27l.05.44c.19.08.31.19.42.45l-.42-.02c.16.6.76.99.85,1.77.34-.17.71-.93,1.25-.48-.17.12-.46.33-.63.2.06.04.25.11.24.26-.15-.02-.3-.05-.45-.08.02.36.33,0,.44.23-.25.16-.07.28-.29.38-.06-.04-.02-.26-.18-.29.11.28.19.69.1.93.12-.13.31-.25.48-.1.41.41-.13.39.02.76.25-.05.41.38.7.03.14.1.04.29.03.43.18.02.52.2.8.3.29.08.5.07.43-.21l-.06-.06s.03,0,.05,0h0s0,0,0,0c.52,0,.95.16,1.43.32.47.16.99.26,1.45.11l.02.15c.55-.24,1.25-.41,1.47-.87.14-.07.47.05.5.24.34-.34.27-.47.94-.73-.18.51.28.06-.25.47.54-.31.89-.29.96-1.11.09.2.26.17.42.02.16-.15.27-.42.29-.59-.15.12-.3.23-.45.32.11-.35.26-.61.37-.9.15.1.29.2.43.31.51-.63.31-1.35.09-1.86-.21-.53-.41-.92.02-1.44-.39-.25-.15.66-.6.44.01-.5.58-1.22.53-1.41.04-.85-.89-.47-1.02-1.25-.12.17-.52.42-.9.03-.17-.45.31-.94.62-.71.08.11.06.2,0,.22.15.12.32.31.39.02l-.19.02c.04-.34-.43-1.01-.09-1.02-.43-.28-.34.02-.24.34-.23-.78-.72-.97-1.3-1.62.06.16.03.4-.08.32-.92-.85-.63-.02-1.35-.26-.36-.37.36-.6-.53-.56-.5-.26-.06-.49.21-.59-.89.16-1.7-.29-2.27-.2.15-.09.3-.18.46-.25-.29.14-.53.2-.76.27.13.08.25.17.37.26-.28.01-.5.1-.55-.04-.16.32.38.48.06.97-.38-.03-.7.62-1.06.32.94-.45-.4-.34.36-.89-.14.14-.32.25-.58.36-.06-.02-.03-.1.02-.17-.57.15-.59.37-.55.58.03.23.1.47-.24.86-.12-.28-.56-.12-.62.08.27-.37.47.1.44.51-.52.46-.19.7-.34.99.08-.11.15-.22.23-.32.19.22.04.49.03.89-.22-.01-.04-.39-.17-.28.16.28,0,.49-.18.75-.18.26-.35.59-.17.91-.16.32-.5.06-.6.36.45.71-.23.94.31,1.65.26-.35.16-.32.68.04-.24-.34-.44-.72-.61-1.12.22.24.47.44.71.63-.11-.33-.42-.68-.4-.91.36.31.26.28.52.06-.42.6.52.79.41,1.39l-.81.37c.02.5.35.82.71,1.09.37.27.77.51,1.12.96l-.16-.36c.35-.15.53.43.9.52-.2.22-.09.44-.06.68.09-.19.72.46,1.08-.03.08.19.18.37.28.56.82.49,1.22-.46,1.96-.23-.29.28.07.55-.56.68.29.05.55.15.58-.06.17.21.82-.33,1.08-.08.12-.14.13-.44.44-.45.04.06.02.15.02.15-.01-.14.44-.26.13-.55.47.39,1.09.21,1.59-.07.51-.28.92-.62,1.47-.57.43-.48.84-1.11,1.1-1.61.06.08.13.08.04.15.64-.58-.49-.79.07-1.43.59-.28.1.52.36.31.48.1.55-.2.54-.57,0-.38-.11-.78.16-1.11l.06.16c.18-.26.06-.59-.11-.91-.18-.33-.42-.64-.53-1.01,0,0,.09,0,.14-.05-.64-.35-1.24-1.02-1.78-1.4.42-.1.35.11.56-.25-.24-.2-.42.45-.88.11.03-.29-.17-.69.05-1.05.15.13.31.25.45.38.15-.6-.59-.52-.77-.76l.17-.16c-.81-.48-1.12.02-1.92-.41v.2c-.66.33-.25-.47-.86-.23l.03-.61c-.38.02-1.29.26-1.86.36.35-.43,1.11-.56,1.62-.67-.34-.12-1.2-.19-1.4.1.14-.05.33-.17.46-.07-.49.44-1,.56-1.62.62.04-.56-.41-.66-.93-.6-.52.04-1.09.16-1.46-.17-1.03.75-2.36.74-3.49,1.7.95.41-.32.27.34.93-.19.25-.28.32-.34.29-.35.08-.72.15-1.07.28-.35,0,.06-.37-.11-.49-.54.5-.49-.04-1.01.19.32.14.17.48-.17.77.23-.08.46-.16.7-.21-.14.54-.39.61-.69.68-.29.07-.6.16-.65.75l-.08-.44c-.06.29-.34.72-.48,1.23-.14.51-.21,1.03.09,1.4-.13.06-.4.12-.4-.14-.26.62-.2,1.42-.11,2.12.07.36.14.69.16,1,.03.31.06.6-.02.87l-.24-.07c.11.25.47.36.32.7-.09,0-.24-.05-.23.07.1.12.54.53.54.87l-.33-.18c.07.68.44,1.11.86,1.42.42.32.88.53,1.29.87-.53.42.11,1.4.54,1.79l-.07.07c1.4,1.03,2.71.74,4,.69.34.41,1.06.56,1.84.57.78.03,1.6-.11,2.31-.07-.23-.07-.08-.51.12-.62.33.04.66-.68.8-.09l-.11.02c.41.51.98.11,1.45-.08l-.26-.75c.81.25,1.55-.27,2.09-.83.56-.55.95-1.12,1.57-1.02.09-.36.34-.66.39-1.03l.32.28c.64-.64.96-1.02,1.37-2.09l.18.35c.29-.63-.78-1.23-.66-1.74l.66.02c.3-1.02.96-2.23.28-3.29.1,0,.28.02.32.21,0-.27.02-.79-.05-1.21-.1-.41-.29-.7-.69-.5.56-.16-.26-1.11-.74-1.48l.42-.09c-.69-.22-.81-.16-1.26-.64-.03-.16.22-.29.23-.06-.07-.56-.53-.13-.7-.75l.35.03c-.28-.45-.37-.34-.8-.35-.17-.07-.3-.26-.37-.49-.08-.21-.1-.46,0-.62-.22.12-.61.13-.78-.13.06-.14.2-.13.28-.13-.53-.8-1.32-.38-1.63-1.02.05-.13.05-.21.02-.27.64.34,1.09.71,1.03.7.23-.31-.26-.7.46-.87-.29,0-.69-.02-1.09-.04-.39,0-.74-.06-.98-.26-.01-.04-.02-.09-.02-.15l.07-.02c-.11-.08-.25-.09-.38-.07-.16-.12-.26-.21-.43-.28.02-.32-.66-.34-.96-.43-.06.42-.43.3-.13.69-.04-.04.06-.04.26-.01.05,0,.1,0,.13-.01l-.03.03c.19.04.44.07.71.16-.29.12-.55.26-.81-.05-.2.23-.4.47-.51.59-.13-.31-.39-.57-.63-.8-.24-.21-.47-.38-.53-.56-.48.1-1.01.21-1.49.38-.46.22-.86.47-.98.95-.19.17-.33-.13-.46-.22.11-.12.27-.16.31-.3-.42.32-1.35.62-1.2,1.16-.64.08.06-.62-.63-.12l.02-.2c-.98.03-1.37.8-1.65,1.49-.29.73-.49,1.36-1.44,1.84.13-.07.19-.11.28-.08-.78.73-1.12,1.87-1.16,2.96-.04,1.12.13,2.12.04,3.21.02.61.38.56.75.77l-.38.28c.24.12.47.23.71.33.67.54-.37,1.78.77,2.3l.2-.26c.13.34.73.87.4,1,.07,0,.33-.06.27.14l-.2.13c.28.19.56.38.87.54.17.34-.01.48-.17.64-.14.16-.3.35.26.85.25.14.72.21,1.04.14.34-.06.55-.22.49-.31-.18-.06-.39-.29-.29-.51.13.01.26.02.38,0,.14-.32.3-.64.36-.96.06-.32.07-.63.09-.89-.1.11-.25.18-.43.21.05-.11.11-.21.16-.31.06.06.12.09.17.12.13-.3-.1-.13-.33-.09.11-.14.18-.25.19-.35-.24.05-.51.07-.78.06.2-.2.56-.14.52-.47-.38-.02-.4.52-.77.31.14-.38.4-.44,0-.57.13-.13.26-.13.4-.07-.33-.13-.46-.59-.85-.52.2-.43-.54-.75.05-1.04-.18,0-.68-.16-.81-.37.89.03-.34-.82.49-1.06-.79,0-.68-.86-1.16-1.24.06.02.19.04.16.09-.01-.29.19-.4.3-.59-.59.06-.77-.35-1.14-.59.58-.34.69.18,1.24.05-.49.04-.45-.5-.86-.42.36-.22.17-.2.68-.25-.72-.15-.08-.22-.49-.51.45-.25.69.1.58-.32.26-.08.42.29.42.29ZM802.45,203.24h0c-.09-.02-.16-.04-.21-.05.04.01.11.02.21.05ZM803.24,203.65c-.08-.07-.19-.16-.33-.21.04-.14.14-.26.22-.21-.09.06.06.24.1.42ZM802.25,200.08c.22,0,.26.09.27.18-.1-.02-.21-.03-.36-.04-.01.01-.02.03-.04.04.04-.07.08-.14.13-.19Z" fill="#9f2d20"/>
      <path d="M801.77,200.54s-.05.02-.08.01c.03.05.06.09.09.12l.1-.11s-.07-.01-.1-.02Z" fill="#9f2d20"/>
      <path d="M797.53,214.05l.02.02s-.02-.05-.03-.08c0,.03,0,.04,0,.06Z" fill="#9f2d20"/>
      <polygon points="803.97 213.74 804.04 213.81 804.03 213.7 803.97 213.74" fill="#9f2d20"/>
      <path d="M795.58,208.81s.07-.03.1-.07c-.03,0-.07.04-.1.07Z" fill="#9f2d20"/>
      <path d="M795.91,206.69c.08-.08.16-.16.23-.21-.12.07-.19.15-.23.21Z" fill="#9f2d20"/>
      <path d="M796.69,205.84c-.04-.07-.06-.12-.08-.17h0s.08.17.08.17Z" fill="#9f2d20"/>
      <path d="M798.11,206.91s0,.03,0,.04c.04.11.04.04,0-.04Z" fill="#9f2d20"/>
      <path d="M802.72,207.35c-.1-.05-.21-.1-.28-.17.02.14.06.25.28.17Z" fill="#9f2d20"/>
      <polygon points="802.09 210.87 802.09 210.87 802.13 210.87 802.09 210.87" fill="#9f2d20"/>
      <path d="M802.29,206.84c-.02.17.05.26.15.34-.02-.12-.04-.26-.15-.34Z" fill="#9f2d20"/>
      <path d="M799.85,209.71v.06s.04,0,.05,0l-.05-.07Z" fill="#9f2d20"/>
      <path d="M799.91,209.78l.05.07s0-.06-.05-.07Z" fill="#9f2d20"/>
      <path d="M800.05,209.99l-.1-.14s-.02.1.1.14Z" fill="#9f2d20"/>
      <path d="M799.47,207.69l-.15.04s.08-.01.15-.04Z" fill="#9f2d20"/>
      <path d="M799.14,207.11c.04.15-.12.48.06.65l.12-.03c-.25,0,.13-.61-.18-.62Z" fill="#9f2d20"/>
      <path d="M797.88,203.85c.27.09.52.22.75.36-.06-.2-.19-.49.21-.37-.45-.45-.45-.33-.43-.18,0,.16,0,.33-.53.18Z" fill="#9f2d20"/>
      <path d="M795.31,204.21c.34-.36-.14-.19-.18-.28-.16.34-.17.4.18.28Z" fill="#9f2d20"/>
      <path d="M802.62,213.98l.16.35c.27-.24-.08-.13-.16-.35Z" fill="#9f2d20"/>
      <path d="M802.72,210.76c-.09.04-.18.08-.28.11l.31.19c0-.1-.02-.2-.03-.3Z" fill="#9f2d20"/>
      <path d="M805.51,209.23l.07.14c-.06-.18-.12-.35-.19-.52l.12.38Z" fill="#9f2d20"/>
      <path d="M805.66,213.46l-.34-.34c-.14.18.09.68.34.34Z" fill="#9f2d20"/>
      <path d="M803.88,202.87c-.02-.27-.29-.56-.57-.41.25.12.42.41.57.41Z" fill="#9f2d20"/>
      <path d="M803.96,218.4l-.15.25c.12-.11.25-.21.36-.34-.07.03-.14.06-.21.08Z" fill="#9f2d20"/>
    </g>
    <g>
      <path d="M816.74,222.99c-.09-.13-.39-.16-.41.1l.43.31-.02-.4Z" fill="#9f2d20"/>
      <path d="M815.46,224.46c.18.35.57.74,1.04.61-.44-.35-.23-.38-.73-.8,0-.27.24-.41.41-.33-.11-.12.2-.35-.07-.57-.45.22-.57.67-.33,1.16-.12.08-.24-.03-.32-.07Z" fill="#9f2d20"/>
      <path d="M813.82,225.91l.03-.22c-.02.06-.03.14-.03.22Z" fill="#9f2d20"/>
      <path d="M810.79,223.53c.12-.1.14-.18.12-.22-.1.11-.18.21-.12.22Z" fill="#9f2d20"/>
      <path d="M808.45,226.17c.03-.07.06-.13.09-.19-.07.06-.12.14-.09.19Z" fill="#9f2d20"/>
      <path d="M813.82,225.91v.02c0,.17-.02.35,0,.53.16-.02.03-.27,0-.53v-.02Z" fill="#9f2d20"/>
      <path d="M816.55,227.89c-.03-.08-.08-.14-.15-.2.03.07.05.13.07.19.03,0,.05,0,.08,0Z" fill="#9f2d20"/>
      <path d="M819.8,223.66l.07.14c.07.02.15.03.24.04l-.31-.18Z" fill="#9f2d20"/>
      <path d="M820.81,229.62c.03-.14-.38-.22-.56-.29.17.09.24.2.26.32.08.01.18,0,.3-.03Z" fill="#9f2d20"/>
      <path d="M815.05,229.32l-.09-.14s.06.1.09.14Z" fill="#9f2d20"/>
      <path d="M814.97,221.97s-.1-.07-.15-.08c.03.04.09.07.15.08Z" fill="#9f2d20"/>
      <path d="M813.13,220.8s-.04-.03-.06-.04c.02.04.04.07.06.04Z" fill="#9f2d20"/>
      <path d="M809.49,225.63v-.09c-.09-.02-.17-.04-.25-.04l.25.13Z" fill="#9f2d20"/>
      <path d="M808.68,232.37s0-.02,0-.03c-.11-.13-.07-.05,0,.03Z" fill="#9f2d20"/>
      <path d="M814.58,229.44c-.32-.64,1.1.1.54-.73,0,.2-1.06.1-.54.73Z" fill="#9f2d20"/>
      <path d="M816.51,228.02c.01.07.03.13.03.2,0-.09,0-.16-.03-.2Z" fill="#9f2d20"/>
      <path d="M815.12,228.72h0s-.06-.09-.06-.09c.02.04.03.06.05.09Z" fill="#9f2d20"/>
      <path d="M821.32,234.93c-.07-.04-.15-.05-.23-.05.03.03.09.05.23.05Z" fill="#9f2d20"/>
      <path d="M811.47,234.74c.05.07.1.14.16.21-.06-.09-.11-.16-.16-.21Z" fill="#9f2d20"/>
      <path d="M823.71,230.14c.06-.12.13-.15.12-.34-.03.01-.04.02-.06.04.04.08.04.17-.06.3Z" fill="#9f2d20"/>
      <path d="M823.8,224.95s-.04.07-.07.11c.02.05.04.1.05.15v-.26Z" fill="#9f2d20"/>
      <path d="M821,222.09c.08-.12.18-.22.28-.31-.25.17-.57-.31-.28.31Z" fill="#9f2d20"/>
      <path d="M816.32,227.91c.11.01.17.04.2.11-.01-.05-.03-.09-.04-.14-.06,0-.12,0-.16.03Z" fill="#9f2d20"/>
      <path d="M820.53,229.14c.07-.17.12-.36.17-.54-.07.15-.11.35-.17.54Z" fill="#9f2d20"/>
      <path d="M807.34,227.64l.09.09s-.04-.08-.09-.09Z" fill="#9f2d20"/>
      <path d="M820.71,226.85c.14-.12.21-.24.26-.37-.03-.02-.06-.05-.11-.06l-.15.43Z" fill="#9f2d20"/>
      <path d="M821.28,221.77h0s0,0,0,0Z" fill="#9f2d20"/>
      <path d="M818.24,219.6c.37.25.48-.33.75-.54.62.27,0,.5-.03.85.37.12.96,0,1.14.26-.06.08-.04.14-.18.16.65.07.74,1.02,1.45,1.31-.03.06-.06.1-.1.12.22-.19.47-.32.66-.38.13.26.54.39.24.62-.05-.18-.2-.14-.33-.18l.26.23c-.4.43-.31-.33-.68-.18.37.45.98,1.02.95,1.52-.46.2-.44-.99-.72-.29,0-.24,0-.48-.01-.71-.6.74-.07-.4-.74.32.11.84.52.85.55,1.77.32.15.4-.14.72.02.71,1.28-1.11,1.22-.33,2.14.36.23,1.02.27.73,1.02l-.59-.2c0,.91.87.48.5,1.45-.22-.16-.21-.7-.27-.57-.44.62.34.42.34.9l-.51.08c.05.9.31,1.93.03,2.85-.12-.11-.22-.3-.43-.17-.08.55-.4,1.03-.84,1.34-.43.3-.96.45-1.45.48-.06.17-.13.37-.21.54-.09.02-.22-.14-.15-.25-.42-.05.06.27-.09.5-.24.08-.37-.18-.25-.34-.31.26-.84.54-1.42.62-.58.09-1.2-.02-1.55-.35l.19-.09c-.55-.31-.99.67-1.47.05l.15-.03c-1.33-.69-3.03-1.4-3.57-2.71-.59.35-1.05-1.26-1.7-.68-.36-.95-.1-.89-.66-1.96-.15-.26-.72,0-1.02-.28l.38-.26c-.23-.04-.45-.1-.67-.17.11-.17.25-.33.38-.48-.08-.07-.16-.14-.23-.22.01.11-.09.32-.22.36-.2-.19-.24-.51-.15-.75.08-.24.27-.39.38-.41-.15-.26-.26-.55-.29-.88.17.08.19.23.29.35-.35-.53.46.08.18-.41-.12,0-.24-.14-.32-.19.34-.09.61-.49.88-.88l.16.29c.59-.45,1.25-1.07,2.32-1.3-.4-.06-.47-.61-.15-.74l.23.45c.15-.34-.38-.11-.02-.56.45-.02.38.5.18.69.15-.09.31-.17.47-.25.05.14-.06.23-.06.42.17-.34.91.38,1.19-.16l.04.14c1.17-.05,1.8-.2,2.83-.22.03-.42.42-.32.73-.65.74.17,1.46.57,2.16.73.55-.05.25-.3.56-.46-.07.37.56.62.12.72.35.12.54.24.77.37.22.13.5.27.86.58.09-.16.08-.31.22-.33.16.14.06.45-.12.49l-.05-.02c.24.16.31.43.25.66-.06.23-.24.39-.43.48-.4.2-.78.19-.94.7l.02-.05c-.17.23-.4.44-.68.6-.38-.04.19-.3-.09-.52-.4.35-.85.25-1.18.09-.36-.16-.65-.38-1.16-.43-.02-.67-.49-.99-.99-1.4-.49-.4-.99-.94-.85-1.5l-.21.16c-.35-.1.02-.33,0-.49-.18.1-.12.32-.31.25-.56-.87-.56-2.01-.1-2.73.4-.64,1.27-1.09,1.99-1.22.25-.04.23-.39.29-.68.04-.29.21-.53.59-.2-.08.16-.15.33-.2.49.5-.29.98-.15,1.43.33.46.47.88,1.22,1.52,1.96-.15-.05-.29.02-.36-.14-.14.5.59,1.29.86,1.19.08.28-.22.16-.29.38-.06.42.77.74.49,1.04-.04.05-.14-.06-.19-.12.26.18.28,1.09.62.76-.02.68.45,1.21.26,1.75.5.31-.16,1.08.48,1.19-.66-.04-.61,1.02-.41,1.47-.17-.17-.29.27-.53.06-.08.4-.11.79.25.85-.52.19-.51.55-.59.91-.07.35-.21.68-.73.49-.54,1.12-1.53,2.04-2.65,2.42-.05-.34.24-.4.51-.54.28-.1.52-.28.35-.58-.75.65-1.36,1.37-2.4,1.1-.24-.12.19-.28.27-.38-.49.12-.92-.06-1.32-.25-.4-.21-.75-.47-1.22-.69.05-.04.17-.02.27.01-.15-.11-.22-.37-.44-.15.06.03.12.06.19.08-.05.26-.35.3-.68.24-.33-.06-.67-.22-.78-.17.91-.21-.42-1.04.84-1.15-.12-.08-.32-.15-.49-.02-.05-.21.03-.32.33-.26-.47-.55-.67-.2-.92-.82.14-.05.24.05.43.05-.39-.18-.79-.44-.78-1.03.09.02.2-.07.23.09-.13-.46-.36-.83-.52-1.26-.16-.42-.23-.92.05-1.4.54.45.3-.28.85-.11,0-.16.01-.32.04-.47-.11,0-.22.02-.33.04.19-.36.12-.95.56-1.08-.03.14-.06.26-.07.39.16-.22.33-.42.54-.58-.17.01-.33.05-.5.1.21-.51-.5-.55.18-.8-.11.11.51-.26.86,0h0c.18-.24.44-.49.85-.38.11.18-.04.62.03.74.09-.24.38-.29.67-.28.3-.01.58.04.81-.16-.14.08-.22.36-.21.43.1-.11.2-.2.31-.3.18.2.17.26.04.46.52.35.15-.75.69-.08-.07-.01-.08.05-.22.03.29.27.58.47.85.74.27.27.49.61.5.99-.47.35-.33-.53-.7-.14.2.37.47.81.56,1.32.12.5.03,1.06-.27,1.44l1.13-.17-.05-.05.04.06-1.11.17.1-.09c.12.1.16.18.16.26l.67-.1c-.32-.09-.31-1.01-.86-1.11.15.06.44-.2.35-.16-.48-.64-1.3-.91-1.95-1.84.08.02.16.04.24.05,0-.16-.02-.34-.04-.51-.02-.24,0-.54.11-.74-.17-.15-.05-.37-.39-.34.78-.4.94-.73,1.31-1.05.18-.14.44-.22.7-.14.25.08.45.33.43.69-.09-.1-.32-.07-.26-.01.23.13.46.36.67.64.27-.23.13-.22.24-.56.25.01.56.25.68.55-.43-.42-.5.23-.62.49.09-.07.22-.04.32-.09-.4.78.72-.11.55.87h-.19c.17.29.46.55.47.92-.37.2-.24-.32-.57-.28.11.46.89.88.51,1.37-.12-.21-.14-.51-.28-.71-.42.53-.3.56-.36.91v-.03c-.06.27-.13.53-.21.79l.14-.19c.51.31.54.65.49.98-.04.34-.14.69.09,1.18-.45-.94-.33-.21-.76-.38-.17.19-.38.4-.48.29.25.41-.4.32-.11.81-.13-.07-.12.11-.34-.19.04.07.06.09.07.11,0,0,.02.03.04.05.04.06.14.08.19.16.05.31-.23.21-.23.04-.03-.14-.14-.37-.64-.64-.29-.29-.57-.55-.83-.75-.26-.22-.52-.44-.74-.88.16-.36.58.13.58.13.09-.53,0-.88-.24-1.32.14.08.23-.04.38-.19-.08-.36-.56-.19-.38-.7.17.07.44.16.62.32-.18-.4-.46-.82-.59-1.28.25-.11.39.28.55.42-.14-.49-.19-1.28-.58-1.48l-.17.32c0-.19.35-.07.42.07.29.44-.16.61-.32.64l-.08-.33c-.89.32.12,1.35.16,1.97l-.65-.22c.19.22.4.43.59.63-.14.16-.47.33-.61,0-.23.54.28.4.03.88-.04.06-.08.04-.11,0,.1.15.18.3.29.44-.15-.06-.41.18-.39-.14-.15.98.84,1.25.5,1.72l-.06-.06c.34.59.49.55.61.47.13-.09.29-.18.73.02-.21.36-.38.76-.42,1.23.14-.08.28-.16.41-.25.1.11.35.28.22.42.68-.06,0-.21.4-.37.24.31.82.24,1.14,0,.34-.23.53-.47.88-.33-.15-.38-.59.34-.38-.35.38.14.47-.08.49-.34.02-.27-.02-.57.22-.8.36.26-.03.79.5.28-.57-.5.4-1.07.32-1.6-.54-.08-.11-1.07-.35-1.88.21.05.18-1.54.15-2.34h.09c-.57,0-.66-.78-1.02-1.28.31-.12.48-.07.74.19-.07-.18-.15-.37-.24-.55-.22-.05-.38-.18-.65-.47l.43-.09c-.51-.72-1.42-1.17-2.61-1.59-.05.19.15.47.15.74.01.27-.13.45-.49.56-.02-.2-.09-.58.19-.64-.1,0-.31.16-.49.1.11-.14.26-.26.42-.37-.53-.14-.25.28-.61.32-.06-.3-.33-.12-.36-.36.1-.08.39.02.54-.13-.51,0-1.12.14-1.43.09.14.11.21.33-.02.57-.6.63-.47-.04-.94.29.03.29-.44.71-.03.92-.1.23-.31.2-.46.26,0,.25-.1.79-.05,1.23.04.44.21.71.39.43l.02-.11s.02.04.03.07h0s0,0,0,0c.05.1.09.19.12.28.26.56.44,1.12.71,1.67.26.55.6,1.05,1.06,1.37l-.1.11c.48.28.95.68,1.39.88l.66.29.13-.41c.05-.17.09-.33.08-.47.1-.19.46-.38.59-.23.09-.64-.04-.7.27-1.55.21.64.27-.21.12.66.23-.79.46-1.08-.09-1.88.45.24.33-.76.02-1.1,0,.23-.01.44-.04.66-.19-.4-.31-.77-.5-1.13.18-.02.36-.04.55-.05-.2-1-1.11-1.56-1.88-1.77-.79-.24-1.4-.29-1.99-.91-.51.24.89.45.38.75-.67-.28-1.5-.98-1.79-.96-.6-.1-.86.16-1.07.4-.22.26-.4.51-.95.67.23.1.47.47-.06.97-.57.31-1.18,0-.88-.46.15-.13.26-.14.29-.09.17-.2.45-.45.06-.44v.21c-.48.05-1.29.91-1.31.52-.31.62.04.39.42.12-.94.62-1.04,1.33-1.54,2.27.15-.14.39-.21.34-.06-.33.69-.24.88-.15,1,.11.12.25.19.25.65-.29.52-.66-.23-.44.75-.15.6-.48.16-.62-.1.35.92-.04,1.77.04,2.34-.09-.15-.18-.3-.26-.46.14.28.22.52.28.76l.27-.37c0,.29.09.53-.05.57.31.2.49-.38.97.03-.04.41.59.9.23,1.22-.34-1.09-.38.34-.86-.54.13.16.22.37.29.65-.03.06-.11,0-.16-.05.17,1.22.69.23,1.31,1.2-.31.03-.25.52-.08.65-.29-.4.22-.44.64-.24.33.7.66.5.92.77-.09-.12-.17-.25-.25-.37.29-.08.52.19.96.43-.09.2-.44-.17-.36.01.36,0,.53.27.76.58.22.3.52.63.98.63.31.31-.14.48.17.73.54-.04.78.12,1.04.25.26.12.56.3,1.1.14-.31-.36-.33-.26.35-.62-.53.11-1.08.16-1.65.15.39-.11.75-.24,1.09-.41-.46-.02-1.02.14-1.3,0,.54-.17.45-.1.3-.44.25.33.59.27.91.2.32-.11.63-.21.99-.08l.08.88c.62.13,1.14-.11,1.61-.41.49-.3.94-.67,1.61-.93l-.47.09c0-.39.73-.47,1.01-.86.14.27.44.19.71.19-.08-.08.13-.24.32-.46.18-.23.33-.5.16-.75.24-.06.47-.14.71-.22.43-.41.45-.82.43-1.2-.02-.39-.08-.74.17-1.21.16.42.57.04.46.84.16-.35.35-.65.16-.73.26-.15-.06-1.07.28-1.31-.09-.18-.38-.29-.29-.66.07-.03.14.03.14.03-.14-.03-.1-.62-.48-.34.52-.44.58-1.21.5-1.91-.07-.71-.21-1.37.09-1.89-.23-.72-.56-1.54-.8-2.15.1.01.14-.05.15.08-.05-.96-.97-.24-1.07-1.27.24-.67.45.4.49.03.85-.52-.62-1.08-.43-1.94l.13.13c.04-.64-.94-1.01-1.47-1.79,0,0,.1-.02.12-.09-.78-.23-1.8-.94-2.72-1.1.4-.24.47,0,.45-.44-.43-.11-.14.58-.91.45-.18-.27-.76-.52-.84-.92.28-.01.57.03.86.07-.37-.62-1.15-.12-1.57-.15l.04-.24c-.68.11-.96.38-1.23.62-.27.25-.51.49-1.08.78l.2.09c-.25.83-.68.02-.94.79-.18-.11-.36-.2-.55-.29-.3.43-.68,1.62-.81,2.4-.29-.58.05-1.61.33-2.26-.17.19-.44.52-.61.89-.18.36-.26.74-.17.92.02-.2.02-.5.19-.63.09.77.07,1.49-.04,2.33-.55-.15-.71.46-.69,1.19.02.73.23,1.51-.06,1.98.49.74.83,1.46,1.25,2.22.42.75.96,1.51,1.75,2.1.02-1.12.46.33.91-.5.37.19.5.28.5.35.26.38.57.74.93,1.09.21.37-.49.02-.53.21.95.47.25.54.89,1.02-.04-.36.49-.32,1.12-.1-.29-.18-.54-.39-.78-.6.78-.04,1.05.16,1.38.39.32.2.72.44,1.55.06-.16.12-.33.25-.52.36.46-.12,1.29-.27,2.01-.69.73-.39,1.32-1.07,1.34-1.63.18-.03.52-.03.28.31.41-.38.76-.92.95-1.54.2-.62.23-1.29.13-1.89-.2-1.22-.78-2.02-1.02-2.76h.27c-.28-.29-.71-.25-.85-.73.08-.05.26-.05.15-.18-.2-.1-.96-.35-1.29-.69.16,0,.32,0,.48.02-.34-.34-.74-.56-1.11-.68-.36-.11-.7-.14-1.03-.14-.66.01-1.24.16-1.88.16.1-.67-1.13-1-1.71-1.11l.02-.09c-1.7-.1-2.83.49-4.44.9-.54-.3-1.45-.27-2.46,0-1.02.26-2.08.81-2.97,1.27.31-.08.27.43.07.7-.45.19-.51,1.17-.92.73l.11-.12c-.68-.14-1.21.82-1.51,1.62.23.14.46.27.69.4-.44.36-.69.97-.73,1.6-.05.64.12,1.29.35,1.83.46,1.1,1.11,1.76.96,2.46.41.23.73.63,1.14.79l-.33.27c.67.9,1.06,1.33,2.08,2.09l-.4.06c.54.5,1.49-.34,2.01.05l-.23.62c.99.76,1.88,2.01,3.37,2.06-.06.07-.18.23-.39.15.29.15.82.51,1.33.68.51.18.95.17.95-.28-.14.57,1.45.41,2.18.17l-.14.41c.67-.5.68-.64,1.52-.84.2.04.21.32-.07.24.71.14.48-.43,1.31-.38l-.25.33c.71-.12.62-.27.89-.68.35-.27,1.24-.43,1.54-.17-.02-.26.14-.71.53-.89.14.08.07.24.03.33.59-.26.84-.73,1.02-1.09.18-.39.29-.71.68-.98.13.05.22.04.29,0-.48.89-1.09,1.46-1.06,1.38.27.28.92-.36.85.52.14-.37.26-.91.35-1.41.11-.5.19-.98.42-1.31.05-.02.1-.04.16-.05v.09c.12-.16.13-.33.11-.5.14-.22.22-.36.28-.59.34-.02.36-.87.41-1.25-.42-.02-.3-.5-.7-.08.04-.05.04.07.03.32,0,.06,0,.12.02.16l-.03-.03c-.03.24-.07.56-.16.93-.13-.35-.25-.67.04-1.03-.24-.23-.5-.46-.61-.58.64-.41.98-1.36,1.34-1.5-.23-1.11-.3-2.54-1.16-3.09-.13-.28.19-.36.3-.49.1.16.11.36.23.44-.26-.56-.32-1.75-.9-1.79.1-.79.59.33.29-.69l.2.11c.22-1.13-.4-1.94-1.05-2.63-.67-.72-1.31-1.3-1.69-2.57.06.17.09.25.04.34-.69-1.21-2.02-2.04-3.45-2.38-1.45-.35-2.89-.18-4.35.03-.82.2-.72.58-.97,1.05l-.39-.28c-.13.3-.23.61-.32.91-.29.5-.8.64-1.32.92-.51.28-1.02.7-1.02,1.51l.36-.02c-.31.42-.47,1.5-.76,1.31.04.07.25.26.03.39l-.23-.06c0,.43.03.86.07,1.27-.36.87-.91-.35-1.2,1.02,0,.54.5,1.52.68,1.35.03-.2.2-.49.44-.47l.07.46c.69.17,1.36.53,1.96-.4l-.31-.75.37-.16-.08.57c.37-.27.12-.51-.02-.78.19-.02.33-.08.42-.2-.17-.26-.33-.53-.49-.8.28,0,.45.42.71.05-.21-.38-.68.11-.72-.44.4-.21.61-.03.49-.47.19.02.26.13.29.29-.1-.38.23-.8-.03-1.11.48-.11.46-.98.99-.58-.08-.15-.12-.72.07-.95.13.45.3.26.52.08.22-.19.5-.37.71,0-.1-.38.12-.63.4-.84.28-.21.61-.34.85-.61-.02.06-.05.19-.11.17.34-.04.47.15.68.26-.06-.59.44-.78.78-1.11.37.6-.3.66-.18,1.22-.02-.5.66-.4.62-.8.23.42.23.22.24.74.28-.68.29-.04.71-.34.26.54-.22.65.32.71.06.31-.43.3-.42.31ZM822.2,232.23h0c.03-.12.06-.21.08-.28-.02.06-.04.14-.07.28ZM821.67,233.22c.1-.1.19-.24.28-.4.15.04.26.15.19.25-.05-.11-.26.1-.46.15ZM825.45,231.5c.02.27-.09.34-.19.36.02-.12.04-.27.04-.46-.01-.01-.03-.03-.05-.04.08.04.14.08.19.14Z" fill="#9f2d20"/>
      <path d="M824.98,230.95s-.02-.06-.02-.1c-.04.04-.08.09-.11.13.04.04.08.07.12.11,0-.04,0-.09.01-.13Z" fill="#9f2d20"/>
      <path d="M813.85,225.65v.04s.02-.06.04-.08c-.02.03-.03.03-.04.05Z" fill="#9f2d20"/>
      <polygon points="808.04 228.53 807.95 228.59 808.08 228.62 808.04 228.53" fill="#9f2d20"/>
      <path d="M818.34,225.12s-.06.06-.07.12c.03-.01.05-.06.07-.12Z" fill="#9f2d20"/>
      <path d="M818.78,228.1c-.05.14-.09.29-.15.43.09-.18.13-.32.15-.43Z" fill="#9f2d20"/>
      <path d="M818.36,230.37c.07.04.12.06.17.08h0s-.17-.08-.17-.08Z" fill="#9f2d20"/>
      <path d="M813.26,232.56s.04.03.07.04c.18.05.07,0-.07-.04Z" fill="#9f2d20"/>
      <path d="M812.85,224.24c-.08.1-.15.21-.23.29.17-.04.3-.07.23-.29Z" fill="#9f2d20"/>
      <polygon points="820.51 229.2 820.52 229.2 820.53 229.14 820.51 229.2" fill="#9f2d20"/>
      <path d="M812.21,224.72c.19-.01.3-.09.4-.19-.14.03-.31.06-.4.19Z" fill="#9f2d20"/>
      <path d="M816.54,225.84l.03-.11s-.05,0-.07-.02l.04.13Z" fill="#9f2d20"/>
      <path d="M816.5,225.71l-.04-.13c0,.06,0,.11.04.13Z" fill="#9f2d20"/>
      <path d="M816.38,225.32l.08.27c0-.09.03-.2-.08-.27Z" fill="#9f2d20"/>
      <path d="M816.55,228.9h.16s-.09-.01-.16,0Z" fill="#9f2d20"/>
      <path d="M816.8,229.8c-.02-.23.18-.61.03-.89h-.13c.25.09-.21.75.1.89Z" fill="#9f2d20"/>
      <path d="M818.72,233.25c-.41.2-.88.24-1.29.12.18.19.58.44-.15.4.48.21.74.18.83.16.09-.02.03-.07-.03-.14-.06-.06-.11-.14-.03-.22.07-.08.28-.14.67-.33Z" fill="#9f2d20"/>
      <path d="M820.46,230.5c-.03.51.23.04.32.08-.09-.35-.11-.43-.32-.08Z" fill="#9f2d20"/>
      <path d="M818.76,228.92l.34.18c.1-.47-.14-.05-.34-.18Z" fill="#9f2d20"/>
      <path d="M816.48,225.69c-.01.11-.05.23-.07.33.12-.03.24-.05.37-.06-.09-.1-.19-.19-.29-.27Z" fill="#9f2d20"/>
      <path d="M816.31,222.19c.08,0,.15.02.23.04-.28-.07-.55-.13-.83-.16.2.02.4.07.6.12Z" fill="#9f2d20"/>
      <path d="M824.32,225.81l-.45.18c.11.25.65.26.45-.18Z" fill="#9f2d20"/>
      <path d="M813.87,216.83c-.28-.13-.79.03-.89.4.33-.21.75-.26.89-.4Z" fill="#9f2d20"/>
      <path d="M803.66,225.82l-.07-.45c-.02.28-.02.55,0,.81.02-.12.04-.24.07-.36Z" fill="#9f2d20"/>
    </g>
  </g>
</svg>