<?xml version="1.0" encoding="UTF-8"?>
<svg id="_レイヤー_1" data-name="レイヤー 1" xmlns="http://www.w3.org/2000/svg" viewBox="0 0 1280 1024">
  <g id="umibozu_ashi">
    <g>
      <path d="M915.49,207.66c.07.36.21.45.33.19.07-.15.09-.3.1-.54.04-.24-.05-.55-.18-.92-.38-.26-.71-.46-1.12-.58.51.55.82,1.17.87,1.86Z" fill="#9f2d20"/>
      <path d="M906.45,202.18c-1.08.44-2.03,1.24-2.33,1.92-.33.66-.15,1,.4.78.21-.38.41-.73.68-.94.12-.12.24-.23.36-.33.14-.08.27-.17.4-.25.54-.34,1.15-.62,2.3-1.08.47-.03.92-.03,1.31.05.39.04.73.14.98.25.52.19.73.41.55.48.16,0,.41.07.71.16.29.1.62.27.96.41.66.35,1.31.74,1.8.91-.71-.97-1.98-1.79-3.46-2.18-1.48-.38-3.21-.35-4.69.28-.71.03-.12-.3.02-.46Z" fill="#9f2d20"/>
      <path d="M907.6,223.59c-.42.12-.83.26-1.25.36.36-.06.78-.2,1.25-.36Z" fill="#9f2d20"/>
      <path d="M911.95,196.74c.99.06,1.41.11,1.48.04-.93-.12-1.7-.11-1.48-.04Z" fill="#9f2d20"/>
      <path d="M899.17,211.41c-.11-.47-.21-.87-.28-1.31.05.52.15,1.02.28,1.31Z" fill="#9f2d20"/>
      <path d="M907.6,223.59c1.07-.32,2.12-.73,3.14-1.21.05-.15-.35.02-.94.31-.61.25-1.41.66-2.2.9Z" fill="#9f2d20"/>
      <path d="M914.12,214c.07.07.05.18.12.24l1.24-1.64c-.35.12-.62.22-.87.32l.89-.25-1.19,1.56c-.05-.08-.03-.17-.08-.24-.03,0-.06,0-.11,0Z" fill="#9f2d20"/>
      <path d="M928,211.82c.11.36.19.72.25,1.09.14.31.26.59.4.87-.17-.66-.38-1.32-.65-1.96Z" fill="#9f2d20"/>
      <path d="M909.87,247.93c.87-.46.85-1.13,1.03-1.53-.32.49-.88.94-1.6,1.39.04.1.21.15.57.13Z" fill="#9f2d20"/>
      <path d="M907.43,210.49c.39-.1.78-.16,1.18-.23-.31.05-.83.13-1.18.23Z" fill="#9f2d20"/>
      <path d="M899.83,205.68c-.12-.01-.31.04-.49.13.05.05.23,0,.49-.13Z" fill="#9f2d20"/>
      <path d="M879.33,205.75s-.07-.01-.09-.03c-.02.23,0,.3.09.03Z" fill="#9f2d20"/>
      <path d="M893.05,244.21l-.64-.17c-.1.08-.2.16-.23.26l.87-.08Z" fill="#9f2d20"/>
      <path d="M930.36,210.4c-.01.09-.02.12-.03.2-.08,1.22,0,.53.03-.2Z" fill="#9f2d20"/>
      <path d="M908.97,193.05c2.07.09.4.35-.96.69-1.37.33-2.45.63.58.56-.62-.23,5.49-1.25.38-1.25Z" fill="#9f2d20"/>
      <path d="M913.98,213.65c-.15-.19-.49-.37-.83-.55.48.25.7.43.83.55Z" fill="#9f2d20"/>
      <path d="M908.6,194.3h0s.62-.01.62-.01c-.26,0-.4,0-.62.01Z" fill="#9f2d20"/>
      <path d="M896.78,241.55c-.12-.19-.42-.45-.71-.74,0,.07.14.25.71.74Z" fill="#9f2d20"/>
      <path d="M915.47,192.53c-.59-.1-1.18-.15-1.77-.18.7.06,1.27.11,1.77.18Z" fill="#9f2d20"/>
      <path d="M929.29,233.23c.62-.65.94-.79,1.65-1.81-.09.07-.18.15-.29.25-.21.4-.61.85-1.36,1.56Z" fill="#9f2d20"/>
      <path d="M935.94,199.36c.06.19.18.43.23.65.16.33.35.72.51,1.06-.24-.57-.43-1.18-.74-1.72Z" fill="#9f2d20"/>
      <path d="M942,223.6c.43-.6.78-.94,1.05-1.21-.27.17-.03-.9.04-1.32.03-.21.02-.25-.12.09-.16.34-.38,1.11-.97,2.44Z" fill="#9f2d20"/>
      <path d="M914.41,213.89c-.16-.04-.25-.09-.43-.24.13.13.19.24.25.35.1,0,.18,0,.18-.11Z" fill="#9f2d20"/>
      <path d="M926.92,229.24c.57-.64,1.09-1.32,1.64-1.97.49-.7,1.01-1.38,1.47-2.09-.39.6-.91,1.24-1.4,1.96-.55.68-1.11,1.41-1.71,2.11Z" fill="#9f2d20"/>
      <path d="M894.65,237.39c.37.13.74.28,1.12.4-.42-.18-.81-.34-1.12-.4Z" fill="#9f2d20"/>
      <path d="M934.4,211.11c.18-.87.3-1.82.23-2.79-.07-.2-.13-.43-.21-.55l.07,1.67-.09,1.67Z" fill="#9f2d20"/>
      <path d="M943.07,222.38s0,0,0,0c0,0,0,0,0,0Z" fill="#9f2d20"/>
      <path d="M934.85,193.94c2.02,1.23,2.51,1.47,2.74,1.32.22-.13.08-.6.62-.46,1.19.84,1.82,1.47,2.19,1.89.37.41.43.64.42.78-.03.28-.4.27.06,1.09,1.17,1.22,2.11,2.36,2.85,3.53.73,1.18,1.24,2.42,1.44,3.72-.09.21-.05.72-.3.16.61,1.76.66,4.64.24,7.63-.41,2.99-1.18,5.98-1.66,8.28-.18.3-.3.44-.38.5.6-.57,1-.56,1.2-.32-.76,2.18-1.28,4.16-2.11,4.71.65-1.26.55-1.44.67-2.11-.25.77-.59,1.5-.88,2.25-.82.79-.47.04-.02-.95.49-.97.98-2.23.75-2.33-1.51,4.36-4.31,9.22-7.07,11.56-.25,0-.02-.36.42-.87.41-.54.98-1.24,1.49-1.84.93-1.28,1.54-2.13-.13-.47,1.18-1.36,2.33-2.78,3.29-4.34-3.02,3.02,1.72-2.78-1.18-.1-1.9,2.93-3.15,4.41-4.39,5.91-1.31,1.41-2.65,2.88-5.62,4.69-1.14,1.15.75.19-.41,1.36-.51.39-1.04.65-1.51.93-.48.26-.91.53-1.34.7-.86.36-1.59.65-2.23.83-1.3.35-2.25.41-3.1.44-1.72.02-3.01.01-6.67.94-.94.34-1.59.73-2.7,1.03-1.1.29-2.68.51-5.4.27.62-.25,1.23-.51,1.84-.78-3.51.01-4.48.15-5.54.29-.52.06-1.06.1-1.91.01-.84-.09-2.01-.3-3.68-.93.64.05,1.94.31,2.99.45,1.04.15,1.81.21,1.3.11-2.25-.63-3-.77-3.71-.75-.68-.03-1.32.13-2.92-.57l-.35-.91c-3.08-1.42-5.83-3.91-7.71-7.22-1.9-3.31-2.93-7.33-3.02-11.42.2.46.44,1.81.62-.07-.29-5.06,1.09-10.54,3.72-15.2,1.3-2.34,2.94-4.48,4.78-6.3,1.84-1.82,3.82-3.42,5.91-4.63.44-.45.94-.81,1.42-1.22.49-.39.97-.82,1.49-1.15.79-.37,1.56-.45.77.06,1.73-.72,1.78-.74,1.53-.83-.24-.07-.74-.1.08-.53,2.04-.82,2.81-.66,1.58-.04.76-.36,1.66-.62,2.6-.97.95-.32,2.01-.55,3.1-.84,2.21-.42,4.66-.8,7.14-.77,4.97-.12,9.94,1.14,13.07,2.83l-1.34-.37c2.5,1.13,3.98,1.58,5.39,2.17.35.16.69.32,1.05.48.18.09.36.18.54.27.17.11.34.24.52.36.7.52,1.51,1.15,2.23,2.21l-.73-.64c2.09,2.09,3.69,4.72,4.58,7.57.9,2.85,1.06,5.93.61,8.85-.97,5.87-4.21,10.91-7.67,13.86-.24.95-2.49,3.01-4.88,4.65-.6.4-1.2.8-1.76,1.17-.57.35-1.11.69-1.56,1.01-.94.59-1.57,1.1-1.61,1.46-3.29,1.33-4.58,1.47-6.13,1.87-1.58.27-3.47.87-8.29,1.32-1.28.08-2.22.37-3.26.58-.52.12-1.06.25-1.68.31-.62.06-1.31.16-2.12.09l-.03-.62c-.72.04-1.45.1-2.18.07-.73,0-1.47,0-2.21-.08-.71-.4-1.4-.82-2.06-1.28-.97-.2-1.91-.51-2.87-.8,1.1.45,2.29,1.11,2.08,1.2-2.3-.56-4.93-1.84-6.78-3.18-1.87-1.31-2.97-2.61-2.91-2.76-.74-.51-1.38-1.11-2.05-1.69-.6-.63-1.27-1.23-1.78-1.93-.58-.66-1.03-1.4-1.51-2.12-.39-.76-.84-1.51-1.1-2.33.29.15.93,1.73,1.8,2.79-1.59-2.24-1.35-2.63-1.28-2.83.05-.11.11-.22.02-.56-.1-.35-.28-.97-.62-2.15-.04.69-.42-.31-.55-.42.03-1.3.08-3.42.39-5.87.3-2.47.74-5.2,1.24-7.41l.2.95c.51-1.98,1.14-3.95,1.99-5.81.87-1.85,1.96-3.58,3.34-5.08,1.4-1.48,3.05-2.74,4.99-3.69,1.93-.97,4.1-1.67,6.36-2.19-1.64.28-2.3.26-2.26.02.05-.24.84-.69,2.19-1.03.41.13.81.26,1.22.4,1.68-.75-2.9.34.63-.88,3.56-.54,2.48.32.52.87,1.39-.34,2.82-.62,4.26-.88.28.16-.73.39-.95.68,1.7-.66,7.66-.31,10.11-1.19l.26.18c4.7-.34,8.03-.2,10.95.36,1.47.28,2.85.7,4.2,1.27,1.35.58,2.69,1.34,3.85,2.42.23-.16.82.2,1.42.84.61.63,1.2,1.55,1.69,2.44.65,2.4.27,5.24-.36,8.34-.63,3.13-1.35,6.33-2.45,9.42-.69,2.2-.8,2.52-.67,2.6.1.07.37-.14.04.87-.31.04-1.21,1.51-2.03,2.44-.82.93-1.35,1.46-.49.06-1.12,1.53-2.21,2.64-3.31,3.53-.52.48-1.11.84-1.63,1.26-.57.36-1.12.74-1.72,1.08-2.4,1.33-5.2,2.67-10.24,3.84,1.14,0,2.4-.19,1.8.12-1.83.51-4.28.53-4.04.24l.49-.12c-2.85.61-6.03.8-9.27.67-3.2-.16-6.76-.41-8.74-1.76-.98-.65-1.67-1.59-2.28-2.8-.59-1.18-1.15-2.68-1.71-4.04-1.11-2.73-2.02-5.16-2.74-7.25.05.16.1.31.16.47-.88-2.91-1.2-5.88-.36-8.6.37-.9.6-1.17.64-1.16.06.02-.09.31-.15.66-.15.7-.31,1.46.36.27.65-2.06,2.04-3.67,3.58-4.92,1.55-1.26,3.26-2.15,4.98-2.89,3.47-1.45,6.95-2.26,11.1-3.03,1.66.16,3.9.26,6.48.4,2.57.17,5.47.54,8.36,1.24,2.88.7,5.74,1.77,8.14,3.18,2.38,1.4,4.36,3.13,5.44,4.79l-.05-.57c.89.62,1.15,1.23,1.43,1.72.28.49.36,1.03.72,1.69.15-.32-.9-2.1-.05-1.1,2.56,3.68,3.54,8.52,2.6,12.99-.48,2.23-1.39,4.38-2.78,6.21-1.37,1.84-3.14,3.34-5.12,4.56-4.08,2.4-9,3.54-13.95,4.04-4.98.48-10.01.42-14.25-.97-1.55-.49-2.46-.89-3.22-1.09-.73-.26-1.29-.33-1.85-.54-.58-.18-1.19-.45-1.98-1.11-.79-.66-1.79-1.73-2.76-3.68.62.57,1.27,1.09,1.93,1.55-2.25-2.42-3.83-5.67-4.73-9.14-.9-3.51-1.26-7.19-.7-10.58.54-3.41,2.1-6.42,4.48-8.83,2.37-2.44,5.41-4.34,8.61-5.84-.72.46-.66.66-1.89,1.23,1.41-.45,3.92-1.49,6.2-2.25,2.26-.79,4.25-1.36,4.24-1.57,2.21-.36.58.25,1.96.21,1.52-.1,3.31-.47,4.86-.55,1.56-.1,2.88.11,3.46.56.19.14-.73-.07-1.19-.11.41.03,1.09.17,1.82.44.73.27,1.51.68,2.17,1.11,1.32.85,2.21,1.69,1.77.9.87.85,1.65,1.77,2.35,2.72.36.47.66.97.96,1.48.3.5.64.98.85,1.51,1.07,2.01,1.64,4.15,1.72,6.16.55,1.26.43,3.5.17,5.44-.3,1.96-.8,3.64-.5,4.19-.4-.31-1.17,1.84-2.39,4.29-1.2,2.47-2.9,5.22-3.84,6.63.24-.53-.26,0-.77.49-.54.47-1.06.9-.76.29-2.43,2.86-5.2,4.92-4.39,4.92-3.11,1.67-6.09,3.38-8.98,4.41-2.86,1.04-5.65,1.24-7.38.35-2.61-.12-5.07-.97-7.22-2.29-1.06-.69-2.04-1.5-2.93-2.41-.86-.94-1.68-1.93-2.34-3.03-.67-1.09-1.26-2.24-1.7-3.44-.47-1.19-.82-2.43-1.06-3.68-.49-2.52-.59-5.15-.32-7.67.41.24.1,3,.39,5.68.23,2.68,1.07,5.06,1.45,4.72-.75-2.15-1.15-4.2-1.33-6.2-.19-1.99-.15-3.87.09-5.73.53-3.68,1.85-7.42,5.05-10.95.88-.86.71-.54.28.08-.21.32-.47.72-.71,1.08-.22.37-.42.71-.51.89,2.59-3.9,6.48-6.76,10.6-8.42,4.11-1.63,8.66-2.49,12.16-1.27-.06.07-.82-.16-1.58-.25,1.46.23,3.01,1.44,3.09,1.03-.44-.24-.88-.45-1.33-.61-1-.69.54-.62,2.34.38,1.81.96,3.56,2.87,3.76,2.91-1.38-.8-.01.91.76,2.64.41.86.67,1.72.65,2.11,0,.4-.27.31-1-.53.49.91,1,2.11,1.21,1.81.14.77.17,1.28.09,1.41-.09.13-.19-.12-.52-.83.34,1.33.44,2.22.47,2.88.04.33.03.6.04.84.01.24.02.45,0,.66-.01.21-.02.41-.04.64-.03.22-.09.47-.16.76-.16.57-.44,1.39-1.17,2.39-.08-.07.01-.31.13-.6.09-.32.2-.68.22-.95-.36,1.19-.93,2.27-2.04,3.36-1.09,1.07-2.69,2.06-4.87,2.64.22-.2-.31-.18.94-.6-3.55,1.32-7.04,1.57-10.1.31-3.08-1.27-5.49-4.41-6.48-8.76.79,1.12.61.38.4-.69-.22-1.08-.3-2.49.09-2.69-.12-1.38.06-2.67.64-3.77-.35.37-.67.8-.95,1.28.5-1.7,1.54-3.06,3.02-3.96,1.47-.92,3.26-1.36,4.99-1.28-.99.12-1.96.36-2.85.71,2.31-.66,4.93-.63,7.26.09-1.28-.52-2.69-.83-4.12-.93,2.06-.13,2-.26,2.07-.44.04-.08.12-.13.54-.09.41.06,1.19.17,2.49.74-.56-.16.47.15,1.73.95.62.4,1.29.92,1.85,1.48.55.57,1.01,1.16,1.26,1.65h-.01c.74.7,1.44,1.51,2.03,2.55.58,1.03,1.07,2.31,1.21,3.87-.1.81-.93-.49-.99.04.5.87.71,3.29.07,5.67-.62,2.39-1.95,4.59-2.55,5.77.42-.78.12-1.04-.11-.87-.2.54-.42,1.1-.7,1.62-.7.67-1.2.95-1.44,1.08-.25.12-.31.04-.3-.18-1.11.88-1.59,1.23-1.72,1.39-.13.17.09.16.28.16.19,0,.35,0,.08.22-.14.11-.38.27-.78.51-.41.21-.99.5-1.81.8.49-.24.21-.22,1.19-.79-1.55.77-3.14,1.35-4.75,1.61-1.62.27-3.27.28-4.75-.11-1.48-.38-2.71-1.25-3.14-2.6-.45-1.34-.4-3.12-.39-4.73.38-.97.4.46.51,1.84.08,1.44.32,2.48.48,1.53-.13-1.01-.2-2.28-.25-3.43-.04-1.18-.04-2.37,0-3.57.09-2.39.36-4.81.83-7.17.46-2.33,1.25-4.53,2.7-6.19,1.39-1.66,3.51-2.67,5.6-2.89-.52.03-1.04.12-1.56.25.38-.67,2.18-1.04,4.08-.45.94.28,1.85.84,2.58,1.55.74.71,1.28,1.61,1.76,2.55-.45-.94-1.09-.89-.85-.74.58,1.16.87,2.54.84,4.01,0,1.49-.27,3.06-.85,4.65-1.15,3.16-3.55,6.47-7.49,9.01l.83-.84c-1.54.9-3.71,1.92-5.95,2.54-1.09.28-2.12.32-2.82-.01-.71-.31-1.19-.97-1.51-1.76-.69-.77-1.15-3.09-1.21-1.63-.4-3.04-.65-6.07.27-8.4.85-2.35,3.21-3.56,5.96-3.94,2.78-.37,5.67-.58,8.42-.42,2.74.17,5.53.79,7.56,2.3-1.03-.61-2.74-.87-1.82-.57,2.74.86,4.93,2.69,5.52,5.47.15-.37.15-.67.07-1.09-.09-.42-.23-.96-.59-1.83.42.38.99,1.15,1.35,2.18.38,1.03.55,2.29.54,3.46-.08-1.07-.23-1.58-.33-1.73-.1-.15-.18.05-.23.42-.11.75-.29,2.22-.52,3.11.17-.29.27.34.43.2-.64,2.38-.49,2.58-.29,3.06.15.45.46,1.21-.76,4.37l-.13-.41c-.6,2.42-1.19,4.72-2.54,7.1-.5.37-.24-.25.1-1.01.32-.76.7-1.68.54-1.84-.75,1.72-1.43,3.47-2.24,5.13-.83,1.64-1.82,3.17-3.13,4.33.93-1.33,2.28-3.22,3.01-4.66-2.56,2.76-2.73,3.13-4.59,5.15l.19-.19c-1.46,1.5-3.04,2.98-4.68,4.17.45-.27.87-.58,1.31-.89-1.23,2.05-3.23,3.54-5.56,4.66-2.36,1.08-5.01,1.96-8.22,2.18.39-.04.73-.07,1.04-.1.3-.06.56-.12.78-.16.44-.08.73-.2.92-.27.37-.15.31-.19.08-.21-.45,0-1.56-.02-1.35-.34-.76-.03-1.67-.21-2.29-.41-.62-.2-.94-.42-.64-.41-1.31-.1-2.29-.66-3.19-1.46-.91-.81-1.82-1.81-3.17-3.34.03-.12-.36-.77-.61-1.38-.27-.6-.39-1.14-.05-.95-.77-1.62-.73-1.42-.61-.79.13.63.49,1.63.31,1.54-1.56-2.42-2.26-5.96-1.72-9.57.5-3.65,2.18-7.22,4.63-10.62,1.13-1.4,2.15-2.45,3.09-3.32.93-.86,1.76-1.57,2.62-2.22.86-.65,1.74-1.26,2.83-1.86,1.08-.6,2.36-1.22,4.05-1.77,1.19-.16.75.13.05.48-.71.33-1.68.78-1.68.78.91-.25,1.78-.44,2.59-.62.79-.15,1.58-.24,2.36-.26,1.54-.04,3.15.02,4.61.67-.33-.08-.35,0-.21.17.13.16.43.43.58.76.42.41.46.66.61.92l.74-.97c-.79.36-1.15.78-3.64.89.61-.28,1.36-.72,2.61-1.22-1.57.43-3.14.79-4.72.86-1.59.07-3.16-.16-4.51-1.01-.24-.38.22-.19.86.05.66.23,1.52.4,2.08.39-.86-.13-1.72-.4-2.54-.91-.81-.5-1.53-1.22-2.02-2-1.05-1.58-1.01-3.26-1.12-3.82-.26.71-.3,1.5-.23,2.28-.13-.66.02-.84.15-.73.14.11.3.47.46.89.1.34.31.63.41.91.17.26.29.52.42.74.15.21.27.42.38.61.13.17.24.34.34.49.41.58.59.99.61,1.1-.63-.43-1.23-.94-1.69-1.57.07.62.55,1.35,1.33,2.02.78.67,1.94,1.12,3.19,1.32,2.55.38,5.36-.36,7.7-1.01l-.51.67c-.04-.16-.04-.31-.08-.45-.07-.13-.09-.27-.17-.39.15.09.25.21.4.34.11.14.2.31.31.49l.15-.2-.8.55.85-.32h.03s0-.03,0-.03c-.11-.74-.56-1.34-1.12-1.69-.57-.37-1.23-.56-1.89-.67-.46-.26-.88-.5-.86-.66,0-.14.49-.29,1.73.12-.84-.46-1.53-.6-2.06-.69-.54-.08-.94-.07-1.32-.06-.77.06-1.44.07-3.07.1-.37-.01-.22-.08.11-.16-.61.14-1.2.34-1.76.55-.57.2-1.13.43-1.68.66.62-.38-.78-.39,1.4-.94-3.23.7-5.59,2.08-7.33,3.28-1.75,1.23-2.92,2.34-4.05,2.92l.38-.41c-1.7,1.55-2.39,2.55-2.74,3.05-.32.53-.28.62-.18.66.1.04.25.04.16.37-.09.34-.46,1-1.16,2.49-1.18.99-2.28,2.16-3.25,3.5l.32,1.04c-.29.89-.62,2.72-.8,2.35.05,3.53.31-.55.51,1.49-.2,1.1-.24,2.43-.08,3.81.17,1.37.54,2.77.99,4.01.89,2.5,2.13,4.35,2.02,5.05,1.26,1.08-2.04-3.79.85.01-.02.84.9,1.99,2.38,2.98,1.48,1.01,3.49,1.63,5.52,2.1-1.35.51-5.29-1.2-1.19.57,1.39-.18,3.43-.01,5.62-.34,2.17-.29,4.44-.98,5.97-1.9-.11-.38,1.58-1.28,3.62-2.91,2.06-1.62,4.37-3.94,6.1-6.28-.03.21,1.83-1.8,3.69-4.74,1.91-2.91,3.56-6.82,4.39-9.44l.07.19c-.4-1.22,1.06-6.62.42-10.81.43.1.79.88.89,3.18.06-1.31.04-2.68-.21-4.06-.21-.47-.41-1.02-.75-1.75-.34-.72-.82-1.66-1.74-2.68.37.14.74.33,1.1.55-.84-1.25-1.98-2.25-3.26-2.96-1.27-.71-2.64-1.17-4.04-1.49-2.81-.63-5.76-.78-9.04-.92-.18.26,1.12.6,1.59.95.47.37.12.59-3.23.87-.26-.26-.54-.74,1.24-.9-.59.05-2.07.29-3.25.25.9-.22,1.79-.41,2.7-.6-2.96-.08-1.52.42-3.87.58,0-.42-1.81-.02-1.52-.37.63-.18,2.15-.15,3.04-.35-1.34.05-2.87.12-4.25.43-.69.15-1.34.35-1.87.58-.54.22-.98.41-1.27.57.18,0,.25.11.07.4-.09.14-.25.32-.46.59-.22.27-.5.59-.81,1.07-.41.59-.68,1.1-.84,1.51-.19.41-.3.72-.38.95-.19.46-.27.62-.36.69-.09.08-.17.08-.28.27-.12.19-.24.57-.36,1.4.11.69.11,1.9.29,2.92.16,1.02.42,1.84.71,1.83.32,1.49.14,1.8.14,2.43.27.64.61,1.82,1.55,3.07.48.61,1.14,1.22,1.93,1.58.77.37,1.62.53,2.34.52,1.46-.01,2.49-.41,3-.63.51-.24.51-.35-.26-.27-.23.05-.46.1-.69.14.13-.04.27-.09.43-.14h-.02s.02,0,.02,0c4.11-1.52,8.07-3.84,11.06-7.29,1.47-1.72,2.68-3.71,3.4-5.89.19-.54.3-1.1.45-1.66.08-.57.2-1.13.22-1.7.09-1.13.03-2.3-.24-3.4l.2-.03c-.35-1.34-.96-2.73-1.97-3.88-1.01-1.14-2.39-1.97-3.81-2.3-2.87-.7-5.51.19-7.06,1.19-.7.34-1.51.77-2.09,1.1-.59.33-.94.51-.78.18-1.45,1.54-1.93,2.63-2.5,3.85-.54,1.24-1.12,2.71-1.84,5.45.24-1.96.12-1.66.05-1.5-.03.07-.04.11.04-.21.09-.32.24-.99.72-2.32-.94,2.5-1.27,4.01-1.6,5.6-.28,1.59-.48,3.27-.32,6.02-.21-.94-.43,0-.52,1.52-.04.76-.05,1.65,0,2.51.04.84.11,1.7.27,2.4-.09-1.4.03-2.52.11-3.74.08,1.38.09,2.59.35,4.01.14.69.37,1.42.76,2.09.39.67.92,1.24,1.5,1.71-.56-.15-1.14-.4-1.69-.76.51.79,1.21,1.38,1.92,1.86.72.46,1.47.78,2.2.99,1.47.44,2.88.5,4.22.41,1.34-.1,2.61-.37,3.82-.78.62-.21,1.18-.46,1.72-.73.55-.24,1.07-.53,1.58-.84,2.04-1.2,3.76-2.68,5.25-4.29,1.49-1.62,2.75-3.36,3.9-5.24.35-1.49-.26-.04-1.05,1.29-.39.68-.86,1.31-1.15,1.62-.29.32-.4.31-.16-.3,1.42-2.05,2.6-4.39,3.17-6.56.12-.54.28-1.06.35-1.55.07-.5.13-.96.19-1.38.02-.84.07-1.53-.02-1.95-.17-1.87-.69-3.16-1.18-4.15-.51-.99-1.06-1.69-1.64-2.34-.59-.65-1.22-1.26-2.05-2.01-.84-.73-1.87-1.63-3.45-2.61.36.34.61.77.21.77-.2,0-.56-.1-1.18-.31-.62-.19-1.48-.54-2.75-.82-2.32-.63-3.83-.78-4.36-1.03-.53-.22-.05-.6,1.6-.61,1.24.07,1.82.29,1.76.35,1.65.16,3.81.96,1.9,0-.25.01-.49.02-.73.04-1.23-.46-3.69-.83-5.62-.65-1.93.13-3.35.55-2.55.1-.99.33-1.57.64-1.84.81-.27.17-.25.21-.02.16.46-.12,1.75-.56,3.22-.75-1.68.22-3.18.72-4.49,1.49-1.31.76-2.42,1.83-3.21,3.09-.8,1.26-1.26,2.72-1.44,4.23-.17,1.52-.08,3.11.24,4.8-.11-1.1.07-2.14.21-1.06.37,2.47.94,3.83,1.31,4.72.4.88.67,1.25.9,1.52.24.26.42.44.79.89.37.44.87,1.19,2.02,2.4.59.74.85,1.06.9,1.24.06.18-.06.19-.09.25-.03.06.02.17.45.51.44.33,1.25.92,2.92,1.54,1.98.84,2.23.9,1.66.97-.55.03-1.88-.23-2.74-.56,1.6.65,3.2,1,4.7,1.15,1.51.18,2.94.17,4.27.03,2.66-.25,4.96-.93,6.64-1.83-1,.61-2.03,1.16-3.12,1.58,1.94-.79,3.45-1.6,4.91-2.64-.63.3-1.3.47-1.93.69,1.81-.9,3.1-2.16,3.21-1.99.69-.85.24-.7-.01-.76-.28-.06-.25-.24.84-1.98.91-1,1.76-2.85,2.11-4.61.37-1.75.36-3.31.63-3.78.03.52,0,.97-.01,1.37,0,.39-.04.73-.08,1.01-.05.56-.1.91-.12,1.12-.04.42.08.29.22.11.14-.18.3-.4.33-.12.02.27.02,1.1-.67,2.87.5-1.37.98-3.11,1.1-5.22.07-.32.13.3.13.89.3-2.14.04-3.45-.15-4.32-.22-.87-.45-1.31-.72-1.73-.25-.44-.56-.84-.98-1.62-.47-.75-1.03-1.88-2.17-3.53.44.31.31-.16-.05-.85-.37-.69-1.01-1.55-1.51-2.01,1.12,1.23,1.2,1.66.83,1.46-.39-.19-1.27-.96-2.46-1.86-1.85-1.84-3.31-2.44-4.39-2.79-1.11-.32-1.93-.43-3.28-.61,1.02.16,2.05.43,3.03.84-1.1-.06-3.64-.8-7.05-.28-.16-.12.61-.26,1.28-.32.67-.06,1.23-.05.6-.12-1.93.34-4.03.52-6.31,1-2.27.48-4.74,1.26-6.91,2.82-2.21,1.11-.57-.46-2.49.64-2.32,1.99-3.54,3.09-4.79,4.26-1.2,1.19-2.51,2.5-3.88,5.48.65-.72,1-1.14.95-.87-.03.27-.54,1.21-1.19,3.35,1.2-3.24,3.1-6.27,5.49-8.81-1.43,1.74-2.61,3.66-3.53,5.67,1.53-2.69,3.71-5.42,5.18-6.57-1.04,1.19-1.46,1.76-1.5,1.89-.04.14.32-.14.98-.51-1.73,1.2-3.03,2.9-4.05,4.8-1.03,1.91-1.81,3.96-2.74,6.19l-1.08-.49c-1.36,3.55-1.54,7.02-1.15,10.58.42,3.56,1.39,7.43,3.73,11.72-.25-.46-.46-.94-.66-1.43-.22-.48-.4-.96-.57-1.46.46.51,1.1,1.84,2,3.31.9,1.46,2.13,3.01,3.34,4.03-.5.08.87,1.55,1.9,2.55.01-.18,1.54.9,3.38,1.64,1.84.75,3.94,1.07,4.44.74,1.39.46,2.85.7,4.32.86,2-.04,3.55-.31,4.81-.73.64-.18,1.21-.41,1.74-.65.53-.22,1.03-.46,1.5-.73,1.91-1.05,3.68-2.16,6.71-4.11-.79.78-.46.78-.42.94.03.16-.17.55-2.28,1.89,2.2-1.17,4.04-2.44,3.91-2.69.66-.32,1.95-1.46,3.19-2.78,1.26-1.31,2.42-2.8,3.3-3.53.25-.46.35-.82.6-1.32.26-.5.63-1.17,1.4-2.28.23-.2.16.12.16.12-.08-.08,1.97-3.76.4-1.95,1.25-1.39,2.34-3.36,3.27-5.58.89-2.24,1.48-4.79,1.71-7.35.26-2.56.03-5.12-.4-7.39-.38-2.3-1.13-4.26-1.6-5.9-.7-1.17-1.41-2.42-2.34-3.56-.92-1.14-1.97-2.22-3.14-3.14-2.32-1.88-5.14-3.04-7.64-3.4.34-.05.05-.21.99.03-1.71-.47-2.87-.44-3.7-.38-.84.08-1.37.26-1.93.44-1.11.38-2.28.73-5.93,1.27-1.91.1-.98-.21.16-.48,1.13-.29,2.47-.48,1.28-.4-.62-.55-2.87-.09-5.51.81-2.66.87-5.62,2.28-8.06,3.18.36-.22.71-.44,1.07-.65-3.69,1.37-8.49,5.31-11.45,11.3,0,0,.04-.34-.16-.12-.7,2.21-1.39,5.41-1.3,8.79.05,3.38.72,6.86,1.61,9.73-.97-1.68-.9-2.62-1.15-1.36.34,1.33.53,1.08.76,1.16.26.07.52.5,1.5,2.99.19.86.61,2.22,1.09,3.4.45,1.2.94,2.25.87,2.62-1.02-1.45-1.87-3-2.57-4.61.2,1.38,1,2.95,2.04,4.36,1.03,1.42,2.31,2.66,3.3,3.67l-.48-.03c1.53,1.44,2.88,2.32,4.07,2.9,1.19.59,2.21.95,3.25,1.24,1.04.29,2.1.51,3.43.74,1.33.22,2.92.45,5.02.58-.29-.09-.57-.19-.85-.29,2.31-.22,3.24-.16,4.2-.03.95.11,1.93.25,4.16-.26.48.22.97.43,1.46.63,1.49-.28,4.1-.84,6.91-1.8,2.81-.94,5.78-2.33,8.06-3.82-1.15,1.06-3.21,2.33-5.52,3.32-2.3,1.01-4.81,1.73-6.74,2.24,1.5-.24,4.04-.8,6.32-1.62,2.29-.81,4.3-1.89,4.91-2.46-1.06.66-2.42,1.46-3.61,1.77,1.65-.95,3.54-2.04,5.5-3.51,1.94-1.51,3.97-3.38,5.65-5.9.09.22.29.18.59-.07.29-.26.74-.7,1.11-1.38.85-1.3,1.69-3.4,2.17-5.77.43-2.38.41-4.99.12-7.25-.2-1.12-.33-2.18-.59-3.08-.1-.45-.19-.88-.26-1.26-.1-.38-.18-.71-.24-1.01-1.3-2.55-2.93-4.9-4.99-6.86-2.02-1.96-4.3-3.62-6.78-5.03-2.48-1.4-5.19-2.47-8.04-3.29-2.85-.82-5.88-1.33-9.05-1.46,2.2.74,1.26.69-.1.61-1.37-.08-3.2-.01-2.81.58-2.87.14-3.95.26-4.22.22-2.91.03-5.85.38-8.75,1.06-2.14.29,2.6-1.1,2.29-1.22-3.15.8-3.83.97-4.27.95-.44,0-.64-.18-2.74.57,1.01.08-1.91,1.33-5.2,3.52,1.61-.95,3.27-1.67,4.93-2.27-2,1.15-3.39,2.05-4.51,2.81-1.12.76-1.98,1.36-2.82,2.04-.83.69-1.66,1.44-2.49,2.7-.8,1.25-1.66,3.03-1.93,5.61.05-1.09.21-2.2.5-3.3-.45,1.29-.95,3.2-.99,5.35-.07,2.15.27,4.47.86,6.62.58,2.16,1.39,4.16,2.19,5.85.81,1.69,1.59,3.04,2.29,3.99.23.81.44,2-.57.11.58,1.29,1.31,2.74,2.49,4.08,1.14,1.35,2.87,2.47,4.54,3,1.68.56,3.3.72,4.82.81,1.52.07,2.95.06,4.41.04,5.79-.12,11.22-.92,15.47-1.77l-.75.5c.5-.15.96-.32,1.41-.48.44-.19.88-.38,1.33-.57.45-.18.92-.37,1.43-.58.51-.2,1.08-.35,1.71-.56-.08.17-.67.62.24.24.25-.14.68-.37,1.23-.68.54-.33,1.19-.73,1.88-1.16,1.36-.92,2.87-1.98,4-2.88-.54.63-1.13,1.21-1.75,1.77,2.4-1.55,4.25-3.41,5.61-5.31,1.37-1.91,2.29-3.85,2.96-5.76,1.33-3.83,1.79-7.52,2.4-11.86.41.07,1.12-1.86,1.47-4.65.17-1.39.19-3.02-.08-4.61-.26-1.6-.83-3.13-1.47-4.25l.2.09c-.95-1.7-2.24-3.02-3.56-4.06-1.33-1.04-2.71-1.82-4.09-2.43-2.77-1.21-5.53-1.78-8.24-2.02-5.39-.45-10.43.36-15.95,1.18-1.75-.03-4.1.09-6.86.44-2.75.38-5.92.97-9.17,2.2-1.62.62-3.25,1.4-4.79,2.39-1.54,1.01-2.96,2.2-4.21,3.53-2.51,2.66-4.15,5.78-5.32,8.56.83-1.67.47.52-.01,2.53-1.02,2.62-.93,7.44-1.65,6.89l.16-.95c-.55.94-1,2.79-1.19,5.06-.2,2.27-.06,4.97.47,7.33.41.18.81.35,1.21.5.4,3.04,2.06,6.33,4.49,9.02,2.41,2.72,5.56,4.79,8.69,6.31,6.34,3.08,12.65,3.6,15.79,4.33,2.82-.16,6.28-.45,8.93-1.23l-.04.59c3.83-.65,6.64-1.52,9.55-2.7.73-.29,1.46-.61,2.21-.99.76-.35,1.52-.75,2.32-1.21,1.61-.89,3.34-2,5.24-3.48-.43.52-.89,1-1.36,1.48,2.27-1.54,3.34-3.01,4.27-4.44.45-.72.9-1.42,1.4-2.21.25-.39.53-.79.84-1.2.29-.43.61-.89,1-1.37.54-.21,1.07-.44,1.57-.7,2.74-3.88,4.89-8.35,5.63-13.25.41-2.43.34-4.97-.12-7.42-.2-1.24-.63-2.42-1.05-3.59-.53-1.13-1.04-2.26-1.78-3.25.09.04.23.09.45.31.22.22.53.6.85,1.35-.12-.27-.24-.58-.4-.91-.17-.32-.36-.66-.56-1.02-.2-.36-.4-.75-.63-1.13-.26-.37-.53-.75-.8-1.14-.52-.81-1.21-1.54-1.88-2.28-.65-.77-1.42-1.38-2.13-1.99-2.92-2.36-5.65-3.36-5.15-2.49.14-.37-2.07-1.59-5.05-2.4-1.47-.46-3.15-.72-4.74-.96-.8-.07-1.59-.15-2.33-.21-.74-.07-1.44-.04-2.07-.07l.83-.49c-1.09.1-1.9.14-2.6.26-.71.11-1.3.2-1.95.28-.65.05-1.34.17-2.24.28-.45.05-.95.11-1.51.17-.56.09-1.2.2-1.92.32-1.38.11-1.28-.28.58-.38-2.33.11-3.19.54-4.17.84-.49.15-.99.38-1.72.62-.73.24-1.68.48-3.02.93.62-.34,1.22-.75,1.87-1.03-1.16.32-1.97.7-2.61.93-.64.24-1.07.48-1.43.71-.71.46-1.19.79-2.23,1.61-.61.44-1.43.88-2.26,1.43-.81.57-1.74,1.08-2.53,1.67-1.64,1.1-2.99,2.15-3.43,2.22-.06.17-.22.42-.43.75-.2.34-.46.74-.78,1.19-.67.86-1.41,2-2.32,3.06-.38.2.13-.7.41-1.14-2.59,3.1-3.78,5.94-4.64,8.45-.87,2.53-1.33,4.82-2.05,7.49-.2.08-.34.43-.47.88.2-1.6.54-3.09.86-4.43.4-1.32.73-2.51,1.14-3.45.18-.47.35-.9.49-1.26.16-.36.31-.65.42-.89.23-.47.33-.67.29-.56-.22-.11-.95.99-1.38,1.68-.43.68-.77.86-.27-1.25-.66,2.06-1.39,4.9-1.7,7.87-.34,2.97-.35,6.04-.34,8.59-.03.25-.06.49-.13.69l-.1-.53c.02.59.06,1.16.11,1.69.07.54.18,1.05.29,1.54.19,1.64.37,2.69.81,4.23-.1.35.29,1.87,1.07,3.54.76,1.68,1.94,3.45,2.8,4.55.31-.5,2.49,2.26.74-.58.24.35-.41-.33-1.37-1.82-.22-.33-.48-.73-.63-.95.04.04.08.09.13.14-.89-1.5-1.82-3.59-2.49-6.05.84,1.93,1.73,3.85,2.96,6.5.99.99,2.21,1.9,2.86,2.4.21.4.49.8.79,1.25.31.43.69.86,1.07,1.31.81.85,1.75,1.69,2.71,2.37,1.91,1.39,3.8,2.2,4.2,2.56,4,1.07,8.7,1.31,12.88,1.03,4.18-.25,8-.99,10.26-2,2.11-.58,2.53-.27,3.37-.32-1.21.45-2.7.77-3.35,1.04,2.15-.55,5.35-1.4,7.96-2.68.66-.29,1.29-.59,1.84-.93.56-.32,1.07-.63,1.51-.91.84-.62,1.4-1.12,1.52-1.42,2.38-1.43,1.83-.89,1.47-.47-.18.2-.32.35-.02.16.28-.21,1.07-.67,2.5-1.97l-.66.85c3.17-2.19,5.54-4.86,7.33-7.65,1.79-2.8,3.03-5.74,3.94-8.77.92-3.04,1.51-6.19,1.92-9.59.36-3.4.63-7.15-.35-11.41.28,1.17.36,1.77.29,2.03-.44-2.39-1.4-4.76-2.83-6.79-1.4-2.06-3.19-3.81-5.17-5.28-3.95-2.96-8.6-4.82-13.34-5.88-4.75-1.04-9.59-1.33-14.33-1.19-4.76.15-9.41.61-14.02,1.36-2.61.49-4.01.99-5.12,1.5-1.11.51-1.94,1.04-3.35,1.84l-1.31-.07c-1.59,1.02-3.1,2.18-4.45,3.48-3,2.56-5.33,5.16-7.22,8.38-.93,1.61-1.77,3.36-2.37,5.38-.61,2.01-1,4.28-.94,6.81l.53-1.25c-.26,1.77-.28,4.62-.01,6.91.25,2.29.64,4.04.33,3.8.16.35.66,1.05.85,2.44l-.27.19c1.02,2.78,2.38,5.39,4.04,7.8.84,1.47,1.25,2.15,1.36,2.53.12.38-.02.44-.09.58-.08.14-.09.35.33,1.04.44.66,1.27,1.85,3.25,3.57,1.5,1.25,4.01,2.55,6.01,3.15,1,.3,1.86.47,2.39.51.52.06.7.02.38-.14-.36-.12-.76-.26-1.17-.42-.4-.18-.79-.37-1.14-.56-.68-.41-1.17-.77-1.14-.95,1.02.44,2.06.84,3.14,1.11.43-.35,1.29-.58,1.13-1.08-.14-.57-1.38-1.07-4.32-3.16-1.52-.71-2.99-1.63-4.35-2.74-.28-.51-.56-1.01-.8-1.54.95,1.09,1.99,2.09,3.11,2.96-1.6-1.84-2.85-2.73-4.16-3.96-.06-.48-.36-1.16-.84-2.06-1.14-1.26-2.23-2.65-3.17-4.15.1-.71,1.55,1.83.43-1.41-1.22-2.13.03,2.5-1.59-1.23-.19-1.29-.1-1.77-.13-2.28-.04-.51-.16-1.04-.6-2.47.18-.45.42.15.74,1.27-.41-1.25-.67-2.96-.81-4.54-.06-.79-.11-1.54-.15-2.17-.03-.64-.09-1.17-.2-1.52.36-1.3.62-3.5,1.09-5.31.47-1.81,1.08-3.19,1.43-2.91.06-.41.28-1.56.73-2.84.44-1.28,1.11-2.68,1.8-3.65-.4,1.04-.26,1.1.13.64.4-.45,1.09-1.4,1.97-2.28,1.74-1.81,4.36-3.3,4.17-2.52,1.04-1.23,3.63-2.68,6.77-3.72,3.13-1.08,6.76-1.8,9.71-2.47-.33.12-.95.37-1.48.41,3.36-.44,4.38-.23,6.53-.24.18-.41,1.58-.76,3.3-1.02,1.72-.26,3.75-.39,5.18-.55,2.05.51,1.39.7.41.86-.99.15-2.31.35-1.68.73-.09-.32,1.68-.43,3.31-.41,1.63,0,3.11.12,2.46-.24,3.01.97,2.62.7,4.01,1.68.78-.82,2.8.53,5.35.97.98.55,1.48.94,1.78,1.2.3.26.4.41.51.55.22.3.58.43,2.64,1.61.84.75.34.61-.36.29-.69-.33-1.63-.78-1.63-.78ZM883.24,222.93s.01,0,.01,0c-.02,1.01.13,1.87.15,2.42-.02-.5-.16-1.2-.17-2.42ZM884.63,213.17c-.39,1.14-.75,2.61-1,4.17-.23.32-.42-.1-.2-1.08.04.56.56-1.74,1.2-3.09ZM881.88,235.17c-.8-1.62-.86-2.25-.83-2.51.13.4.3.83.5,1.3.19.48.44,1,.73,1.58.04.04.11.13.15.16-.17-.11-.34-.24-.55-.53Z" fill="#9f2d20"/>
      <path d="M884.05,237.66c.15.21.23.32.42.59-.16-.33-.3-.64-.45-.96-.16-.15-.34-.3-.47-.45.16.28.34.56.5.81Z" fill="#9f2d20"/>
      <path d="M906.12,224.01l.23-.05c-.19.03-.37.06-.49.06.16-.02.16,0,.26,0Z" fill="#9f2d20"/>
      <polygon points="905.09 239.73 905.09 239.88 905.94 239.82 905.09 239.73" fill="#9f2d20"/>
      <path d="M925.85,217.6c-.06.1-.13.3-.2.71.04-.03.12-.33.2-.71Z" fill="#9f2d20"/>
      <path d="M916.25,239.02c-.39.41-.81.79-1.23,1.17-.41.39-.83.76-1.27,1.12.58-.45,1.04-.89,1.45-1.26.42-.37.76-.71,1.04-1.03Z" fill="#9f2d20"/>
      <path d="M901.07,247.61c-.21.11-.27.19-.32.26.01,0,.02,0,.03,0l.29-.26Z" fill="#9f2d20"/>
      <path d="M916.1,196.45c-.2-.04-.41-.08-.59-.09-1.43-.06-.45-.03.59.09Z" fill="#9f2d20"/>
      <path d="M920.5,203.39c-.65-.62-1.34-1.17-2.1-1.67,1.13.95,1.82,1.85,2.1,1.67Z" fill="#9f2d20"/>
      <path d="M926.53,229.65s0,0,0,.01c.13-.15.25-.28.38-.42l-.39.41Z" fill="#9f2d20"/>
      <path d="M915.08,199.84c1.32.62,2.38,1.23,3.32,1.87-.91-.78-2.16-1.54-3.32-1.87Z" fill="#9f2d20"/>
      <path d="M903.78,209.14c-.08-.21-.08-.44-.14-.66-.03.02-.07-.02-.11-.06.09.24.13.49.25.72Z" fill="#9f2d20"/>
      <path d="M903.54,208.41c-.05-.24-.09-.49-.12-.74.02.34.04.64.12.74Z" fill="#9f2d20"/>
      <path d="M903.58,206.13c-.18.49-.18,1.03-.16,1.54.03-.54.14-1.17.16-1.54Z" fill="#9f2d20"/>
      <path d="M908.59,212.43l-.23.23c.13-.06.21-.13.23-.23Z" fill="#9f2d20"/>
      <path d="M901.86,214.61c.79-.34,1.83-.68,2.95-.96.56-.16,1.14-.29,1.73-.43.61-.17,1.07-.24,1.63-.37l.18-.18c-.25.11-.68.17-1.18.26-.51.1-1.22.24-1.89.39-1.36.3-2.76.8-3.43,1.3Z" fill="#9f2d20"/>
      <path d="M887.44,239.42c-.69-2.13-1-4.36-.97-6.58-.09.58-.2,1.27-.28,1.43-.09.16-.24-.21-.27-1.77-.09,1.08-.09,1.87-.05,2.43.02.57.07.9.11,1.09.08.37.12.15.18-.06.06-.21.14-.41.29-.02.17.39.31,1.4.99,3.49Z" fill="#9f2d20"/>
      <path d="M903.61,250.05c-1.81.4-1.82.41-1.35.45.47.04,1.37-.05,1.29.02,1.16-.33,1.82-.65,1.89-.72.06-.11-.46.06-1.83.26Z" fill="#9f2d20"/>
      <path d="M904,201.38l-.14-.63c-1.8,2.48.12.12.14.63Z" fill="#9f2d20"/>
      <path d="M904.96,226.15c-.6-.36-1.07-.81-1.34-1.29-.29-.09-.58-.22-.85-.44.45.81,1.2,1.39,2.18,1.73Z" fill="#9f2d20"/>
      <path d="M920.86,225.03l-.93.93c1.23-1.13,2.33-2.39,3.27-3.76-.37.49-.71,1-1.1,1.47-.41.45-.79.94-1.24,1.36Z" fill="#9f2d20"/>
      <path d="M938.74,205.47l-.43.97c.24.92.46,1.48.63,1.4.13-.07.28-.81-.2-2.37Z" fill="#9f2d20"/>
      <path d="M910.25,241.38c1.14.45,4.23.71,6.06.26-2.41.1-4.82-.22-6.06-.26Z" fill="#9f2d20"/>
      <path d="M879.41,230.86c-.45-.65-.95-1.27-1.32-1.98.69,1.34,1.54,2.58,2.47,3.71-.38-.58-.83-1.1-1.15-1.73Z" fill="#9f2d20"/>
    </g>
    <g>
      <path d="M872.58,168.85c.02-.21-.24-.52-.44-.3.05.23.11.45.18.67l.26-.37Z" fill="#9f2d20"/>
      <path d="M870.28,169.03c-.04.51.12,1.15.72,1.4-.25-.65-.03-.53-.26-1.32.18-.26.53-.18.64.05-.02-.19.44-.14.33-.57-.6-.22-1.07.12-1.15.78-.18-.02-.23-.22-.29-.33Z" fill="#9f2d20"/>
      <path d="M882.91,170.5c-.06.06-.1.13-.16.19.07-.04.12-.11.16-.19Z" fill="#9f2d20"/>
      <path d="M867.13,162.9c.14-.07.18-.15.17-.21-.12.09-.22.17-.17.21Z" fill="#9f2d20"/>
      <path d="M863.54,163.79c.08-.02.14-.04.21-.07-.1-.01-.19,0-.21.07Z" fill="#9f2d20"/>
      <path d="M882.91,170.5c.13-.17.29-.33.4-.53-.19-.1-.24.27-.4.53Z" fill="#9f2d20"/>
      <path d="M869.79,173.02c-.01-.08-.06-.16-.12-.25.01.07.02.14.02.21.03.01.06.02.1.03Z" fill="#9f2d20"/>
      <path d="M874.55,174.8l-.18-.04c-.07.06-.14.14-.21.23l.4-.19Z" fill="#9f2d20"/>
      <path d="M873.18,170.59c-.14-.18-.58.18-.8.31.23-.1.42-.08.57.03.08-.07.16-.17.23-.34Z" fill="#9f2d20"/>
      <path d="M867.42,174.17c-.03-.07-.05-.13-.08-.2.02.05.04.14.08.2Z" fill="#9f2d20"/>
      <path d="M880.14,174.31c.05.07.11.12.16.14-.03-.06-.09-.11-.16-.14Z" fill="#9f2d20"/>
      <path d="M866.13,176.36s-.02.06-.04.09c.05-.04.07-.08.04-.09Z" fill="#9f2d20"/>
      <path d="M872.47,178.16l-.06.09c.06.09.12.17.19.25l-.13-.34Z" fill="#9f2d20"/>
      <path d="M857.85,168.02s.02-.01.03-.02c.06-.2,0-.1-.03.02Z" fill="#9f2d20"/>
      <path d="M881.88,158.16c.45.73-1.3.17-.54,1.08-.02-.25,1.23-.42.54-1.08Z" fill="#9f2d20"/>
      <path d="M869.69,173.13c0,.07,0,.13-.02.2.03-.09.03-.15.02-.2Z" fill="#9f2d20"/>
      <path d="M881.34,159.24h0s.08.09.08.09c-.03-.04-.05-.06-.07-.09Z" fill="#9f2d20"/>
      <path d="M861.31,183.67c.03-.1.02-.2,0-.3-.03.05-.04.13,0,.3Z" fill="#9f2d20"/>
      <path d="M857.05,172.43c-.06.09-.1.19-.14.29.07-.11.1-.21.14-.29Z" fill="#9f2d20"/>
      <path d="M867.32,185.34c.15.07.18.18.41.13-.02-.03-.03-.05-.05-.08-.09.07-.2.08-.36-.05Z" fill="#9f2d20"/>
      <path d="M873.69,185.05s-.1-.04-.15-.07c-.06.02-.13.05-.19.08.11,0,.23,0,.34-.01Z" fill="#9f2d20"/>
      <path d="M867.77,167.29c-.18-.07-.33-.17-.48-.29.29.29-.23.82.48.29Z" fill="#9f2d20"/>
      <path d="M869.48,172.96c.13.05.19.1.21.17,0-.05,0-.1,0-.14-.08-.03-.16-.05-.21-.03Z" fill="#9f2d20"/>
      <path d="M868.35,181.03l.68.17c-.19-.08-.43-.14-.68-.17Z" fill="#9f2d20"/>
      <path d="M866.22,175.55h.18c-.06-.04-.12-.05-.18,0Z" fill="#9f2d20"/>
      <path d="M871.03,181.1c.14.18.29.29.44.34.02-.05.04-.09.05-.16-.16-.03-.33-.12-.49-.18Z" fill="#9f2d20"/>
      <path d="M867.29,167h0s0,0,0,0Z" fill="#9f2d20"/>
      <path d="M865.02,171.22c.29-.48-.48-.6-.78-.94.27-.8.66,0,1.1,0,.11-.47-.15-1.2.16-1.47.11.06.19.04.24.21-.02-.83,1.22-1.13,1.37-2.13.08.02.14.06.18.1-.31-.24-.54-.54-.67-.77.29-.22.31-.77.69-.44-.2.11-.11.28-.11.46l.21-.38c.66.4-.31.48-.02.91.46-.58.93-1.52,1.53-1.63.42.54-1.04.85-.09,1l-.87.22c1.11.57-.47.2.63.87,1.02-.38.88-.92,1.98-1.26.06-.45-.33-.46-.26-.92,1.22-1.34,1.88,1,2.63-.32.11-.54-.1-1.38.9-1.31v.83c.56-.18.62-.51.68-.77.03-.13.07-.25.18-.33.09-.07.31-.12.44-.03.08.28-.53.45-.35.49.43.16.43.05.41-.13-.01-.19-.02-.46.12-.49.04.22.08.45.1.68.06-.03.13-.07.22-.11.16-.07.39-.14.62-.08.12.02.23.07.34.14.09.05.23.19.36.39-.21.04-.47,0-.55.3.46.55.8,1.37.92,2.15.13.8.09,1.6-.03,2.27.21.14.42.29.63.46,0,.12-.25.24-.37.12-.21.52.37,0,.61.26.04.31-.33.4-.51.21.26.45.48,1.13.44,1.8,0,.68-.32,1.31-.81,1.55-.02-.08-.04-.15-.07-.24-.27.23-.11.55-.01.87.08.3.14.63-.31.72l.02-.17c-.64.55-1.26,1.08-2.01,1.48-.74.38-1.59.54-2.31.24-.02.46-.49.42-.9.43-.42,0-.82,0-.85.6-1.05-.58-.76-.75-2.09-1.27-.34-.11-.65.63-1.16.66l.12-.6c-.24.16-.5.31-.77.46-.04-.27-.08-.52-.11-.8h-.44c.14.1.25.39.17.55-.78.05-1.35-1.03-1.2-1.3l-.75-.14c-.25-.06-.48-.14-.74-.22.18-.17.43-.1.66-.12-.96.05.27-.57-.57-.55-.03.16-.28.24-.38.32,0-.49-.48-1.02-.88-1.42l.42-.14c-.21-.41-.43-.84-.66-1.28-.18-.47-.37-.99-.34-1.55-.2.39-.94.37-1.01-.02l.65-.14c-.4-.25-.24.38-.74-.12.11-.49.76-.25.95,0-.06-.17-.11-.36-.17-.54.2,0,.29.13.53.19-.19-.12-.02-.33.17-.52.17-.2.29-.39.02-.63l.19.03c.35-1.03.42-1.59.96-2.39-.43-.36-.09-.58-.22-1.13.69-.46,1.59-.64,2.35-1.17.44-.57-.07-.51.04-.95.29.4,1.14-.06.85.49.5-.29.83-.46,1.2-.66.36-.21.76-.46,1.46-.85-.21-.16-.43-.21-.38-.4.26-.15.69.05.7.3l-.06.07c.77-.58,1.88-.37,2.85-.08.98.26,1.83.61,2.55.12l-.08.05c.48-.13.99-.29,1.5-.38.64.2-.45.31-.02.71.41-.16.77-.19,1.09-.14.32.03.6.12.87.24.54.21.99.49,1.68.45.16.88.88,1.18,1.57,1.52.69.32,1.37.77,1.17,1.35l.26-.24c.42-.03-.03.32-.05.46.25-.14.17-.33.41-.32.63.63.56,1.72-.07,2.89-.6,1.15-1.67,2.37-2.62,3.63-.68.91,1.21,1.55-.32,2.31l-.31-.71c-.64,2.37-2.87,3.9-3.87,5.85-.02-.2-.15-.34,0-.49-.65,0-1.17,1.06-.95,1.37-.27.16-.28-.23-.55-.27-.47.01-.48,1.09-.92.79-.07-.05.01-.19.06-.26-.09.36-1.04.48-.6.87-.38,0-.64.18-.92.33-.29.12-.58.24-.87.14-.29.65-1.21-.15-1.31.69.01-.45-.3-.64-.67-.66-.37-.04-.83.03-1.11.22.2-.24-.35-.35-.1-.69-.5-.11-1.01-.05-1.05.42-.33-.69-.85-.59-1.33-.63-.47-.02-.94-.05-.84-.82-1.6-.33-3.02-1.11-3.99-2.18.4-.23.6.07.86.33.27.26.53.5.85.14-.27-.17-.56-.29-.82-.42-.25-.15-.49-.29-.73-.43-.42-.32-.81-.74-.87-1.37.02-.33.44.07.61.1-.72-.98-.24-2.12-.38-3.3.08.03.13.17.17.3.04-.22.27-.44-.12-.56l.04.25c-.34.09-.57-.21-.74-.61-.14-.38-.19-.84-.33-.93.44.46.64.17.86-.03.25-.2.5-.33.99.31,0-.17-.06-.43-.31-.55.19-.17.36-.14.51.23.25-.83-.23-.82.25-1.48.15.13.11.31.25.52-.07-.55-.05-1.14.57-1.53.05.11.22.17.06.31.8-.85.96-2.2,2.38-2.64.08.94.56.01.98.64.18-.18.34-.37.53-.54-.14-.07-.28-.13-.43-.19.58-.26.89-1.03,1.53-.99-.12.16-.24.3-.34.46.36-.2.73-.37,1.1-.56l-.76-.02c.51-.6-.4-.86.53-.98-.16.12.68-.19,1.13.14h0c.26-.33.56-.63,1.09-.56.17.21.06.83.17.97.2-.71,1.48-.41,1.84-1.11-.13.17-.1.56-.05.63l.23-.52c.32.14.37.22.33.53.92.07-.33-.95.79-.55-.09.04-.05.12-.23.19,1.09.21,2.18-.23,3.13.23.12.79-.88.02-.67.7.68.05,1.41,0,2.13.09.71.08,1.41.31,1.83.79l-.13-.21c.39-.37.54-.1.61.26.08.36.07.77.42.87-.15-.08-.59.18-.47.14.13.32.31.58.52.95.21.36.42.86.42,1.53l-.22-.21c-.32.39-.55,1.09-.97,1.4.13.29-.12.48.3.62-1.15.07-1.52.53-2.22,1.02-.65.46-1.57.83-2.3.12.19,0,.44-.21.3-.22-.42.06-.86.11-1.3.09,0,.47.11.32.34.71-.22.25-.68.37-1.05.27.73-.12.17-.72.02-1.04,0,.15-.14.27-.16.41-.38-1.04-.47.87-1.21-.1l.16-.19c-.39-.06-.88,0-1.18-.31.19-.52.49.05.75-.31-.23-.14-.59-.1-.92-.16-.32-.06-.62-.21-.55-.58.25.11.49.36.76.41.07-.81-.04-.71-.15-1.05v.03s-.02-.12-.02-.12l-1.51,1.82c.15.15.28.3.37.47l-.04-.23c.58-.47.94-.26,1.16,0,.23.3.34.58.89.95-.53-.36-.67-.26-.73-.19-.06.09-.08.22-.38.28-.11.2-.3.35-.47.32.25.06.14.15.07.19-.09.05-.11.04.11.36-.16-.09-.17.19-.51-.16-.06.3.29.18.48.34.08.43-.42.59-.87.6-.48.03-.86-.02-1.35.43-.1.04-.19.08-.26.12l.88.62c-.65-.53-1.28-.66-1.69-1.64.28-.39.73.24.73.23.24-.59.17-.94.03-1.5.16.13.31.04.55-.07.05-.38-.66-.42-.21-.88.18.16.46.37.64.59-.07-.45-.26-1.01-.17-1.55.36.05.31.5.47.73.05-.52.37-1.32.09-1.78-.13.06-.26.12-.38.19.1-.2.43.18.43.36.09.61-.51.48-.7.42l.07-.39c-.58-.13-.77.27-.77.76-.02.49.17,1.02.07,1.37-.25-.15-.5-.32-.74-.5.16.34.33.64.54.93-.23.13-.72.24-.79-.2-.49.59.26.55-.22,1.08-.07.06-.11.04-.15-.02l.3.6c-.18-.1-.57.18-.49-.23-.19.61.09,1.09.33,1.4.23.33.47.51.27.85l-.09-.07c.06.09.11.16.14.19l.46.46.16-.02c.66-.08.63-.27.63-.46-.02-.21,0-.44.42-.81.27.47.63.92,1.05,1.31,0-.21,0-.42-.02-.63.16-.02.48-.11.52.14.39-.64-.19-.2-.05-.7.45.09.89-.27,1.2-.6.32-.33.53-.64,1.01-.5-.27-.46-.69.49-.56-.39.52.13.61-.17.56-.52-.04-.36-.22-.69-.05-1.09.59.12.32,1.06.76.11-.49-.23-.51-.58-.57-1.05-.04-.45-.14-1-.46-1.22-.46.38-1.01-.51-1.98-.79l-2.14-.63,1.3,1.64c.11.14.23.28.36.39-.12.04.1.52.52,1.02.41.51,1.02,1.01,1.43,1.34l-.08.1c.5-.55,1.33-.06,2.06-.05-.13.42-.3.57-.75.63.23.07.46.14.69.18.22-.2.45-.26.9-.29l-.25.52c.99.11,1.9-.47,3.13-.33-.02-.26-.32-.56-.44-.88-.13-.32-.11-.64.35-.9.1.26.26.72-.01.88.09-.05.29-.3.51-.24-.1.19-.22.39-.34.57.56.07.17-.45.57-.51.11.39.38.17.43.48-.09.09-.41-.04-.52.16.49-.05,1.14-.07,1.47.09-.14-.18-.23-.48.07-.69.8-.53.53.24,1.15.06.03-.36.72-.59.31-1.03.2-.2.44-.05.64-.03.08-.29.44-.79.62-1.23.17-.46.2-.78-.21-.66l-.09.09s.01-.05.01-.08h0s0,0,0,0c.07-.83.33-1.53.46-2.36.13-.81.06-1.75-.46-2.42l.17-.09c-.67-.78-1.48-1.6-2.25-1.62-.21-.14-.32-.64-.11-.78-.7-.22-.83-.06-1.63-.72.77-.07-.11-.39.76.04-.77-.52-.91-.9-1.98-.62.45-.41-.53-.79-.98-.7l.55.47c-.48-.02-.88-.13-1.29-.23l.31-.63c-.89-.53-1.79-.23-2.54.05-.77.29-1.42.53-2.19-.04-.41.52,1.01.2.64.8-.79,0-1.81-.82-2.08-.74-1.23-.13-.83,1.17-2.01,1.25.22.19.51.74-.2,1.22-.75.18-1.27-.59-.85-.95.18-.09.29-.05.31.03.22-.17.52-.39.12-.52l-.02.26c-.46-.09-1.53.34-1.43-.11-.49.47-.09.46.38.4-1.12.11-1.52.66-2.59,1.01.22.03.5.19.35.27-1.53.57-.37.75-1.2,1.41-.7.07-.33-.84-1.02.07-.69.22-.51-.4-.4-.73-.28.49-.69.74-1.11.95-.42.19-.86.3-1.1.52.09-.19.17-.38.27-.55-.18.31-.36.54-.56.75l.57.08c-.29.19-.48.4-.62.27,0,.46.76.34.65,1.09-.45.19-.56,1.17-1.16.95.98-.99-.62-.23.01-1.26-.08.23-.25.46-.53.69-.09,0-.08-.11-.05-.21-.64.42-.55.69-.43.95.14.28.29.55-.01,1.19-.24-.33-.75.02-.78.28.25-.55.65,0,.7.56-.57.76-.1,1-.27,1.43l.28-.47c.29.27.1.66.14,1.27-.28,0-.1-.57-.25-.38.26.39.03.72-.2,1.13-.19.4-.43.89-.19,1.37-.18.49-.66.1-.76.56.32.58.24.92.23,1.28-.02.35-.06.76.36,1.28.3-.53.16-.49.95.05-.42-.5-.68-1.12-1-1.73.35.36.7.68,1.05.98-.15-.53-.7-1.04-.64-1.42.48.5.39.43.69.1-.25.44-.02.78.22,1.09.24.32.59.56.55,1.05l-1.05.54c.09.78.63,1.19,1.15,1.61.58.37,1.15.76,1.7,1.4l-.27-.51c.49-.21.79.66,1.35.8-.28.29-.09.6-.04.94.07-.13.32.06.63.2.32.12.68.19.94-.11.12.27.25.55.39.82.57.38,1.04.28,1.48.16.45-.15.88-.32,1.43-.07-.48.29-.01.74-.92.76.41.14.76.34.84.07.19.3,1.27-.24,1.57.19.21-.15.33-.55.78-.46.04.09-.03.19-.03.19.03-.19.74-.18.39-.66.27.36.65.5,1.06.57.41.08.86.06,1.29-.03.88-.09,1.66-.41,2.38-.03.42-.23.89-.47,1.35-.72.43-.26.84-.53,1.18-.77.02.13.1.17-.06.22,1.19-.33-.04-1.3,1.18-1.73.9.08-.3.69.16.62.47.45.77.16,1.05-.25.29-.41.55-.92,1.12-.97l-.09.2c.79-.18.72-1.5,1.43-2.22,0,0,.06.11.15.13-.06-.96.57-2.12.99-3.01.23.54-.05.52.48.67.2-.4-.74-.39-.35-1.17.39-.07.95-.44,1.45-.21l-.45.7c.83.06.6-.9.94-1.2l.23.22c.62-1.14-.04-1.56.7-2.7h-.27c-.31-1.02.69-.32.54-1.25l.81.17c.08-.54.12-1.94.24-2.84.41.67.25,1.83.25,2.58.25-.45.7-1.66.4-2.07,0,.23.09.55-.11.7-.33-.84-.34-1.68-.16-2.68.73.22.98-.48.99-1.42.04-.94-.29-1.98.04-2.67-.76-.99-1.4-1.84-2.14-2.66-.73-.81-1.57-1.56-2.61-2.03.17,1.42-.6-.26-1,.91-.47-.13-.63-.22-.65-.31-.36-.41-.75-.79-1.15-1.2-.24-.45.54-.1.59-.37-1.04-.46-.29-.64-.93-1.18.03.47-.55.47-1.14.18.25.25.5.5.74.77-1.63.26-1.09-1.34-2.78-.97l.55-.3c-.83.06-3.05-.35-3.82.68-.14-.14-.33-.47.02-.56-.97-.08-2.04.28-3,.61-.97.35-1.85.7-2.65.61l.06-.33c-.33.19-.44.72-.96.57-.02-.12.05-.33-.12-.29-.16.15-.73.83-1.24.85l.26-.46c-.98.19-1.58.72-2.05,1.32-.24.29-.44.61-.65.92-.22.3-.44.6-.71.9-.27-.34-.77-.34-1.27-.14-.49.21-1.02.56-1.33.85l-.08-.1c-1.7,1.88-1.72,3.94-1.8,6.07-.61.56-.85,1.78-.76,3.11.08,1.34.5,2.74.84,3.92-.02-.4.63-.25.9.05.13.56,1.28.84.61,1.25l-.11-.16c-.19.39-.06.79.2,1.17.26.37.69.68,1.01,1l.79-.71c.34,1.28,1.72,1.96,2.92,2.27,1.23.31,2.3.4,2.72,1.17.55-.17,1.15-.05,1.66-.28l-.08.56c1.37.27,2.11.35,3.84.03l-.31.45c1.04-.11.99-1.78,1.79-2.02l.48.75c.41-.12.84-.24,1.27-.33.43-.11.87-.26,1.3-.41.42-.18.83-.42,1.2-.7.36-.31.66-.7.88-1.13.06.11.19.32-.03.55.19-.13.45-.33.72-.57.28-.23.58-.49.79-.79.46-.57.61-1.15.03-1.32.31.19.63-.2.77-.8.18-.59.16-1.35.14-1.84l.49.3c-.48-.99-.64-1.03-.69-2.09.1-.23.48-.17.28.15.37-.81-.44-.68-.14-1.65l.36.37c.03-.85-.15-.79-.61-1.21-.25-.48-.06-1.53.4-1.76-.33-.05-.8-.4-.8-.88.17-.11.33.02.41.1,0-1.46-1.22-1.7-1.07-2.75.16-.09.22-.19.24-.28.44.99.68,1.85.61,1.78.49-.15.27-1.06,1.18-.6-.3-.3-.78-.65-1.18-1.03-.43-.38-.75-.76-.9-1.27.02-.07.04-.13.09-.21l.1.06c-.06-.22-.24-.41-.46-.58-.17-.38-.29-.64-.57-.93.09-.21-.16-.54-.54-.82-.38-.28-.88-.48-1.21-.61-.16.53-.88.22-.32.88-.08-.07.13-.04.5.12.09.02.18.07.25.07-.02,0-.04.01-.06.02.35.18.77.48,1.18.92-.54-.16-.97-.25-1.38-.83-.43.18-.82.43-1.01.56-.08-.2-.21-.37-.38-.54-.61-.64-1.75-.77-2.03-1.07-.99.44-1.47.76-2.07,1.15-.57.39-1.05.85-1.19,1.5-.27.27-.49-.11-.68-.21.14-.18.37-.26.41-.45-.54.53-1.89.98-1.71,1.73-.95.11.15-.84-.91-.16l.05-.28c-1.38.06-2.07,1.02-2.69,1.97-.64.98-1.18,1.86-2.7,2.4.21-.09.3-.13.42-.07-1.39.96-2.25,2.58-2.65,4.28-.39,1.72-.35,3.46-.08,5.35.27,1.05.79.91,1.43,1.16-.11.18-.22.37-.32.57.43.11.83.2,1.24.22.69.23.96.83,1.44,1.41.45.57,1.12,1.09,2.12.8l-.13-.44c.6.24,1.95.04,1.83.48.07-.07.21-.42.46-.2l.02.32c.53-.2,1.03-.43,1.49-.7.6-.02.65.27.75.55.1.26.28.56,1.28.15.33-.24.73-.71.9-1.17.18-.45.19-.79.02-.79-.23.17-.68.29-.87.04l.34-.48c-.27-.38-.51-.8-.84-1.08-.34-.29-.72-.48-1.16-.58-.02.12-.04.25-.07.38l-.16.37c-.12-.12-.22-.22-.33-.35l.41-.2c-.41-.3-.36.11-.51.41-.11-.22-.23-.36-.35-.41-.12.31-.27.66-.48.97-.1-.36.2-.74-.22-.91-.28.43.36.79-.16,1.1-.36-.42-.23-.77-.64-.42-.04-.24.06-.39.2-.49-.34.28-.88.03-1.15.47-.23-.55-1.21-.22-.85-1.03-.16.17-.81.4-1.11.26.5-.31.27-.48.02-.65-.22-.2-.44-.43,0-.8-.89.51-.97-.48-1.6-.91.08.02.25.03.22.1-.02-.35.24-.5.4-.72-.79.07-1.02-.51-1.44-.95.4-.23.62-.1.83.04.22.14.43.29.8.25-.66,0-.53-.83-1.06-.79.56-.27.3-.28.98-.27-.9-.37-.06-.37-.48-.9.69-.33.88.27.91-.42.41-.09.43.53.45.53ZM877.12,163.95s0,0,0,0c-.08-.12-.14-.21-.19-.26.04.05.1.13.2.26ZM877.74,165.32c-.05-.18-.12-.4-.23-.62.16-.13.36-.16.42,0-.15-.03-.12.36-.19.63ZM878.65,159.78c.41.21.45.42.42.54-.16-.14-.36-.29-.64-.44-.02.01-.06.02-.08.03.09-.07.19-.12.3-.14Z" fill="#9f2d20"/>
      <path d="M877.63,160.02c-.06-.01-.09,0-.16-.04.05.08.1.15.15.22.07-.03.14-.06.2-.09-.06-.03-.13-.07-.19-.09Z" fill="#9f2d20"/>
      <path d="M882.72,170.72l.03-.03s-.07.04-.11.04c.04-.01.05,0,.08-.01Z" fill="#9f2d20"/>
      <path d="M867.75,175.73l-.03.14.14-.1s-.08-.02-.11-.04Z" fill="#9f2d20"/>
      <path d="M874.32,172.1c0-.05-.01-.11-.05-.17,0,.04.02.1.05.17Z" fill="#9f2d20"/>
      <path d="M871.82,170.21v-.09s-1.54,1.83-1.54,1.83c.07.09.14.17.19.26-.06-.14-.14-.22-.18-.28l1.5-1.81s.02.06.03.08Z" fill="#9f2d20"/>
      <path d="M871.31,173.27c.1-.01.17-.03.24-.04h0s-.24.04-.24.04Z" fill="#9f2d20"/>
      <path d="M860.76,173.16s0,.06,0,.09c.04.22.04.08,0-.09Z" fill="#9f2d20"/>
      <path d="M869.45,164.39c-.11.14-.23.28-.35.38.25-.03.43-.07.35-.38Z" fill="#9f2d20"/>
      <path d="M868.28,181s0,0,0,0l.08.02-.07-.03Z" fill="#9f2d20"/>
      <path d="M868.49,164.94c.26.03.45-.04.61-.17-.2.02-.45.02-.61.17Z" fill="#9f2d20"/>
      <path d="M870.64,171.16l.08-.08s-.05-.04-.07-.06v.14Z" fill="#9f2d20"/>
      <path d="M870.66,171.02s0-.1.02-.14c-.04.05-.06.09-.02.14Z" fill="#9f2d20"/>
      <path d="M870.74,170.57l-.06.3c.06-.07.15-.15.06-.3Z" fill="#9f2d20"/>
      <path d="M869.49,173.98l.2.03s-.11-.03-.2-.03Z" fill="#9f2d20"/>
      <path d="M869.66,174.88c0-.23.34-.58.2-.85l-.16-.02c.3.1-.43.71-.04.87Z" fill="#9f2d20"/>
      <path d="M872.72,176.11c-.35.27-.73.48-1.12.63.29.09.73.17.21.53.92-.17.78-.27.6-.36-.19-.12-.36-.25.31-.79Z" fill="#9f2d20"/>
      <path d="M873.76,171.94c.4.72.3-.13.41-.15-.43-.41-.52-.46-.41.15Z" fill="#9f2d20"/>
      <path d="M880.32,163.15l.31-.41c-.5-.19-.1.17-.31.41Z" fill="#9f2d20"/>
      <path d="M875.33,164.39c.12.11.23.24.33.36l.24-.44c-.19.03-.38.04-.57.08Z" fill="#9f2d20"/>
      <polygon points="872.73 160.7 872.94 160.61 872.14 160.85 872.73 160.7" fill="#9f2d20"/>
      <path d="M872.67,185.82l-.28-.58c-.3.19-.26.9.28.58Z" fill="#9f2d20"/>
      <path d="M885.23,173.12c.37,0,.79-.33.67-.75-.23.32-.64.54-.67.75Z" fill="#9f2d20"/>
      <path d="M861.7,178.56l-.47-.09c.26.11.5.24.76.32-.1-.07-.2-.15-.29-.24Z" fill="#9f2d20"/>
    </g>
    <g>
      <path d="M905.9,164.64c-.13-.16-.54-.18-.52.08.2.11.41.2.62.29-.04-.12-.07-.24-.1-.37Z" fill="#9f2d20"/>
      <path d="M904.63,166.35c.38.32,1.03.45,1.56.1-.68-.09-.44-.2-1.24-.42-.11-.28.18-.5.43-.45-.17-.1.15-.37-.24-.56-.56.28-.58.88-.07,1.27-.13.13-.31.06-.44.06Z" fill="#9f2d20"/>
      <path d="M897.87,164.21l.03-.22c-.03.07-.04.14-.03.22Z" fill="#9f2d20"/>
      <path d="M913.63,169.12c-.1.14-.1.23-.07.28.08-.14.13-.27.07-.28Z" fill="#9f2d20"/>
      <path d="M916.1,165.73c-.04.1-.07.18-.1.26.08-.09.14-.19.1-.26Z" fill="#9f2d20"/>
      <path d="M897.87,164.21l-.06.58c.22-.02.08-.31.06-.58Z" fill="#9f2d20"/>
      <path d="M905.86,166.64c0,.06.01.13.04.2,0-.04.02-.09.03-.13-.02-.03-.04-.05-.07-.08Z" fill="#9f2d20"/>
      <path d="M900.62,155.45l.17-.09c.01-.09.02-.2.02-.31l-.19.4Z" fill="#9f2d20"/>
      <path d="M908.35,156c-.13-.14-.53.26-.73.42.21-.12.39-.13.54-.06.07-.08.14-.19.2-.35Z" fill="#9f2d20"/>
      <path d="M908.4,166.84v.21c-.01-.06,0-.15,0-.21Z" fill="#9f2d20"/>
      <path d="M897.08,159.9c-.08,0-.16,0-.21.03.07.02.14,0,.21-.03Z" fill="#9f2d20"/>
      <path d="M906.04,167.54s-.07,0-.1,0c.06.03.1.04.1,0Z" fill="#9f2d20"/>
      <path d="M903.77,175.14l-.04-.1c-.11,0-.21,0-.32,0l.35.1Z" fill="#9f2d20"/>
      <path d="M913.35,158.05s.02.02.03.03c.23.08.11.01-.03-.03Z" fill="#9f2d20"/>
      <path d="M917.77,154.44c.06.51-.29.3-.59.18-.32-.12-.57-.15-.43.47.05-.11.39-.04.67-.03.28,0,.54-.07.34-.62Z" fill="#9f2d20"/>
      <path d="M905.97,166.63s.05-.07.08-.12c-.05.05-.08.08-.08.12Z" fill="#9f2d20"/>
      <path d="M916.76,155.08h0s.03.13.03.13c-.01-.05-.02-.08-.02-.13Z" fill="#9f2d20"/>
      <path d="M897.99,162.84c.1.01.2-.02.3-.05-.05-.02-.13-.02-.3.05Z" fill="#9f2d20"/>
      <path d="M908.65,157.59c-.1-.04-.2-.06-.3-.09.12.06.21.07.3.09Z" fill="#9f2d20"/>
      <path d="M897.67,169.13c-.03.15-.1.21-.01.41.03-.02.05-.04.06-.07-.08-.07-.13-.16-.05-.34Z" fill="#9f2d20"/>
      <path d="M899.53,175.44c0-.06-.02-.13-.02-.19-.06-.05-.12-.11-.18-.17.06.12.13.24.2.36Z" fill="#9f2d20"/>
      <path d="M912.71,162.34c0-.18.01-.36.04-.54-.11.39-.69.29-.04.54Z" fill="#9f2d20"/>
      <path d="M906.1,166.85c-.09-.11-.13-.17-.12-.22l-.04.09c.06.06.11.12.16.14Z" fill="#9f2d20"/>
      <path d="M902.11,169.02c-.01.24-.01.48,0,.73.03-.21.02-.48,0-.73Z" fill="#9f2d20"/>
      <path d="M895.04,172.4l.12.13c-.01-.06-.05-.11-.12-.13Z" fill="#9f2d20"/>
      <path d="M902.62,171.89c-.19.08-.28.15-.34.22.04,0,.08-.02.14-.04.06-.08.13-.13.2-.18Z" fill="#9f2d20"/>
      <path d="M912.75,161.79h0s0,0,0,0Z" fill="#9f2d20"/>
      <path d="M908.45,162.6c.52-.07.15-.75.22-1.19.75-.3.4.52.66.87.41-.22.82-.86,1.2-.8.01.13.08.18-.02.32.28-.24.68-.22,1.06-.13.4.05.76.17,1.19-.08.02.08.01.15,0,.2.06-.38.18-.74.31-.98.3.13.78-.14.66.34-.18-.1-.28.07-.43.16l.4-.04c-.08.75-.52.01-.74.48.64,0,1.56,0,1.81.47-.41.55-.94-.48-.88.35-.09-.21-.26-.38-.4-.58-.15,1.18-.27-.27-.5.95.48.54.84.16,1.11.81.41-.07.42-.37.84-.42.63.36.34.81,0,1.1-.3.31-.65.48-.12.74.44.11,1.38.16.9.86-.26-.09-.51-.16-.77-.23-.03.36.21.5.42.65.21.15.35.33,0,.73-.26-.24-.11-.71-.23-.6-.72.42.37.48.22.94l-.68-.12c-.15.85-.26,2.06-.95,3.01-.11-.18-.15-.46-.47-.4-.62,1.27-2.33,1.91-3.76,2.17-.07.26-.15.51-.24.77-.12.05-.33-.14-.25-.3-.6.04.13.35-.03.68-.29.17-.54-.14-.41-.38-.7.86-2.45,2.05-3.72,1.7l.17-.22c-.9-.02-.69,1.41-1.62,1.06l.13-.14c-.98.08-1.97.33-2.94.48-.98.15-1.89.19-2.46-.26-.1.43-.49.33-.76.23-.28-.1-.41-.18-.7.34-.17-.4-.1-.63-.09-.84.02-.22.03-.39-.11-.93-.12-.26-.88-.02-1.22-.37l.54-.3c-.29-.07-.56-.16-.85-.25.17-.21.35-.4.53-.6-.11-.1-.2-.21-.3-.32.02.16-.13.43-.3.48-.53-.54-.12-1.68.19-1.75-.29-.43-.55-.9-.78-1.39.24,0,.37.25.56.42-.74-.71.61-.21-.02-.87-.13.11-.37-.03-.5-.04.33-.4.35-1.2.26-1.84l.41.16c.21-1.04.23-2.28.77-3.42-.36.32-1-.06-.9-.45l.65.15c-.25-.41-.39.26-.61-.43.32-.41.81.06.87.39l.08-.61c.18.07.21.24.41.39-.13-.2.14-.33.39-.47.24-.14.45-.3.28-.64l.17.09c.75-.96.99-1.53,1.78-2.25-.36-.45.06-.61.05-1.18.78-.37,1.76-.5,2.6-.99.48-.58-.05-.53.09-.96.28.43,1.16-.04.85.52,1.06-.55,1.33-.71,2.69-1.54-.22-.16-.43-.19-.38-.38.25-.16.68.02.71.28l-.06.07c.75-.58,1.84-.44,2.81-.2.99.23,1.82.48,2.45-.02l-.07.05c.44-.17.88-.32,1.33-.43.54.19-.39.32-.04.7.69-.31,1.15-.11,1.44.12.3.24.39.44.86.56-.42.7-.18,1.01.14,1.74.11.34.33.69.35,1.04.02.36.01.69-.23.96l.36-.07c.34.28-.21.35-.3.54.28-.02.33-.3.52-.12.2,1.24-.24,2.59-1,3.71-.78,1.13-1.83,2.04-2.85,2.86-.73.6.89,1.76-.68,1.96l-.14-.74c-.5.97-1.43,1.54-2.35,2.01-.46.25-.96.41-1.42.66-.48.2-.94.43-1.38.75.08-.18.02-.38.21-.43-.53-.32-1.51.33-1.46.74-.31.02-.14-.33-.34-.5-.19-.11-.42.07-.53.21-.04.13-.13.24-.12,0,0-.08.05-.15.06-.19-.08.24-.17-.09-.37.45-.05-.16-.15-.16-.27-.21-.11-.04-.2-.14-.07-.3-.15.04-.22,0-.25-.04-.02-.02-.05-.26-.06-.4-.03-.31-.08-.58-.52-.55.89-.15.46-1.47.02-1.91.29.13.25-.43.64-.28-.05-.51-.21-.97-.67-.89.54-.48.36-.91.25-1.35-.12-.42-.15-.84.58-.86-.07-1.44.42-2.67,1.51-3.66.24.39-.06.61-.29.86-.25.24-.43.5-.07.8.46-1,.8-2.15,2.12-2.45.36,0-.05.43-.08.62.5-.41,1.11-.57,1.67-.63.57-.06,1.09-.1,1.64-.26-.02.08-.14.16-.25.22.21-.01.43.19.49-.21-.07.02-.14.04-.22.07-.13-.31.12-.62.46-.81.34-.22.77-.33.84-.47-.39.49-.11.66.09.85.2.22.3.42-.25.99.14-.03.37-.12.47-.38.14.17.1.33-.21.51.66.14.75-.33,1.24.11-.14.14-.28.1-.49.24.46-.1,1.04-.07,1.21.52-.12.03-.22.17-.3.03.27.36.66.62.96,1.01.3.37.5.91.22,1.44-.8-.43-.34.3-1.09.13.03.17.03.35.03.54.14-.01.27-.03.42-.06-.18.43,0,1.15-.52,1.39.02-.17,0-.35,0-.51-.15.3-.35.59-.56.87.2-.08.42-.16.62-.26-.11.71.77.58.02,1.06.09-.17-.5.45-1.04.28h0c-.11.37-.26.78-.78.86-.22-.15-.32-.77-.47-.87.05.71-1.18.77-1.34,1.5.08-.19-.04-.56-.11-.62l-.09.56c-.33-.06-.39-.14-.43-.45-.85.11.51.87-.61.69.07-.06.02-.12.17-.23-1.02,0-1.98.58-2.87.16-.11-.77.77-.07.56-.74-.57,0-1.16.09-1.76-.03-.59-.12-1.18-.47-1.47-1.03.02.08.05.16.07.24-.47.26-.53-.03-.52-.4,0-.37.08-.8-.29-1,.15.12.62-.07.5-.05-.21-.84-1-1.67-1.75-2.96l.31.09c.07-.6-.24-1.43-.16-1.98-.29-.13-.27-.46-.65-.23.71-.92.61-1.56.63-2.33.03-.72.39-1.63,1.37-1.6-.13.12-.14.43-.04.35.22-.32.49-.61.8-.88-.31-.36-.27-.16-.7-.32-.01-.32.24-.72.58-.87-.45.56.34.65.63.82-.09-.12-.07-.29-.14-.42.9.58-.18-.97.96-.64l-.02.25c.33-.17.68-.53,1.1-.42.12.54-.41.22-.43.67.25-.02.52-.26.82-.39.29-.14.61-.17.77.16-.27.06-.59-.02-.84.1.38.7.42.57.72.78l-.03-.02c.21.18.39.38.54.59-.02-.09-.05-.16-.07-.24.6-.46.96-.29,1.23-.04.28.26.49.57,1.13.73-1.24-.26-.49.17-1.04.44-.02.26-.05.6-.24.61.3.02.27.21.26.37,0,.17,0,.31.4.46-.18.05.05.37-.45.36.21.41.33-.14.57-.15.39.33.21.84-.01,1.32-.22.5-.47,1-.2,1.74.04,1.18.57,1.62.49,2.78-.22.12-.35-.03-.43-.19-.08-.16-.12-.34-.12-.34-.47.43-.57.76-.67,1.28-.08-.18-.26-.17-.5-.23-.14.22.36.7-.16.69-.05-.22-.18-.55-.26-.77-.03.26-.04.66-.4.85l.64.33-.05-.04c.08-.12.18-.15.3-.15l-.88-.46c.06-.15.13-.28.12-.41-.02.04-.06.07-.11.12l1.11.57c-.36-.25-.74-.6-1.17-.58-.02.13-.03.27-.03.4-.11-.18.38-.29.52-.21.56.16.16.62.03.77-.1-.07-.2-.14-.3-.22-.22.25-.23.47-.12.65l-.07-.04c.26.03.57-.18.74-.44.18-.26.25-.54.42-.69.14.24.28.52.37.8.07-.36.05-.71,0-1.04.26,0,.74.12.6.54.7-.31.03-.59.67-.85.09-.02.12.02.12.08,0-.22,0-.44,0-.64.12.17.59.1.34.42.82-.83-.03-1.76.68-1.95l.02.1c.14-1.47-.53-.33-.96-1.51.54-.11,1.08-.24,1.62-.41l-.58-.24c.05-.14.13-.44.36-.36-.36-.61-.27.07-.64-.29.31-.33.26-.84.2-1.27-.05-.43-.1-.78.35-.99-.51-.14-.19.78-.68.09.47-.24.36-.48.14-.7-.22-.23-.53-.43-.5-.84.57-.11.67.67.72-.22-.51.03-.64-.27-.77-.66-.12-.39-.26-.85-.57-1.01-.26.27-.55.09-.94-.14-.38-.24-.89-.55-1.42-.58.07-.1-.36-.36-.98-.55-.62-.19-1.41-.24-1.94-.27v-.13c-.06.75-1.04.85-1.59,1.33-.17-.4-.15-.63.17-.97-.23.09-.45.2-.66.32-.04.28-.17.5-.49.82-.06-.19-.11-.37-.16-.55-.4.29-.69.72-.97,1.17-.29.44-.57.89-1.05,1.32.21.16.62.14.95.27.33.12.53.35.44.85-.26-.1-.71-.28-.65-.59-.03.1.03.41-.15.53-.08-.2-.15-.42-.2-.63-.43.37.22.42.01.76-.36-.16-.37.19-.64.02,0-.13.28-.3.22-.51-.29.42-.67.95-1.01,1.08.23,0,.52.12.5.48-.1.91-.53.25-.77.79.25.25-.03.85.57.85.01.26-.26.33-.41.45.26.47.44,2.11.95,1.48l.02-.12s.02.04.04.06h0s0,0,0,0c.89,1.22.5,2.83,1.3,4.04l-.18.08c.53.67,1.04,1.67,1.79,1.86.16.19.16.69-.08.78.65.38.79.26,1.54,1.05-.82-.06.07.42-.79-.17.73.65.93,1.09,2.07.85-.49.41.6.81,1.09.67-.22-.14-.42-.29-.62-.45.51.01.93.09,1.37.14l-.26.66c1.02.44,1.93-.02,2.63-.45.73-.44,1.29-.84,2.21-.48.28-.61-1.06.06-.84-.61.77-.17,2,.28,2.26.12.63-.14.75-.52.84-.9.09-.38.15-.75.7-1.06-.29-.07-.76-.47-.33-1.2.58-.48,1.43-.12,1.21.45-.12.18-.26.19-.31.13-.13.26-.33.61.1.54l-.09-.25c.51-.11,1.27-1.19,1.4-.72.23-.75-.14-.45-.55-.12.5-.37.75-.81.96-1.26.2-.47.37-.92.62-1.59-.18.19-.49.31-.44.11.35-.92.19-1.17.04-1.29-.17-.13-.35-.19-.46-.77.25-.72.93.13.37-1.06.02-.83.55-.36.84-.06-.38-.58-.52-1.12-.63-1.66-.11-.53-.2-1.05-.4-1.38.19.15.39.3.56.48-.33-.3-.52-.58-.75-.85-.03.2-.07.4-.13.6-.17-.36-.4-.61-.25-.74-.49-.08-.39.72-1.2.5-.16-.54-1.22-.67-1.02-1.28.56.51.61.37.68.16.06-.2.12-.47.69-.06-.26-.12-.5-.32-.79-.61-.01-.09.12-.08.23-.04-.52-.7-.81-.6-1.08-.48-.28.15-.58.31-1.28.07.31-.27-.13-.76-.4-.76.62.22.1.63-.48.78-.85-.48-1.02.04-1.47-.06l.51.19c-.22.33-.64.22-1.22.34-.05-.28.54-.18.33-.31-.34.3-.69.14-1.11,0-.42-.16-.91-.29-1.32,0-.48-.13-.19-.64-.61-.7-.92.74-1.33-.12-2.26.72.51.28.48.16,0,.92.48-.38.99-.73,1.54-1.03-.31.33-.57.72-.82,1.06.48-.2.93-.7,1.27-.71-.4.54-.36.4,0,.7-.45-.24-.75,0-1.02.26-.27.28-.52.57-.98.56l-.57-1.04c-.72.11-1.16.59-1.54,1.15-.4.55-.73,1.18-1.39,1.79.17-.12.35-.21.52-.31.21.46-.63.89-.73,1.47-.31-.24-.62-.01-.95.1.14.05,0,.34-.1.68-.07.34-.1.73.25.92-.24.18-.48.37-.71.57-.52,1.34.8,1.7.6,2.86-.41-.38-.72.18-.98-.69-.03.43-.11.82.16.82-.25.26.54,1.14.22,1.52.19.16.6.17.62.61-.07.06-.19.02-.19.02.19-.02.35.64.73.21-.53.67-.35,1.51-.11,2.28.14.47.29.93.41,1.35.14.45.27.86.32,1.31.43.39,1.01.68,1.59.83.59.15,1.19.17,1.69.15-.07.12-.01.2-.21.15.35.1.6.06.77-.03.14-.09.22-.24.3-.39.16-.31.32-.58.94-.51.73.49-.56.48-.14.63.2.62.57.49,1,.28.43-.21.9-.5,1.42-.29l-.17.14c.77.21,1.36-.95,2.33-1.31,0,0,0,.13.08.18.2-.43.55-.86.94-1.28.4-.39.83-.77,1.17-1.13.04.59-.22.48.22.8.33-.31-.56-.62.06-1.23.4.09,1.03-.12,1.45.24-.22.19-.42.39-.65.55.8.33.85-.72,1.28-.9l.16.27c.49-.46.55-.89.66-1.27.1-.39.23-.74.68-1.27l-.27-.04c-.14-1.07.76-.2.74-1.15l.77.27c.05-.27.15-.73.26-1.25.07-.53.16-1.07.29-1.49.29.67.09,1.8-.03,2.54.33-.4.84-1.57.62-1.97-.03.21.02.53-.18.66-.13-.43-.16-.83-.14-1.26,0-.43.1-.86.29-1.31.71.34.98-.28,1.24-1.03.22-.77.36-1.67.96-2.03-.44-1.93.1-3.9-1.04-6.17-.68,1.31-.36-.64-1.37.11-.34-.41-.46-.57-.42-.66-.14-.58-.4-1.18-.77-1.74-.17-.56.65.14.78-.09-.55-.5-.62-.68-.61-.86,0-.18.08-.37-.3-.76-.03.48-.74.29-1.41-.11.28.3.55.61.79.94-.98-.11-1.22-.41-1.53-.78-.29-.34-.66-.71-1.55-.5.19-.11.39-.21.6-.3-.95.01-3.23-.26-3.89.82-.14-.13-.35-.45-.01-.56-.94-.01-1.95.37-2.86.76-.92.38-1.74.76-2.51.68l.05-.33c-.31.18-.4.71-.9.57-.02-.12.03-.33-.12-.29-.15.15-.68.8-1.16.82l.23-.46c-1.86.35-2.2,1.89-3.3,2.83-.46-.76-1.83-.18-2.5.19l-.06-.11c-1.81,1.32-2.28,3.11-3.06,4.93-.75.25-1.37,1.17-1.87,2.26-.51,1.09-.81,2.34-1.24,3.34.2-.29.67.16.71.52-.25.46.5,1.34-.3,1.22l.03-.17c-.82.32-.63,1.38-.57,2.17l1.06.03c-.67,1.06-.27,2.42.28,3.49.56,1.09,1.19,1.93.88,2.75.46.29.79.83,1.35,1.11l-.46.33c.45.69.95,1.24,1.62,1.7.67.46,1.58.81,2.65.89-.16.11-.34.22-.52.32,1.33.26,1.63-1.46,2.44-1.52l.32.82c.83-.08,1.56-.02,2.3-.04.73-.03,1.46-.16,2.1-.68,0,.13,0,.38-.22.45.68-.09,2.78-.01,2.25-1.09.2.74,1.52-.3,2.17-.87l.05.57c.44-.89.39-1.07,1.2-1.58.23,0,.34.35.01.32.81.01.35-.69,1.29-.77l-.17.46c.73-.26.6-.43.8-.98.33-.4,1.35-.54,1.71-.18-.06-.32.09-.88.55-1.01.16.12.08.32.04.41,1.34-.43,1.21-1.65,2.24-1.88.14.12.25.14.35.12-.8.79-1.55,1.26-1.5,1.18.3.43,1.09-.07.94.94.4-.8.76-2.24,1.48-2.76.07,0,.13,0,.21.02l-.02.11c.18-.12.26-.31.29-.5.24-.18.41-.29.57-.52.42.15.8-.81,1.02-1.25-.52-.22-.16-.71-.84-.42.07-.05.02.11-.1.38-.02.07-.05.14-.04.2,0-.02-.02-.03-.03-.05-.13.27-.33.6-.57.97-.04-.47-.04-.87.46-1.15-.2-.36-.41-.75-.53-.95.96-.15,1.77-1.2,2.26-1.28.03-.78.13-1.67-.05-2.51-.14-.83-.54-1.55-1.16-1.83-.24-.34.14-.52.25-.73.18.19.27.47.44.57-.25-.38-.47-.97-.81-1.41-.3-.46-.71-.72-1.05-.59-.14-.5.05-.49.21-.48.14.02.25,0-.3-.51h.31c-.27-.78-.83-1.26-1.4-1.53-.58-.28-1.21-.34-1.81-.37-1.23-.02-2.23.09-3.58-.77.19.11.28.16.31.28-3.18-.91-6.98,1.07-8.67,4.49-.43.97.07,1.15.39,1.7l-.61.18c.23.33.46.63.71.91.57,1.21-1.34,2.2-.28,3.66l.39-.22c-.04.55.36,1.72-.12,1.66.08.05.43.15.24.38l-.31.04.63,1.31c-.16,1.06-1.26-.08-1.22,1.44.16.56,1.03,1.55,1.22,1.32,0-.23.16-.6.47-.63l.2.51c.94.03,1.91.36,2.48-.95l-.63-.84.43-.32.08.74c.4-.45,0-.69-.28-.97.23-.09.39-.22.47-.4l-.95-.81c.36-.13.75.34.91-.26-.44-.38-.79.44-1.11-.21.39-.45.75-.35.35-.82.23-.09.39,0,.51.2-.32-.42-.2-1.16-.71-1.35.49-.48-.24-1.48.65-1.5-.22-.12-.74-.73-.81-1.13.55.34.54-.06.54-.48,0-.43.02-.85.59-.78-.48-.21-.58-.61-.59-.98,0-.38.07-.68-.06-1.03.06.06.17.17.11.19.18-.24.48-.17.7-.15-.31-.22-.47-.46-.51-.71-.02-.23-.02-.53-.01-.81.43.17.48.41.54.64.04.23.12.46.39.71-.45-.46.11-.85-.24-1.24.53.26.38.07.78.59-.31-.93.22-.25.33-.92.67.36.34.85.85.46.31.27-.14.66-.11.68ZM913.87,170.54s0,0,0,0c.09-.12.16-.22.2-.28-.04.06-.1.14-.2.29ZM912.87,171.54c.15-.09.32-.23.47-.4.17.1.27.29.16.38-.03-.15-.35,0-.63.01ZM918.13,171.32c-.1.31-.25.34-.37.32.07-.13.15-.29.24-.5-.01-.02-.03-.05-.04-.07.08.08.14.16.18.25Z" fill="#9f2d20"/>
      <path d="M917.77,170.46s0-.08.02-.13c-.07.03-.14.06-.19.1.04.06.07.12.1.18.02-.05.05-.1.07-.15Z" fill="#9f2d20"/>
      <path d="M897.91,163.94v.04s.03-.07.06-.09c-.02.03-.04.03-.06.05Z" fill="#9f2d20"/>
      <polygon points="895.91 173.63 895.78 173.7 895.95 173.74 895.91 173.63" fill="#9f2d20"/>
      <path d="M902.53,157.37s.07.08.14.1c-.02-.03-.07-.07-.14-.1Z" fill="#9f2d20"/>
      <path d="M905.47,157.47c.1.12.2.23.28.35-.1-.18-.2-.28-.28-.35Z" fill="#9f2d20"/>
      <path d="M907.01,159.03c.1-.03.16-.07.22-.1h0s-.22.1-.22.1Z" fill="#9f2d20"/>
      <path d="M908.52,161.36s-.06,0-.08.02c-.19.08-.07.06.08-.02Z" fill="#9f2d20"/>
      <path d="M910.91,168.71c.05-.16.09-.33.15-.46-.2.11-.34.2-.15.46Z" fill="#9f2d20"/>
      <path d="M902.11,168.94s0,0,0,0v.08s0-.08,0-.08Z" fill="#9f2d20"/>
      <path d="M911.5,167.89c-.24.06-.35.21-.43.37.17-.08.36-.19.43-.37Z" fill="#9f2d20"/>
      <path d="M906.59,167.01l-.02-.1s-.06.03-.09.03l.11.07Z" fill="#9f2d20"/>
      <path d="M906.48,166.94l-.11-.07s.05.08.11.07Z" fill="#9f2d20"/>
      <path d="M906.15,166.71l.22.16c-.03-.08-.05-.17-.22-.16Z" fill="#9f2d20"/>
      <path d="M906.46,166.09l-.17-.12s.09.07.17.12Z" fill="#9f2d20"/>
      <path d="M906.79,165.09c-.07.12-.23.25-.38.4-.14.12-.25.23-.25.38l.14.09c-.11-.12.07-.21.24-.35.18-.15.37-.36.25-.53Z" fill="#9f2d20"/>
      <path d="M910.14,160.64c-.01.39-.08.77-.14,1.14.22-.18.53-.45.56.09.67-1.5-.45.29-.41-1.23Z" fill="#9f2d20"/>
      <path d="M909.01,157.08c.5.47.25-.2.36-.25-.44-.22-.54-.25-.36.25Z" fill="#9f2d20"/>
      <path d="M900.85,170.99l-.4.33c.47.31.13-.15.4-.33Z" fill="#9f2d20"/>
      <path d="M905.68,170c-.11-.1-.22-.21-.33-.32l-.18.46c.17-.04.34-.09.5-.14Z" fill="#9f2d20"/>
      <path d="M908.85,173.15l-.19.13c.26-.13.5-.28.75-.43l-.56.29Z" fill="#9f2d20"/>
      <path d="M898.31,174.5c.16-.17.31-.33.48-.48-.24-.33-.95-.15-.48.48Z" fill="#9f2d20"/>
      <path d="M915.21,170.23c.36.06.85-.22.81-.65-.29.29-.74.44-.81.65Z" fill="#9f2d20"/>
      <polygon points="889.8 171.16 889.53 170.8 889.82 171.51 889.8 171.16" fill="#9f2d20"/>
    </g>
    <g>
      <path d="M943.32,171.16c-.11.18.02.57.2.46,0-.22,0-.44-.04-.67-.02.08-.1.13-.16.21Z" fill="#9f2d20"/>
      <path d="M944.95,171.35c-.08-.23-.24-.45-.48-.6-.23-.15-.51-.2-.83-.21.29.15.37.25.44.34.08.11.18.2.42.52-.08.26-.4.15-.53-.07.06.18-.22,0-.16.41.43.42,1-.02.74-.58.17-.03.3.12.4.2Z" fill="#9f2d20"/>
      <path d="M940.25,176.51l-.19-.13c.05.06.11.1.19.13Z" fill="#9f2d20"/>
      <path d="M948.62,163.52c.12.12.21.13.26.1-.13-.1-.24-.17-.26-.1Z" fill="#9f2d20"/>
      <path d="M945.82,160.6c.08.05.15.09.22.13-.06-.1-.14-.16-.22-.13Z" fill="#9f2d20"/>
      <path d="M940.25,176.51c.16.12.33.22.5.32.08-.21-.25-.19-.5-.32Z" fill="#9f2d20"/>
      <path d="M943.01,168.08c.07.08.16.13.27.17-.06-.06-.11-.13-.16-.2-.03,0-.06.02-.1.03Z" fill="#9f2d20"/>
      <path d="M933.39,170.54c-.02-.06-.03-.12-.05-.17-.08-.03-.18-.06-.29-.09.11.09.22.18.34.26Z" fill="#9f2d20"/>
      <path d="M934.44,163.13c-.14.15.29.52.46.71-.14-.21-.15-.38-.09-.54-.08-.07-.2-.13-.37-.17Z" fill="#9f2d20"/>
      <path d="M944.43,165.82l.16.13s-.1-.09-.16-.13Z" fill="#9f2d20"/>
      <path d="M936.15,175.14c-.04.07-.07.15-.08.2.05-.05.07-.12.08-.2Z" fill="#9f2d20"/>
      <path d="M935.44,173.71s-.05.04-.08.05c.07,0,.11-.01.08-.05Z" fill="#9f2d20"/>
      <path d="M938.21,180.38h-.11c-.04.11-.07.2-.1.31l.21-.31Z" fill="#9f2d20"/>
      <path d="M937.96,160.85s.02,0,.04-.01c.15-.17.05-.1-.04.01Z" fill="#9f2d20"/>
      <path d="M933.55,161.88c.83,0-.49,1.19.63,1.03-.22-.13.26-1.25-.63-1.03Z" fill="#9f2d20"/>
      <path d="M943.01,167.91c-.04-.07-.08-.14-.11-.22.03.11.06.17.11.22Z" fill="#9f2d20"/>
      <path d="M934.18,162.91h0s.11-.01.11-.01c-.05,0-.07,0-.11.01Z" fill="#9f2d20"/>
      <path d="M941.17,175.87c.01-.1-.02-.2-.05-.29-.02.05-.02.13.05.29Z" fill="#9f2d20"/>
      <path d="M935.88,165.3c-.06.1-.11.2-.16.3.08-.12.12-.22.16-.3Z" fill="#9f2d20"/>
      <path d="M947.31,176.26c.16.03.22.11.43.02-.02-.03-.04-.04-.07-.06-.07.08-.17.12-.36.04Z" fill="#9f2d20"/>
      <path d="M953.24,174.15c-.05-.01-.11-.01-.16-.02-.05.04-.1.09-.15.14.1-.04.21-.07.31-.12Z" fill="#9f2d20"/>
      <path d="M936.81,162.91c-.17-.08-.32-.2-.46-.31.28.3-.18.79.46.31Z" fill="#9f2d20"/>
      <path d="M943.3,167.95c-.14.03-.22.02-.28-.04.03.05.06.1.1.14.08-.02.16-.05.19-.1Z" fill="#9f2d20"/>
      <path d="M947.25,171.82c.21,0,.42.02.62,0-.17-.02-.4-.03-.62,0Z" fill="#9f2d20"/>
      <path d="M948.95,177.17l.11-.15c-.06.02-.11.07-.11.15Z" fill="#9f2d20"/>
      <path d="M949.54,171.23c.18.13.34.18.48.19,0-.05,0-.1,0-.16-.16,0-.32-.02-.48-.03Z" fill="#9f2d20"/>
      <path d="M936.35,162.6h0s0,0,0,0Z" fill="#9f2d20"/>
      <path d="M934.4,166.63c.27-.45-.52-.57-.83-.88.2-.77.65,0,1.09,0,.05-.23-.03-.52-.05-.79-.02-.26,0-.51.12-.64.11.06.19.04.24.21-.08-.81,1.1-1.06,1.2-2.03.08.02.13.06.17.1-.29-.24-.52-.54-.65-.78.26-.21.3-.74.66-.4-.19.1-.1.27-.1.45l.19-.36c.63.43-.29.45,0,.88.22-.26.43-.62.66-.93.25-.28.51-.52.79-.55.38.57-.99.74-.11.98-.27.03-.55.07-.81.14,1.03.63-.43.17.6.89.92-.26.79-.83,1.78-.99.08-.43-.26-.5-.18-.93,1.25-1.1,1.53,1.29,2.31.22.17-.5.18-1.38,1.01-.99l-.18.79c.94-.02.49-1.15,1.54-.65-.19.3-.76.25-.62.35.64.61.46-.45.98-.42l.06.69c.98-.05,2.19-.28,3.36,0-.13.16-.38.29-.21.59,1.46.17,2.7,1.46,3.32,2.63.25-.03.51-.05.77-.07.08.09-.03.34-.21.33.18.52.3-.24.63-.21.23.21,0,.52-.25.5.49.17,1.1.54,1.56,1.06.46.52.72,1.18.59,1.73-.07-.04-.15-.08-.23-.11-.03.73,1.44.47,1.01,1.31l-.13-.12c.05.82.08,1.66-.03,2.44-.1.38-.17.75-.39,1.07-.1.16-.21.3-.32.43-.14.12-.29.22-.46.31.33.29.07.62-.2.9-.24.3-.48.58-.06.99-1.07.39-1.04.05-2.26.66-.31.17.09.93-.23,1.29l-.38-.49c-.04.29-.08.59-.13.89-.23-.13-.46-.28-.68-.43l-.28.35c.16-.06.46.05.53.21-.44.63-1.68.44-1.81.15-.39.39-.82.74-1.26,1.11-.05-.24.17-.42.3-.65-.56.91-.36-.55-.89.25.14.1.06.37.09.49-.49-.21-1.33,0-1.94.3l.04-.44c-1.14.14-2.39.57-3.7.52.46.22.36.95-.06,1l-.13-.66c-.28.39.41.26-.15.73-.52-.1-.29-.75,0-.95-.2.06-.41.14-.62.19-.02-.2.13-.29.19-.53-.3.38-.91-.76-1.35-.13v-.2c-1.21-.24-1.79-.21-2.66-.57-.26.5-.54.22-1.02.47-.55-.54-.81-1.33-1.32-1.9-.56-.28-.48.15-.91.12.38-.32-.06-1.01.46-.82-.27-.39-.42-.67-.6-.97-.09-.16-.19-.32-.31-.51-.1-.2-.22-.43-.37-.72-.18.16-.25.35-.43.29-.13-.24.11-.58.36-.56l.06.05c-.22-.34-.19-.75-.12-1.14.18-.4.38-.77.65-1.1.55-.68,1.11-1.15.94-1.93v.08c.09-.43.14-.91.27-1.37.46-.41.07.51.61.37.05-.39.18-.7.34-.94.18-.24.4-.4.61-.56.41-.34.89-.53,1.18-1.13.39.15.77.16,1.11.03.34-.13.66-.37,1.02-.58.67-.48,1.48-.92,2.18-.66l-.17-.32c.2-.41.43.1.66.12-.1-.26-.41-.22-.28-.46,1.23-.61,2.7-.61,4.03-.34,1.36.24,2.52.89,3.59,1.51.73.45,1.33-1.44,1.95-.07-.22.12-.43.25-.63.38.98.13,1.72.77,2.17,1.41.47.67.6,1.19.92,1.78-.15-.08-.35-.07-.34-.17-.26.13-.24.29-.17.46.07.17.23.4.4.47-.12.17-.35-.08-.58-.05-.17.05-.1.24-.07.44.03.2.03.4-.22.31-.08-.03-.07-.16-.07-.22.09.29-.62.63-.1.88-.58.21-.78.96-1.4.93-.03.73-1.11.17-.93,1.02-.26-.84-1.24-.4-1.67.03.12-.28-.39-.26-.25-.65-.45.05-.89.18-.83.66-.43-.57-.87-.39-1.32-.31-.44.1-.86.12-.89-.62-1.51.02-2.97-.48-4-1.35.36-.27.6-.04.87.17.26.21.56.38.82-.01-.57-.19-1.09-.31-1.55-.54-.46-.22-.85-.59-.98-1.17,0-.31.43,0,.6.01-.4-.4-.51-.91-.53-1.34,0-.44.04-.8-.03-1.26.08.04.12.14.17.24.02-.16.24-.23-.12-.41,0,.06.02.13.03.18-.32,0-.57-.26-.67-.63-.12-.36-.09-.8-.19-.91.33.53.57.33.82.23.26-.11.5-.11.82.6.02-.13.02-.38-.18-.57.2-.07.34.04.4.39.38-.56-.03-.81.57-1.12.08.18,0,.3.05.54.08-.48.31-1.01.93-.98,0,.12.09.26-.07.29.45-.14.82-.43,1.29-.61.46-.16,1.04-.24,1.52.17-.32.34-.24.45-.14.54.1.11.24.23.09.57.19,0,.36.05.56.07,0-.14,0-.28,0-.42.41.26,1.15.19,1.31.74-.17-.03-.33-.07-.5-.08.27.19.53.43.78.68-.05-.21-.09-.44-.16-.65.68.21.69-.67,1.05.13-.16-.11.37.56.12,1.06h0c.35.15.73.36.73.88-.18.2-.81.21-.93.34.71.05.58,1.24,1.28,1.51-.18-.11-.56-.04-.63.01l.54.17c-.12.32-.2.36-.51.36-.01.84.93-.36.6.69-.04-.08-.12-.04-.2-.2-.08.5-.01.95-.03,1.4,0,.44-.1.89-.43,1.17-.74-.2.14-.65-.54-.71-.12.41-.24.95-.6,1.47-.34.53-.91.97-1.54,1.1h.26c.11.52-.19.49-.54.4-.37-.12-.75-.28-1.03,0,.15-.1.09-.61.08-.49-.85-.02-1.69.51-3.11.63l.21-.24c-.48-.29-1.28-.43-1.71-.74-.24.18-.51,0-.51.44-.42-1.07-1.06-1.31-1.79-1.72-.7-.38-1.41-1-1.11-1.94.06.17.39.27.33.15-.25-.32-.46-.68-.65-1.06-.42.22-.22.23-.48.61-.32-.07-.64-.42-.71-.78.44.57.71-.17.94-.44-.13.06-.3,0-.44.04.73-.79-.97-.02-.46-1.08l.24.05c-.12-.36-.43-.75-.3-1.16.55-.09.2.43.63.49.02-.49-.84-1.28-.16-1.65.07.27-.02.61.09.87.71-.39.6-.45.79-.79l-.02.03c.18-.24.37-.45.57-.62-.08.03-.16.06-.24.09-.51-.56-.37-.93-.15-1.19.24-.28.5-.45.71-1.06-.2.59-.09.71,0,.75.1.04.24.03.37.3.23.06.49.16.49.35.02-.27.18-.22.31-.17.15.04.26.06.49-.3.02.19.36.03.25.52.41-.12-.06-.35-.03-.59.37-.32.83-.03,1.2.28.4.34.67.63,1.35.61.94.36,1.61.16,2.47.92-.04.24-.23.26-.41.23-.18-.03-.35-.11-.35-.11.05.62.28.96.72,1.36-.2-.03-.28.14-.41.38.22.37.78-.01.74.62-.23.01-.6.03-.89-.08.2.23.4.35.6.5.2.16.39.34.52.56-.31.18-.56-.17-.81-.24.29.4.49,1.1,1,1.3.06-.11.14-.22.2-.34.03.2-.46.09-.56-.03-.44-.36.12-.62.3-.7.07.11.12.21.18.33.55-.25.43-.67.14-1.02-.29-.35-.78-.63-.92-1.01l.89-.04c-.32-.15-.64-.3-.96-.44.12-.24.49-.56.77-.26.11-.7-.48-.32-.32-.98.04-.08.08-.08.14-.05-.17-.13-.33-.25-.51-.37.21,0,.45-.4.54-.02-.07-.59-.47-.88-.8-1.07-.33-.19-.6-.29-.52-.67l.1.03c-.66-.45-.8-.31-.92-.15-.12.18-.26.38-.85.4.1-.53.14-1.1.11-1.67l-.4.49c-.13-.09-.4-.24-.26-.45-.69.2,0,.27-.44.54-.24-.38-.76-.44-1.18-.47-.43-.04-.77-.06-.89-.55-.24.47.71.34-.04.69-.14-.51-.4-.45-.66-.28-.28.18-.52.44-.93.38-.05-.59.81-.59-.13-.75-.05.53-.38.62-.79.76-.41.13-.91.31-1.05.64.28.24.12.55-.08.96-.2.4-.46.91-.47,1.41-.11-.07-.34.34-.55.91-.2.56-.35,1.28-.46,1.77l-.12-.03c.74.17.64,1.1.97,1.73-.43.07-.63,0-.91-.36l.15.68c.26.1.45.27.65.65h-.57c.34.92,1.26,1.44,1.65,2.56.42-.3.67-1.47,1.55-.88-.19.2-.53.54-.79.38.09.06.38.12.42.33-.22,0-.43-.02-.65-.04.15.53.47-.05.68.26-.3.26,0,.41-.27.59-.1-.05-.12-.37-.34-.38.25.4.5.95.46,1.31.12-.2.34-.39.64-.22.72.5-.05.57.28,1.04.34-.11.69.44,1-.08.23.12.15.38.18.58.27,0,.8.18,1.22.26.42.06.73.01.56-.35l-.1-.07s.05,0,.08,0h0s0,0,0,0c.76-.08,1.44.08,2.16.25.72.15,1.49.29,2.17.05l.03.2c.81-.33,1.85-.57,2.23-1.21.22-.1.69.08.7.34.54-.48.46-.65,1.46-1.02-.35.71.4.09-.43.65.43-.21.75-.29.99-.5.13-.1.24-.22.34-.38.09-.18.16-.41.22-.69.09.29.34.25.58.02.22-.24.45-.63.47-.9-.2.19-.45.35-.66.5.22-.51.43-.92.6-1.37.19.14.38.29.56.45.74-1,.44-2.11.11-2.87-.33-.81-.64-1.36-.14-2.24-.56-.37-.1,1.07-.73.74-.05-.79.57-1.94.45-2.22-.15-1.3-1.31-.64-1.72-1.78-.11.27-.57.69-1.23.16-.38-.64.09-1.41.62-1.13.15.15.15.28.08.32.24.16.55.41.54-.03l-.26.05c-.03-.52-.97-1.4-.49-1.47-.69-.33-.48.08-.2.52-.62-1.08-1.39-1.24-2.43-1.97.13.21.17.54,0,.45-.77-.49-1.02-.42-1.18-.29-.16.13-.26.3-.82.26-.59-.43.37-.85-.87-.65-.76-.26-.18-.64.18-.82-.63.19-1.18.16-1.7.1-.52-.06-1.01-.15-1.37-.08.2-.12.39-.26.6-.36-.37.21-.69.29-1,.41.17.1.34.21.51.33-.38.03-.68.16-.75-.03-.23.43.54.62.07,1.3-.54-.03-1.04.87-1.52.47.66-.33.55-.43.39-.56-.16-.12-.4-.29.17-.66-.2.19-.46.35-.83.5-.09-.03-.03-.14.04-.23-.81.22-.85.52-.83.82.02.31.09.65-.42,1.23-.13-.39-.77-.14-.87.16.42-.57.64.11.56.72-.38.36-.46.65-.47.88-.02.23.05.41-.05.65.11-.17.2-.34.32-.5.25.32.04.72.04,1.35-.29,0-.06-.6-.23-.41.21.42,0,.76-.2,1.2-.2.43-.38.97-.09,1.43-.14.51-.65.17-.71.64.37.54.37.86.37,1.23,0,.35.02.75.5,1.2.23-.55.11-.5.93-.06-.43-.46-.83-.98-1.16-1.57.36.32.75.59,1.13.82-.26-.47-.77-.94-.8-1.3.56.42.42.37.71,0-.22.46.03.78.33,1.04.29.27.62.48.65.95l-.97.67c.2.73.76,1.11,1.35,1.42.6.32,1.24.55,1.86,1.13-.12-.15-.22-.31-.33-.47.44-.26.87.5,1.43.56-.22.32,0,.62.11.93.09-.26,1.13.52,1.53-.2.17.23.34.48.53.71,1.27.54,1.68-.75,2.82-.52-.4.4.16.73-.73.96.43.05.81.14.83-.13.26.27,1.16-.52,1.56-.18.16-.19.18-.61.63-.63.06.07.03.19.03.19-.02-.19.66-.39.2-.75.7.52,1.59.25,2.36-.13.78-.38,1.43-.86,2.2-.77.69-.65,1.39-1.55,1.84-2.29.07.11.16.12.03.23.49-.41.35-.73.19-1.04-.15-.31-.3-.58.1-1.12.39-.23.43-.05.41.18-.04.21-.14.44.05.28.65.14.77-.34.76-.92,0-.6-.18-1.22.15-1.77.03.08.08.16.1.25.17-.41.02-.95-.32-1.41-.3-.49-.72-.92-.96-1.46,0,0,.13,0,.17-.09-.96-.43-1.99-1.31-2.88-1.78.56-.18.52.1.71-.42-.4-.24-.44.68-1.21.26-.04-.4-.43-.95-.22-1.46.25.15.5.3.74.47.05-.87-.97-.64-1.29-.96l.21-.24c-.63-.3-1.04-.24-1.44-.2-.4.03-.79.08-1.43-.18l.06.27c-.94.52-.46-.63-1.34-.25l-.04-.82c-.27.02-.75.13-1.25.24-.51.11-1.04.28-1.47.32.51-.56,1.6-.78,2.35-.97-.26-.04-.7-.12-1.11-.1-.41.03-.79.12-.93.3.2-.06.48-.24.67-.1-.69.58-1.45.78-2.39.85.06-.75-.6-.88-1.37-.81-.77.06-1.63.18-2.13-.27-.41.26-.83.41-1.26.56-.42.16-.87.28-1.33.39-.47.1-.91.28-1.39.44-.48.16-.94.39-1.38.71,1.26.62-.51.36.27,1.31-.36.31-.5.4-.58.37-.52.09-1.05.2-1.6.32-.51-.04.19-.5-.01-.68-.92.63-.69-.09-1.48.18.41.21.14.73-.44,1.06l1.05-.23c-.33.75-.73.81-1.14.91-.4.1-.87.19-1.09,1.04-.01-.22-.01-.44,0-.65-.18.39-.6,1.07-.95,1.77-.28.76-.48,1.55-.16,2.11-.18.09-.56.17-.52-.23-.2.48-.34,1.03-.41,1.58-.02.58,0,1.16.02,1.71.09.56.18,1.09.21,1.58.06.49.12.94.04,1.37l-.32-.1c.16.39.65.55.51,1.08-.13.01-.33-.06-.29.12.16.18.82.79.88,1.31-.16-.08-.33-.17-.49-.27.22,1.03.84,1.65,1.5,2.08.67.43,1.37.69,2.03,1.14-.29.33-.19.81.11,1.27.29.47.77.87,1.09,1.13l-.08.1c1.05.62,2.06.79,3.01.82.95.02,1.86-.1,2.83-.15.53.55,1.57.73,2.7.77,1.13.03,2.34-.09,3.36-.01-.32-.1-.07-.68.25-.83.49.11,1.06-.87,1.19-.07l-.16.03c.53.69,1.41.24,2.12,0l-.24-1.03c1.15.42,2.29-.25,3.21-.94.93-.71,1.64-1.45,2.49-1.23.21-.51.66-.89.83-1.39l.37.43c1.05-.86,1.63-1.31,2.47-2.86l.14.52c.61-.85-.76-1.91-.43-2.64.3.04.59.07.88.1.15-.4.33-.8.53-1.19.15-.42.32-.84.45-1.28.11-.44.15-.89.15-1.34-.01-.45-.16-.89-.36-1.3.12.02.37.05.42.34.02-.42.04-1.24-.09-1.91-.15-.65-.47-1.09-.97-.79.74-.25-.48-1.72-1.23-2.26l.56-.14c-.98-.32-1.14-.23-1.86-.92-.07-.23.24-.43.31-.09-.21-.83-.78-.17-1.14-1.07l.5.04c-.48-.65-.6-.47-1.2-.48-.48-.2-.98-1.09-.78-1.56-.28.17-.85.21-1.15-.14.06-.19.26-.19.37-.19-.45-.53-.95-.69-1.41-.76-.46-.08-.83-.18-1.14-.59.06-.18.04-.28,0-.36.98.44,1.7.94,1.61.91.27-.44-.49-.95.5-1.22-.42,0-.99,0-1.56,0-.57.01-1.08-.06-1.44-.32-.02-.06-.05-.12-.05-.2l.11-.03c-.17-.11-.36-.12-.55-.09-.24-.16-.39-.28-.65-.36.02-.46-.97-.45-1.4-.56-.06.56-.6.36-.16.92-.06-.05.09-.05.38-.02.07,0,.14,0,.19-.02l-.04.04c.28.05.65.08,1.05.21-.4.16-.79.35-1.19-.06-.29.31-.57.63-.73.78-.41-.83-1.54-1.4-1.7-1.84-1.37.24-3.21.41-3.76,1.62-.32.19-.47-.2-.64-.33.18-.17.43-.2.51-.37-.66.41-2.09.69-1.98,1.46-.96.01.24-.82-.89-.26l.07-.27c-.7-.04-1.24.22-1.69.54-.43.38-.78.83-1.09,1.3-.29.5-.62.93-.98,1.36-.19.21-.41.39-.68.55-.26.18-.56.34-.94.48.2-.08.3-.13.41-.07-1.31.94-2.13,2.56-2.41,4.23-.16.83-.16,1.7-.16,2.52.02.82.08,1.63.06,2.48.09.94.58.86,1.12,1.19l-.47.42c.34.18.68.35,1.02.5,1.01.81-.18,2.65,1.5,3.41l.22-.39c.25.5,1.19,1.28.76,1.48.1,0,.45-.1.41.2l-.24.2c.42.27.87.54,1.34.77.31.48.09.68-.09.92-.16.22-.34.52.55,1.16.37.17,1.02.23,1.49.12.48-.1.76-.31.66-.44-.27-.07-.62-.38-.51-.68.19.01.38.02.57,0,.15-.44.35-.88.4-1.32.04-.44,0-.85-.1-1.25-.18.12-.41.21-.67.26.04-.16.09-.31.15-.46.12.08.22.15.33.2.07-.46-.23-.21-.56-.16.13-.21.19-.38.18-.52-.34.08-.71.11-1.09.1.24-.29.75-.21.63-.69-.54-.02-.44.77-1.01.47.11-.57.47-.66-.11-.85.16-.19.34-.2.54-.1-.49-.19-.75-.86-1.28-.76.19-.64-.9-1.1-.14-1.55-.25,0-.97-.23-1.19-.54,1.23.05-.62-1.22.5-1.58-1.07,0-1.05-1.28-1.69-1.85.08.03.24.07.22.14-.02-.42.24-.59.39-.85-.79.06-1.03-.56-1.47-.93.78-.44.91.34,1.64.19-.64.03-.6-.76-1.11-.7.54-.28.29-.28.96-.29-.95-.32-.08-.34-.53-.82.64-.33.86.24.87-.4.2-.05.31.09.38.22.07.13.09.27.09.27ZM947.69,160.82s0,.01,0,.01c-.14-.05-.27-.06-.34-.08.07.02.18.02.35.07ZM949,161.4c-.14-.1-.33-.22-.55-.3.03-.2.17-.36.3-.29-.13.08.14.33.25.59ZM947.04,156.56c.31-.01.39.11.4.24-.14-.02-.31-.04-.52-.04-.01.02-.03.04-.05.06.05-.1.1-.19.18-.25Z" fill="#9f2d20"/>
      <path d="M946.37,157.17s-.07.02-.12.02c.05.06.09.11.14.16.05-.05.09-.1.13-.15-.05,0-.1-.02-.15-.02Z" fill="#9f2d20"/>
      <path d="M940.03,176.35l.03.02s-.05-.06-.06-.1c.02.03.01.05.02.07Z" fill="#9f2d20"/>
      <polygon points="950.07 176.1 950.16 176.21 950.18 176.04 950.07 176.1" fill="#9f2d20"/>
      <path d="M935.7,169.15s.09-.06.13-.12c-.04,0-.08.06-.13.12Z" fill="#9f2d20"/>
      <path d="M936.1,165.93c.11-.12.23-.23.34-.34-.18.12-.28.24-.34.34Z" fill="#9f2d20"/>
      <path d="M937.43,164.46c-.03-.09-.07-.16-.1-.22h0s.1.22.1.22Z" fill="#9f2d20"/>
      <path d="M939.51,166.32s0,.04,0,.07c.05.16.05.06,0-.07Z" fill="#9f2d20"/>
      <path d="M947.82,166.14c-.16-.07-.31-.13-.43-.22.07.21.14.36.43.22Z" fill="#9f2d20"/>
      <path d="M947.18,171.81s0,0,0,0h.07s-.07,0-.07,0Z" fill="#9f2d20"/>
      <path d="M947.09,165.45c.03.24.14.38.3.47-.07-.17-.13-.38-.3-.47Z" fill="#9f2d20"/>
      <path d="M943.52,169.98l-.02.09s.07,0,.09,0l-.07-.1Z" fill="#9f2d20"/>
      <path d="M943.6,170.08l.06.1s0-.08-.06-.1Z" fill="#9f2d20"/>
      <path d="M943.79,170.38c-.03-.06-.09-.14-.13-.21,0,.07-.02.15.13.21Z" fill="#9f2d20"/>
      <path d="M942.68,166.94l-.2.06s.11-.02.2-.06Z" fill="#9f2d20"/>
      <path d="M942.11,166.12c.1.22-.05.71.22.94l.16-.05c-.33.01.04-.9-.38-.89Z" fill="#9f2d20"/>
      <path d="M939.41,161.73c.38.1.74.24,1.09.4-.12-.26-.33-.62.22-.52-.66-.53-.64-.37-.6-.17.03.21.03.45-.71.3Z" fill="#9f2d20"/>
      <path d="M935.58,162.37c.55-.52-.19-.26-.24-.37-.28.48-.3.57.24.37Z" fill="#9f2d20"/>
      <path d="M947.63,175.95l.19.48c.41-.32-.09-.17-.19-.48Z" fill="#9f2d20"/>
      <path d="M948.26,171.31c-.13.07-.25.13-.38.19.14.09.27.18.4.27,0-.15,0-.31-.02-.46Z" fill="#9f2d20"/>
      <path d="M951.9,168.79l.1.21c-.09-.27-.19-.52-.3-.78l.2.57Z" fill="#9f2d20"/>
      <path d="M952.53,175.21l-.44-.47c-.22.26.04.93.44.47Z" fill="#9f2d20"/>
      <path d="M949.08,160.19c-.07-.36-.52-.71-.91-.5.38.16.69.51.91.5Z" fill="#9f2d20"/>
      <polygon points="948.81 182.54 948.55 182.88 949.13 182.45 948.81 182.54" fill="#9f2d20"/>
    </g>
    <g>
      <path d="M971.01,188.86c-.11-.2-.51-.25-.56.14l.54.46.02-.6Z" fill="#9f2d20"/>
      <path d="M969.14,191.07c.22.53.73,1.12,1.37.91-.58-.52-.29-.58-.94-1.21.01-.41.36-.62.58-.5-.14-.18.3-.53-.04-.86-.63.34-.84,1.01-.54,1.76-.17.12-.31-.05-.43-.11Z" fill="#9f2d20"/>
      <path d="M967.42,194.62l-.08-.29c0,.09.03.19.08.29Z" fill="#9f2d20"/>
      <path d="M960.44,190.6c.15-.17.17-.29.14-.34-.13.18-.22.33-.14.34Z" fill="#9f2d20"/>
      <path d="M957.63,195.07c.03-.11.06-.21.08-.31-.08.11-.13.23-.08.31Z" fill="#9f2d20"/>
      <path d="M967.42,194.62c.07.26.17.5.26.75.21-.09-.11-.4-.26-.75Z" fill="#9f2d20"/>
      <path d="M970.68,196.25c-.05-.12-.13-.21-.22-.29.04.1.08.19.11.29.04,0,.07,0,.11,0Z" fill="#9f2d20"/>
      <path d="M974.81,188.16c.07.06.13.12.2.18.11,0,.22-.01.35-.03-.18-.06-.36-.11-.54-.15Z" fill="#9f2d20"/>
      <path d="M977.86,197.09c.03-.21-.53-.3-.77-.39.23.12.34.28.37.46.11,0,.24-.01.4-.07Z" fill="#9f2d20"/>
      <path d="M968.86,198.51l-.15-.21c.04.05.09.15.15.21Z" fill="#9f2d20"/>
      <path d="M967.3,188.56c-.08-.04-.16-.06-.22-.05.05.05.13.06.22.05Z" fill="#9f2d20"/>
      <path d="M964.89,185.49s-.05-.04-.07-.07c.02.07.04.1.07.07Z" fill="#9f2d20"/>
      <path d="M959.25,192.55v-.14c-.12-.03-.22-.06-.32-.07l.32.21Z" fill="#9f2d20"/>
      <path d="M959.92,204.14s-.01-.02-.02-.04c-.21-.16-.11-.05.02.04Z" fill="#9f2d20"/>
      <path d="M970.46,198.88c-.72-.76,1.62-.17.48-1.11.07.27-1.48.41-.48,1.11Z" fill="#9f2d20"/>
      <path d="M970.64,196.45c.03.1.05.2.07.3,0-.14-.03-.23-.07-.3Z" fill="#9f2d20"/>
      <path d="M970.94,197.77h0s-.11-.1-.11-.1c.05.04.07.06.11.1Z" fill="#9f2d20"/>
      <path d="M979.51,204.92c-.1-.05-.21-.05-.32-.05.04.04.12.06.32.05Z" fill="#9f2d20"/>
      <path d="M964.87,206.67c.1.08.21.16.32.23-.12-.1-.22-.17-.32-.23Z" fill="#9f2d20"/>
      <path d="M982.96,197.59c.08-.19.18-.25.14-.54-.03.02-.05.04-.08.07.07.11.07.25-.06.46Z" fill="#9f2d20"/>
      <path d="M982.23,189.71c-.03.05-.04.11-.06.17.03.07.07.15.11.22l-.05-.39Z" fill="#9f2d20"/>
      <path d="M979.02,187.45c.08-.19.2-.34.33-.48-.32.26-.84-.43-.33.48Z" fill="#9f2d20"/>
      <path d="M970.36,196.3c.15.01.22.06.27.15-.02-.07-.04-.14-.07-.21-.09,0-.16,0-.21.06Z" fill="#9f2d20"/>
      <path d="M978.65,196.54c.05-.28.14-.55.17-.85-.05.24-.15.54-.17.85Z" fill="#9f2d20"/>
      <path d="M955.09,195.5l.14.13c-.02-.07-.06-.12-.14-.13Z" fill="#9f2d20"/>
      <path d="M978.55,193.04c.17-.2.23-.4.26-.61-.05-.03-.1-.07-.17-.08-.03.23-.06.46-.1.68Z" fill="#9f2d20"/>
      <path d="M979.35,186.96h0s0,0,0,0Z" fill="#9f2d20"/>
      <path d="M974.31,183.88c.69.36.67-.47,1.03-.76,1.03.36.13.72.21,1.21.6.17,1.42-.02,1.77.35-.06.11-.03.21-.21.24.44.03.82.4,1.15.81.33.4.67.84,1.19,1.05-.03.09-.07.14-.11.18.26-.29.58-.5.83-.6.22.39.81.56.43.92-.1-.26-.29-.2-.48-.25.14.11.26.22.39.34-.46.66-.48-.48-.95-.25.59.65,1.5,1.49,1.5,2.25-.59.31-.72-1.48-1-.42-.03-.36-.07-.71-.12-1.07-.7,1.12-.16-.59-.96.5.26,1.24.82,1.25.94,2.64.43.23.53-.22.96.02,1.04,1.95-1.42,1.85-.32,3.26.49.33,1.38.42,1,1.54l-.79-.31c.01.69.29.86.52,1.06.23.19.41.42.14,1.13-.29-.26-.25-1.06-.34-.86-.6.91.44.64.41,1.35l-.69.1c.01,1.33.18,2.84-.48,4.12-.13-.18-.2-.48-.53-.33-.29.76-.95,1.41-1.75,1.78-.8.39-1.74.54-2.61.56-.16.24-.33.5-.52.72-.16.02-.34-.21-.19-.35-.71-.09.03.37-.27.66-.41.09-.58-.26-.35-.47-.57.33-1.48.67-2.44.75-.95.09-1.93-.07-2.53-.53l.29-.12c-.95-.45-1.5.89-2.34.04l.22-.03c-2.19-.96-4.87-1.9-5.96-3.73-.79.51-1.81-1.75-2.64-.91-.75-1.34-.37-1.25-1.47-2.8-.3-.37-1.04,0-1.53-.38l.46-.41c-.32-.06-.66-.13-.98-.22.12-.26.25-.5.39-.73l-.37-.32c.05.17-.04.49-.21.55-.34-.27-.43-.76-.37-1.12.08-.37.3-.6.47-.62-.22-.35-.37-.75-.38-1.23.22.12.23.34.36.51-.25-.35-.04-.36.11-.31.16.03.32.11.18-.27-.17,0-.3-.21-.4-.29.24-.06.48-.24.73-.48.25-.24.53-.54.78-.83l.15.42c1.04-.69,2.32-1.6,4.06-1.94-.65-.06-.69-.81-.17-.99l.33.6c.27-.46-.6-.14.01-.75.7-.04.57.65.23.93.25-.12.51-.24.77-.35.07.19-.1.31-.12.57.28-.46,1.45.48,1.89-.24l.06.19c1.85-.1,2.75-.3,4.38-.33.04-.56.67-.44,1.15-.88,1.18.2,2.42.68,3.68.82.93-.13.34-.43.8-.69-.01.51,1.19.74.48.96.71.13,1.15.27,1.59.38.43.13.94.25,1.69.62,0-.28-.12-.48.08-.55.32.14.4.64.19.78l-.09-.02c.51.19.83.67.88,1.11.07.46-.19.76-.39.9-.36.2-.73.35-.95,1.05l.03-.08c-.25.38-.62.76-1.07,1.09-.7.09.29-.48-.28-.65-.63.62-1.32.61-1.94.51-.63-.12-1.18-.31-1.97-.27-.32-.89-1.18-1.2-2.13-1.69-.93-.47-1.9-1.11-2.01-1.97l-.21.3c-.52-.06-.14-.49-.25-.74-.2.2,0,.51-.3.45-1.22-1.14-1.7-2.89-1.3-4.12.1-.3.24-.62.41-.83.08-.1.15-.21.27-.31.09-.1.2-.2.33-.3.47-.39,1.09-.73,1.74-.98.47-.18.42-.66.49-1.07.05-.41.25-.79,1.08-.52-.1.23-.18.48-.25.73.96-.66,2.21-.64,3.08-.24.93.37,1.69,1.1,2.73,1.94-.21-.03-.37.08-.52-.1-.03.34.25.73.58,1.05.33.32.72.57.89.47.19.4-.25.27-.29.6.05.64,1.25,1.01.96,1.51-.05.08-.21-.08-.29-.16.4.23.67,1.61,1.04,1.07.16,1.04.91,1.77.78,2.63.76.39-.01,1.68.87,1.74-.87.04-.64,1.65-.36,2.29-.24-.22-.35.45-.69.16-.09.61-.12,1.19.36,1.24-.33.21-.55.44-.63.71-.12.24-.14.51-.19.78-.07.26-.14.52-.29.68-.17.16-.41.23-.77.12-.89,1.72-2.53,3.12-4.33,3.86-.09-.43.39-.61.84-.83.45-.21.86-.47.61-.87-.67.55-1.22,1.05-1.84,1.44-.62.39-1.32.66-2.22.59-.45-.13.24-.38.37-.57-.83.24-1.67.2-2.42.01-.76-.17-1.44-.4-2.21-.56.05-.07.23-.07.39-.06-.27-.11-.51-.44-.7-.08.1.02.2.04.3.05.06.37-.35.51-.84.52-.49.02-1.03-.11-1.15,0,.6-.28.3-.6.1-.93-.2-.34-.3-.65.51-.91-.2-.07-.5-.12-.67.1-.16-.28-.09-.45.34-.44-.86-.66-.98-.1-1.57-.96.17-.1.35.03.6-.02-.59-.18-1.25-.49-1.46-1.36.13,0,.23-.15.34.07-.33-.64-.76-1.15-1.1-1.76-.33-.6-.54-1.33-.28-2.14.81.54.35-.51,1.11-.41-.02-.24-.03-.49,0-.74-.14.05-.29.1-.45.16.21-.61.06-1.46.68-1.78-.03.21-.07.4-.07.59.21-.36.45-.71.77-1.02-.27.07-.49.2-.75.31.28-.79-.77-.62.22-1.19-.15.19.7-.53,1.29-.27h0c.25-.37.59-.79,1.25-.75.21.2.08.83.21.96.1-.35.54-.49,1.01-.58.47-.1.96-.14,1.23-.46-.18.15-.2.54-.15.62.11-.17.23-.33.36-.48.36.2.4.28.3.59,1.04.28-.19-1.02,1.04-.34-.11.01-.08.1-.31.12.61.25,1.22.39,1.78.62.55.23,1.08.57,1.34,1.1-.18.36-.38.21-.54.07-.19-.13-.34-.26-.44.09.54.4,1.13.9,1.51,1.6.38.68.48,1.58.12,2.25.07-.07.11-.16.17-.24.39.2.31.43.09.64-.23.21-.6.36-.83.57l1.45-.22c-.15-.14-.32-.24-.53-.26.24.07.59-.31.47-.25-.94-.9-2.3-1.23-3.7-2.39h.35c-.22-.57-.69-1.26-.74-1.78,0-.08,0-.16,0-.22-.29-.1-.24-.45-.64-.25.4-.47.67-.76.9-1.13.23-.35.43-.73.73-1.07.29-.34.68-.63,1.12-.69.43-.06.92.11,1.16.56-.18-.07-.47.11-.34.14.4.02.81.15,1.22.42.22-.42.06-.34,0-.83.32-.12.89.07,1.19.45-.79-.42-.52.5-.58.88.08-.13.27-.13.38-.23-.09.6.11.5.38.44.26-.06.63-.08.64.66l-.25.03c.3.4.76.76.85,1.31-.45.36-.39-.45-.82-.34.25.66,1.38,1.21.96,2-.19-.3-.28-.76-.5-1.03-.45.85-.3.88-.32,1.42v-.05c-.04.41-.1.82-.19,1.21l.16-.31c.71.42.78.92.74,1.44-.04.53-.16,1.06.15,1.79-.61-1.4-.45-.29-1.03-.51-.23.34-.47.46-.61.35.19.23.06.34-.04.43-.11.1-.17.16-.03.68-.15-.15-.22.28-.5-.28-.14.42.26.3.42.54,0,.66-.63.78-1.1.54-.48-.22-.72-.5-1.31-.44-.41-.18-.77-.3-1.12-.51-.35-.19-.76-.53-1.13-1.18.08-.28.28-.23.46-.12.17.11.34.28.34.28.04-.81-.16-1.32-.52-1.98.19.11.31-.07.48-.31-.14-.53-.77-.26-.58-1.05.23.11.59.23.85.45-.27-.6-.69-1.22-.87-1.91.34-.18.51.41.76.62-.21-.73-.3-1.93-.8-2.22l-.24.49c0-.29.47-.11.56.1.39.67-.21.94-.41.98-.04-.17-.09-.33-.12-.5-.58.24-.54.78-.32,1.35.21.57.61,1.15.65,1.64-.29-.09-.59-.19-.89-.29.27.33.57.63.86.92-.17.26-.59.53-.81.04-.24.84.43.58.16,1.34-.05.09-.1.07-.15.01.15.22.3.44.46.64-.21-.08-.52.31-.55-.18-.01.37.08.67.2.93.16.31.34.55.5.76.33.4.6.61.56,1.1l-.11-.07c.76.79.91.6.99.42.08-.21.19-.43.81-.47-.01.79.19,1.39.5,1.99.1-.19.19-.38.27-.57.2.07.61.12.55.36.05-.03.09-.05.11-.07.53-.38-.22-.19.16-.6.5.25,1.15-.12,1.54-.53.41-.41.65-.79,1.07-.53-.15-.64-.73.53-.43-.6.44.26.59-.09.62-.52.04-.45-.03-.92.31-1.31.47.4-.08,1.33.65.44-.35-.48-.23-.81-.02-1.26.21-.43.49-.9.43-1.29-.71-.07-.22-1.64-.68-2.84.13.02.15-.57.06-1.32-.08-.76-.27-1.62-.42-2.27l.13-.02c-.76.07-1.19-1.1-1.98-1.67.34-.28.6-.28,1.1.04-.2-.26-.41-.51-.66-.74-.34,0-.63-.12-1.21-.39.16-.11.34-.22.52-.32-.6-.39-1.36-.54-2.1-.57-.76-.02-1.52.05-2.42.16.04.26.47.49.64.8.19.31.13.6-.36.99-.15-.23-.42-.65-.08-.9-.12.07-.33.38-.61.41.09-.24.22-.46.36-.7-.74.12-.18.5-.65.73-.21-.35-.49,0-.62-.29.09-.14.51-.16.63-.41-.64.24-1.39.67-1.81.7.21.1.39.35.13.77-.34.53-.47.59-.63.56-.15-.02-.31-.14-.57.21.11.4-.39,1.27.23,1.38-.05.39-.32.46-.47.64.07.22.15.6.27,1,.33.96.92,1.8,1.06,1.15l-.04-.16s.04.05.07.08h0s0,0,0,0c.72.73,1.27,1.46,1.89,2.21.61.73,1.27,1.43,2.06,1.84l-.12.16c.26.11.52.25.78.39l.82.45.43-.64c.53-.8.86-1.77.67-2.42.08-.31.47-.75.69-.59-.03-.49-.15-.74-.2-1.05-.07-.31-.07-.66-.12-1.35.59.84.24-.43.48.91-.02-.65-.04-1.07-.16-1.47-.13-.39-.37-.79-.98-1.19.34.05.34-.24.17-.61-.19-.36-.56-.75-.85-.9.15.3.28.6.38.91-.49-.47-.91-.88-1.38-1.26.22-.13.43-.24.66-.34-.92-1.2-2.32-1.34-3.4-1.32-1.12.03-2,.17-2.99-.46-.63.47,1.36.31.76.86-1.04-.14-2.38-.86-2.78-.75-.86.02-1.18.41-1.44.8-.27.39-.49.78-1.27,1.15.34.08.75.49.05,1.35-.78.6-1.67.3-1.3-.4.19-.22.34-.26.39-.19.21-.33.57-.71.03-.62l.03.28c-.3.12-.77.47-1.11.8-.36.31-.61.56-.66.27-.34.97.09.54.6.06-.62.54-.93,1.13-1.15,1.72-.22.6-.38,1.21-.6,1.99.17-.24.48-.41.44-.17-.31,1.11-.14,1.38.01,1.52.17.15.35.22.48.91-.25.85-.93-.18-.37,1.23-.02.94-.57.35-.84,0,.38.66.49,1.3.57,1.9.07.6.12,1.18.27,1.56-.17-.18-.34-.41-.51-.61.3.39.47.71.65,1.04l.22-.6c.12.42.31.73.14.83.49.21.51-.67,1.31-.19.09.6,1.16,1.16.81,1.7-.93-1.5-.38.58-1.39-.58.24.2.45.49.66.88-.01.1-.14.04-.24-.04.35.87.66.9.98.88.33-.02.68-.08,1.36.5-.41.12-.09.79.21.92-.6-.47.08-.66.76-.52.8.86,1.15.47,1.65.76-.18-.14-.36-.27-.53-.42.36-.2.81.09,1.55.26-.04.29-.7-.08-.5.13.5-.11.89.15,1.33.5.45.31.99.65,1.61.51.53.29-.02.67.47.88.72-.15,1.08-.09,1.48.06.4.14.81.21,1.53-.05-.5-.44-.51-.27.38-.91-.36.14-.73.23-1.11.32-.38.11-.76.18-1.16.23.51-.22.98-.5,1.42-.79-.66.09-1.41.4-1.83.31.7-.39.61-.28.3-.67.45.37.91.24,1.35.04.45-.17.87-.42,1.42-.29l.22,1.16c.88.07,1.58-.3,2.25-.76.68-.46,1.33-1,2.31-1.42l-.69.16c0-.28.27-.45.6-.62.32-.18.69-.39.91-.65.19.36.61.21,1,.2-.11-.1.21-.34.49-.67.27-.34.51-.75.28-1.08.34-.11.67-.25,1.02-.39.63-.65.69-1.25.66-1.83-.02-.29-.03-.57,0-.86,0-.29.07-.6.24-.95.22.6.77-.01.64,1.15.22-.52.47-.99.2-1.08.16-.12.16-.54.14-.96-.03-.43-.04-.85.18-1.08-.14-.26-.54-.38-.44-.96.08-.06.19.02.19.02-.19-.02-.23-.93-.68-.45.67-.75.59-1.93.37-2.98-.21-1.07-.56-2.04-.28-2.86-.47-1.04-1.12-2.22-1.61-3.09.13,0,.18-.09.23.1-.32-1.41-1.37-.23-1.79-1.75.14-1.01.72.53.67-.02,1-.87-1.1-1.53-1.26-2.86l.24.17c-.24-1-1.82-1.37-3.04-2.19,0,0,.12-.06.11-.16-.62,0-1.39-.1-2.17-.16-.78-.05-1.57-.06-2.22.04.42-.5.63-.25.39-.78-.62.07.12.8-1.02.98-.39-.28-1.26-.36-1.51-.88.39-.07.78-.18,1.18-.2-.72-.67-1.56.27-2.16.32v-.32c-.9.33-1.25.74-1.59,1.13-.34.4-.67.77-1.45,1.31l.3.08c-.18.61-.37.66-.63.69-.25.03-.52.1-.66.65-.26-.09-.53-.18-.81-.26-.16.35-.4.99-.53,1.72-.16.73-.12,1.47-.15,2.07-.24-.37-.35-.96-.34-1.6.01-.32.08-.65.13-.97.08-.31.16-.61.23-.87-.11.17-.25.4-.39.66-.13.27-.24.59-.34.89-.15.61-.17,1.17,0,1.4-.03-.31-.11-.73.1-.98.3,1.07.45,2.15.62,3.44-.77-.03-.77.94-.43,1.99.32,1.06.95,2.08.77,2.84.97.88,1.74,1.79,2.66,2.7.91.9,1.94,1.78,3.3,2.35-.42-1.5.78.32,1.09-.9.61.16.83.24.86.34.53.43,1.12.82,1.76,1.17.44.43-.69.16-.68.43,1.53.34.56.63,1.62,1.07-.18-.46.58-.57,1.54-.46-.47-.16-.89-.35-1.3-.55,1.08-.29,1.56-.09,2.1.09.52.17,1.13.36,2.16-.35-.19.21-.39.4-.6.61.57-.28,1.66-.67,2.63-1.44.98-.72,1.76-1.92,1.67-2.78.25-.13.72-.31.46.33.29-.42.51-.94.65-1.5.2-.86.15-1.8-.09-2.61-.24-.81-.64-1.49-1.07-2.03-.86-1.09-1.75-1.77-2.35-2.52l.35-.12c-.49-.25-1.05-.05-1.46-.62.09-.09.33-.16.12-.29-.3-.07-1.47-.12-1.99-.46.21-.05.42-.1.63-.13-1.16-.64-2.17-.63-3.07-.5-.9.13-1.71.41-2.65.45.06-.89-1.72-1.25-2.56-1.39l.03-.12c-2.5-.12-4.32.69-6.71,1.27-.8-.4-2.15-.33-3.62.02-1.49.34-3.06,1.03-4.4,1.6.46-.09.3.61-.03.96-.66.24-.97,1.6-1.45.97.06-.06.12-.11.18-.16-.92-.23-1.87,1.08-2.41,2.29.29.21.58.42.88.62-.66.54-1.06,1.5-1.1,2.5-.05,1.01.26,2.03.68,2.82.85,1.6,1.91,2.5,1.86,3.5.62.3,1.15.84,1.77,1.04l-.41.4c1.15,1.23,1.78,1.79,3.41,2.82l-.56.09c.88.68,2.08-.52,2.92,0l-.21.88c1.61,1.02,3.1,2.68,5.27,2.7-.07.1-.22.32-.54.22.44.2,1.26.66,2.02.88.75.23,1.39.21,1.35-.39-.09.37.44.52,1.12.53.69,0,1.51-.15,2.07-.28l-.22.54c.99-.65,1.01-.83,2.26-1.05.3.06.28.44-.12.31,1.03.24.74-.54,1.96-.4l-.4.41c1.04-.09.94-.3,1.41-.8.57-.34,1.9-.39,2.24,0,.04-.34.4-.93,1.01-1.08.16.13.02.35-.06.44.9-.25,1.42-.78,1.8-1.27.2-.24.37-.48.57-.69.2-.21.43-.38.74-.54.16.1.28.1.4.05-.99,1.17-2.05,1.82-1.97,1.72.29.46,1.39-.32.99.91.33-.49.68-1.2,1.01-1.89.32-.7.63-1.37,1.04-1.84.07-.03.14-.05.24-.05v.14c.17-.23.27-.47.29-.73.24-.32.42-.53.55-.88.46.02.71-1.32.81-1.91-.56-.07-.32-.8-.92-.19.06-.08.04.12-.01.5,0,.09-.03.19,0,.26-.01-.02-.02-.03-.04-.05-.08.38-.22.87-.42,1.42-.09-.56-.17-1.06.29-1.59-.27-.36-.57-.74-.72-.95.92-.57,1.44-2.05,1.92-2.25-.25-1.75-.4-3.97-1.58-4.8-.19-.43.23-.55.37-.74.14.25.17.56.34.68-.37-.86-.53-2.68-1.31-2.74.07-1.21.82.5.33-1.05l.27.16c.18-1.73-.78-2.95-1.81-3.96-.51-.51-1.06-.99-1.56-1.54-.5-.56-.95-1.19-1.39-2.08.13.24.19.36.14.48-1.29-1.66-3.37-2.68-5.48-3.06-2.14-.4-4.24-.22-6.39-.07-1.21.2-1.16.72-1.62,1.34l-.5-.42c-.25.4-.49.8-.68,1.22-.55.67-1.32.82-2.13,1.16-.79.34-1.63.91-1.82,2.1h.49c-.53.58-.97,2.2-1.33,1.89.04.11.28.4-.03.59l-.3-.1c-.08.65-.11,1.3-.1,1.93-.58,1.32-1.19-.57-1.72,1.53-.05.83.57,2.35.82,2.08.05-.3.3-.75.62-.72l.07.7c.91.26,1.78.81,2.65-.6-.13-.38-.25-.76-.36-1.14l.52-.23c-.06.28-.11.57-.15.86.51-.4.21-.77.05-1.18.26-.02.45-.12.59-.28-.2-.39-.38-.8-.55-1.21.38.02.53.64.94.11-.23-.58-.93.13-.9-.69.58-.3.83,0,.74-.67.25.04.33.21.34.45-.06-.57.47-1.16.2-1.64.67-.13.89-1.4,1.52-.77-.07-.23.06-1.07.4-1.38.04.66.35.4.74.14.39-.27.87-.51,1.07.03-.02-.54.39-.9.9-1.17.51-.27,1.1-.45,1.54-.82-.04.08-.11.26-.21.24.57-.05.78.21,1.14.35-.03-.8.85-1.04,1.4-1.47.66.81-.5.88-.29,1.63,0-.32.28-.45.56-.58.28-.1.56-.2.48-.48.45.56.42.31.53,1,.34-.92.5-.04,1.11-.45.55.76-.17.9.7.99.11.22-.05.32-.22.38-.17.05-.36.06-.36.06ZM980.5,202.55s0,0,0,0c.08-.16.14-.3.18-.39-.04.08-.09.19-.18.39ZM979.39,203.87c.16-.14.38-.3.54-.53.19.08.29.26.17.4-.02-.15-.41.07-.71.13ZM985.05,201.9c-.04.43-.21.52-.34.54.06-.19.13-.41.16-.71-.02-.02-.03-.05-.05-.07.09.07.18.14.23.24Z" fill="#9f2d20"/>
      <path d="M984.53,201.01c0-.06-.02-.09,0-.17-.07.07-.12.13-.17.19.05.06.09.12.13.18.02-.07.03-.14.05-.21Z" fill="#9f2d20"/>
      <path d="M967.32,194.27v.05s.01-.09.03-.13c0,.04-.02.05-.03.08Z" fill="#9f2d20"/>
      <polygon points="956.3 196.81 956.19 196.91 956.38 196.94 956.3 196.81" fill="#9f2d20"/>
      <path d="M973.7,190.73s-.05.1-.05.18c.03-.03.04-.1.05-.18Z" fill="#9f2d20"/>
      <path d="M975.01,194.99c-.05.22-.08.44-.14.66.1-.28.12-.49.14-.66Z" fill="#9f2d20"/>
      <path d="M974.62,198.45c.09.06.16.09.22.11h0s-.23-.11-.23-.11Z" fill="#9f2d20"/>
      <path d="M966.31,203.18s.08.03.12.03c.29.02.11-.02-.12-.03Z" fill="#9f2d20"/>
      <path d="M963.51,190.99c-.11.17-.21.33-.32.47.26-.1.45-.18.32-.47Z" fill="#9f2d20"/>
      <path d="M978.62,196.63s0,0,0,0l.02-.09-.03.09Z" fill="#9f2d20"/>
      <path d="M962.61,191.86c.28-.09.44-.22.58-.4-.21.08-.46.18-.58.4Z" fill="#9f2d20"/>
      <path d="M970.55,193.16l.03-.17s-.07-.01-.09-.03l.06.19Z" fill="#9f2d20"/>
      <path d="M970.49,192.97l-.05-.19c0,.09-.01.16.05.19Z" fill="#9f2d20"/>
      <path d="M970.34,192.37l.11.41c.01-.14.05-.3-.11-.41Z" fill="#9f2d20"/>
      <path d="M970.8,197.77h.21s-.12-.02-.21,0Z" fill="#9f2d20"/>
      <path d="M971.29,199.07c-.05-.28.13-.92-.11-1.31h-.17c.18.07.13.34.1.64-.02.28-.02.64.18.67Z" fill="#9f2d20"/>
      <path d="M975.14,202.88c-.44.29-.93.5-1.45.55.29.15.76.33,0,.57,1.14.04.99-.15.84-.25-.08-.07-.15-.16-.08-.28.06-.13.27-.27.69-.58Z" fill="#9f2d20"/>
      <path d="M977.43,198.47c-.02.79.31.04.43.1-.12-.53-.16-.64-.43-.1Z" fill="#9f2d20"/>
      <path d="M974.79,195.23l.51.11c-.07-.74-.19,0-.51-.11Z" fill="#9f2d20"/>
      <path d="M970.14,191.7c.06.17.12.32.15.48.14-.09.28-.17.43-.25-.19-.09-.39-.16-.59-.23Z" fill="#9f2d20"/>
      <path d="M967.97,187.25l.31-.04c-.39.02-.77.03-1.15.09.28-.03.56-.04.84-.05Z" fill="#9f2d20"/>
      <path d="M983.12,190.91l-.57.33c.2.36.91.29.57-.33Z" fill="#9f2d20"/>
      <path d="M965.14,181.11c-.4-.11-1.13.22-1.23.77.45-.39,1.05-.55,1.23-.77Z" fill="#9f2d20"/>
      <path d="M950.07,192.86c-.02-.23-.04-.46-.05-.7-.06.43-.08.86-.05,1.28l.11-.57Z" fill="#9f2d20"/>
    </g>
  </g>
</svg>