<?xml version="1.0" encoding="UTF-8"?>
<svg id="_レイヤー_1" data-name="レイヤー 1" xmlns="http://www.w3.org/2000/svg" viewBox="0 0 1280 1024">
  <g id="umibozu_bone">
    <g>
      <path d="M593.79,629.08c.31.09.5-.28-.07-.8l-.86.04.92.77Z" fill="#202020"/>
      <path d="M591.23,624.45c-.85-.44-1.98-.78-2.01.05,1.07.2,1.02.54,2.23.71.58.51.75,1.13.48,1.2.31.09.7.97,1.28,1-.29-1.08-1.12-2.04-2.34-2.7-.09-.3.22-.23.36-.26Z" fill="#202020"/>
      <path d="M555.37,645.99l-.34-.38c.08.12.19.25.34.38Z" fill="#202020"/>
      <path d="M563.79,679.08c-.33-.19-.5-.22-.55-.18.32.16.59.28.55.18Z" fill="#202020"/>
      <path d="M571.64,682.66c-.19-.04-.34-.08-.51-.12.19.09.38.15.51.12Z" fill="#202020"/>
      <path d="M555.37,645.99c.29.32.56.68.89.98.19-.11-.44-.52-.89-.98Z" fill="#202020"/>
      <path d="M582.67,618.68c.22.12.42.22.62.27-.18-.11-.35-.22-.52-.33-.03.02-.06.04-.1.06Z" fill="#202020"/>
      <path d="M547.47,626.76c.02-.13.03-.27.07-.4-.04-.13-.11-.26-.18-.39.02.26.05.53.11.79Z" fill="#202020"/>
      <path d="M556.55,612.97c-.33.2-.11.73-.09,1.01.04-.31.2-.55.45-.78-.05-.09-.17-.17-.36-.23Z" fill="#202020"/>
      <path d="M581.15,614.81l.42.18c-.11-.05-.29-.13-.42-.18Z" fill="#202020"/>
      <path d="M548.93,638.69c-.06.06-.1.15-.12.23.06-.03.1-.11.12-.23Z" fill="#202020"/>
      <path d="M600.31,625.83s-.03-.06-.05-.09c-.06.09-.06.14.05.09Z" fill="#202020"/>
      <path d="M583.13,632.24l.2-.15c-.03-.11-.06-.21-.11-.3l-.09.45Z" fill="#202020"/>
      <path d="M587.15,678.44s-.04.02-.06.04c-.28.34-.1.17.06-.04Z" fill="#202020"/>
      <path d="M689.93,647.19c-.68-.51,0-.44.56-.41.28.02.54.01.6-.08.06-.08-.09-.24-.6-.58.15.29-2.34.08-.57,1.07Z" fill="#202020"/>
      <path d="M582.4,618.39c-.17-.12-.34-.24-.5-.37.22.18.37.3.5.37Z" fill="#202020"/>
      <path d="M690.5,646.12h0s-.21-.14-.21-.14c.09.06.14.09.21.14Z" fill="#202020"/>
      <path d="M599.78,651.2c-.09-.08-.24-.11-.4-.14.03.05.12.1.4.14Z" fill="#202020"/>
      <path d="M591.77,670.17c.12-.19.24-.38.33-.59-.13.23-.25.42-.33.59Z" fill="#202020"/>
      <path d="M612.02,646.86c.33-.05.47,0,.89-.21-.05-.02-.09-.02-.15-.03-.14.12-.34.22-.73.23Z" fill="#202020"/>
      <path d="M624.99,643.13c-.08-.02-.18-.03-.27-.04-.13.05-.27.1-.4.15l.67-.11Z" fill="#202020"/>
      <path d="M638.98,615.63c-.32-.11-.53-.25-.7-.4.27.36-1.69.8.7.4Z" fill="#202020"/>
      <path d="M582.86,618.43c-.15.07-.28.06-.46-.04.13.08.25.16.37.23.08-.04.14-.1.09-.19Z" fill="#202020"/>
      <path d="M611.32,642.44l2.08-.51c-.59.11-1.35.3-2.08.51Z" fill="#202020"/>
      <path d="M709.29,605.18l.37-.3c-.16.08-.3.18-.37.3Z" fill="#202020"/>
      <path d="M619.5,640.09c.42.08.84.08,1.27.04.07-.07.16-.13.2-.21l-1.47.17Z" fill="#202020"/>
      <path d="M638.28,615.22s0,0,0,0c0,0,0,0,0,0Z" fill="#202020"/>
      <path d="M624.57,618.61c1.99-.31.81-.86,1.17-1.35,2.35-.59,1.18.36,2.05.6,1.46-.41,2.51-1.25,3.64-1.39.1.11.33.12.09.31,1.5-.8,4.73-.7,6.49-1.71.15.04.23.1.27.15-.36-.32-.46-.69-.44-.96.91-.15,1.61-.73,2.03-.3-.56.07-.57.27-.81.47l.92-.36c.97.55-1.26.44-1.19.95,1.83-.51,3.9-1.44,5.35-1.52.42.61-3.3.83-1.28,1.08-.75.06-1.5.09-2.26.12,1.86.79-1.36.14.38,1.02,1.48-.12,2.29-.39,3.09-.61.8-.23,1.6-.46,3.08-.69.58-.51-.33-.5.24-1.01,1.98-.75,2.88-.6,3.66-.38.77.19,1.43.46,2.81-.47.65-.71.69-1.53,2.92-1.89l-.45,1c1.39-.5,1.69-.91,2.01-1.28.32-.37.69-.64,2.18-1.09-.18.25-.68.56-1.08.79-.41.2-.71.33-.49.29,2.09-.23,1.12-.99,2.5-1.63l.59.47c.71-.34,1.39-.81,2.08-1.29.68-.49,1.39-.94,2.05-1.49,1.3-1.13,2.67-2.21,3.92-3.41-.01.28-.33.83.43.46,3.08-3.12,6.61-6.28,9.91-7.78.27-.44.61-.8.92-1.21.29-.16.66-.06.4.21,1.36-.49-.11-.38.4-.9.75-.39,1.14-.15.74.23.52-.38,1.17-.83,1.94-1.21.75-.43,1.62-.77,2.51-1.09,1.79-.58,3.71-.87,5.1-.63l-.52.21c2.1.09,2.39-1.34,4.4-.71l-.39.07c2.34.22,4.78.61,6.99,1.31,2.2.71,4.19,1.7,5.41,3.01.53-.2,1.39.45,2.11,1.16.74.71,1.31,1.44,1.87,1.19.53,1.16.48,1.62.55,2.13,0,.25.04.52.03.87,0,.34-.01.76-.19,1.18-.07.22.06.43.14.73.1.3.15.66-.12,1.06l-.47-.4c-.09.42-.31.89-.6,1.36-.37-.04-.73-.09-1.1-.15-.28.24-.6.49-.91.74.43-.21,1-.28,1.03-.09-1.44,1.23-4.17,1.87-4.35,1.59l-.46.31-.23.15-.4.23c-.58.33-1.18.64-1.75.94-.57.31-1.17.58-1.74.86l-1.77.79c-.09-.09.14-.27.54-.49.4-.22.95-.48,1.37-.75-3.53,1.98-1.65,0-5.35,1.78.94-.15.43.23.63.3-1.49.28-3.75.87-6.05,1.54-2.28.66-4.55,1.37-5.82,1.85h-.4s-.32-.01-.32-.01l-.62-.04c-.73.2-1.12.33-1.66.5-.49.16-1,.32-1.54.49,5.07.29,10.37.59,15.81.9,1,.1,2.01.21,3.03.31l1.48.16.74.08c.25.03.38.1.57.14.71.21,1.43.42,2.15.63l1.07.32c.32.11.3.12.41.16l.25.11c-.13-.09-.24-.17-.33-.25,0-.02-.2-.13-.27-.17-.07-.05-.14-.09-.19-.13-.21-.17-.23-.29-.13-.38.16-.19.99-.13,1.36.03l.12.76c.78-.1-.9-.66.57-.56.61.3.72.58.59.74-.12.16-.48.22-.87.17.52.13,1.01.34,1.52.51,0,.22-.39.13-.58.31.79-.07,2.03,1.86,3.14,1.83l-.04.21c1.41.97,2.38,1.77,3.27,2.52.89.76,1.69,1.52,2.58,2.6.49-.32,1.06.64,1.92,1.1.51.94.98,1.96,1.36,3.06.44,1.09.78,2.19,1.07,3.25.57,1.43.55.34.99,1-.25.09-.32.66-.46,1.01-.13.36-.25.53-.37.07-.09,1.04-.36,1.51-.85,2.22-.49.67-1.26,1.52-2.81,2.73.47-.06.92-.25.81.03-.55.47-1.47.72-1.51.46l.13-.15c-.39.41-.87.7-1.39.98-.51.28-1.05.54-1.6.78-.58.18-1.17.34-1.77.5l-.89.22c-.3.06-.61.09-.9.14-.59.09-1.18.18-1.75.26-.57.08-1.14.1-1.67.18-.53.06-1.03.19-1.52.28-.48.08-.94.21-1.36.38l.19-.07c-.59.13-1.17.33-1.78.41l-1.82.28c-1.67-.08,1.01-.39-.21-.7-1.94.33-3.51.15-4.91-.2-.35-.08-.7-.16-1.05-.23-.34-.1-.69-.2-1.03-.29-.69-.2-1.43-.3-2.23-.44-.46-.58-1.2-1.03-2.08-1.44-.84-.51-1.88-.89-2.87-1.41-.98-.55-2.05-1.03-2.88-1.72-.43-.32-.83-.65-1.19-.97-.34-.35-.61-.73-.83-1.08l-.1.39c-.86-.31-.61-.84-1.01-1.3-.13.25.45.84-.07.63-1.35-1.21-2.47-2.52-3.75-4.25-.65-.84-1.35-1.72-2.23-2.57-.86-.85-1.98-1.69-3.36-2.23-.7-.25-1.43-.44-2.19-.5-.75-.06-1.47-.02-2.11.06-1.32.18-2.3.45-3.28.65-1.99.44-3.97.88-5.93,1.36-2.85.72-1.1,2.23-4.89,2.44l.83-.93c-5.49,2.4-11.67,3.32-17.07,5.57.29-.24.25-.44.79-.59-1.31-.12-4.37,1.23-4.28,1.61-.88.21-.3-.28-.89-.32-1.26.07-2.8,1.44-3.56,1.16-.13-.04.29-.25.5-.34-.71.44-3.61.97-2.72,1.29-2.17.35-3.94,1.39-5.7,1.55-.92.91-3.67.74-3.77,1.68-.1-.91-3.88.35-5.08,1.14.37-.39-1.23.06-.82-.45-1.51.45-2.85,1.01-2.46,1.38-3.08-.24-5.36,2.44-7.31,1.56-1.09.43-2.16.86-3.22,1.27-1.05.41-2.21.83-3.37,1.45-1.15.62-2.35,1.5-3.16,2.72-.83,1.18-1.21,2.54-1.36,3.76-.43-.14-.26-1.61.48-3,.71-1.4,1.92-2.39,1.52-2.66-1.08,1-1.74,2.23-2.07,3.34-.34,1.12-.39,2.13-.37,3.05.04,1.84.35,3.47.33,5.39-.07.99-.42-.53-.6-.87.16.99.24,1.88.21,2.71.02.42-.05.84-.09,1.26-.03.42-.11.83-.2,1.23-.33,1.62-.87,3.14-1.37,4.68-.06-.04,0-.4.07-.72-.21.59-.79,1.22-.39,1.36l.2-.59c.51-.3.48.38.33,1.22-.16.83-.54,1.76-.43,1.92-.08-.41-.25-.45-.47-.32-.23.12-.51.4-.78.66-.54.53-1.11.85-1.09-.25-.22.35-.42.86-.16.98-.48.41-.72.43-.53-.24-1.44,1.69-.58,1.52-2.24,2.75-.11-.17.2-.45.22-.78-.29.46-.63.89-1.07,1.34-.48.39-1.06.82-1.91,1.06.05-.15-.19-.22.28-.42-1.32.66-2.47,1.2-3.75,1.63-1.28.41-2.72.57-4.38.19,1.08-.72-1.09-.43-1.1-1.23-.57-.07-1.16-.11-1.72-.24.18.19.37.39.57.56-1.47-.44-2.99-.52-4.08-1.41l1.18.28c-.89-.4-1.76-.85-2.57-1.4.38.42.82.77,1.24,1.16-1.56-.57-.38.94-2.06-.51.2.11-.13-.15-.55-.54-.41-.41-.88-.99-1.03-1.44h0c-.35-.21-.72-.43-1.08-.73-.34-.32-.66-.73-.94-1.27.04-.39.82-.25.85-.51-.43-.15-1.02-.89-1.42-1.75-.24-.41-.42-.85-.61-1.24-.2-.38-.41-.7-.61-.91.22.29.6.19.66.07l-.63-.51c-.01-.76.07-.87.39-.8-.07-1.07-.29-.88-.47-.74-.16.15-.39.23-.23-1.11.04.21.12.11.2.53.07-1.32.01-2.59.21-3.85.04-.63.23-1.23.36-1.84.21-.59.4-1.18.72-1.71.51-.16.28.31.15.81-.15.49-.3.95.14.68.48-1.61,1.12-3.27,2.08-4.78l.81-1.11c.48-.44.95-.88,1.42-1.32,1.19-.8,2.46-1.52,4-2.22l-1.24.53c-1.07-.2.49-.72,2.78-1.45.09-.05.16-.1.23-.14.02-.02.1-.05.06-.07l-.11-.04c-.16-.06-.36-.12-.59-.17-.47-.11-1.1-.17-1.91-.2.83.06,2.41-.24,1.9-.19-.88-.17-2.08-.41-3.24-.58-1.16-.2-2.22-.46-3.38-.67-.5-.14-1.06-.35-1.44-.49-.34-.12-.7-.22-1.04-.39-.35-.16-.72-.32-1.1-.49-.37-.19-.74-.41-1.14-.63l.52.03c-1.03-.93-2.75-2.38-3.61-3.6-.49-.16-1.02-.84-.99-.2-.84-2.3-2-4.03-2.93-5.98-.91-1.9-1.51-4.08-.78-6.08-.04.48.22,1.13.21.76-.03-.56-.03-1.12-.05-1.69l.13-1.71c-.49.18-.34.39-.81,1.07-.21-.48-.27-1.54,0-2.42-.11,1.66.72.15,1.14-.4-.17.06-.24-.2-.4-.19.71-.74.51-.88.32-1.13-.2-.25-.4-.62.42-1.67l.16.23c.13-.47.26-.92.43-1.37.17-.45.34-.92.69-1.32.35-.03.25.22.11.5-.13.29-.28.64-.11.78.32-.64.56-1.33.81-2.02.27-.67.67-1.26,1.29-1.6-.28.58-.89,1.23-1.12,1.83.66-.39,1.03-.58,1.28-.81.26-.23.43-.47.84-.79l-.08.06.94-.73c.32-.23.66-.43.99-.65l-.57.25c.11-.54.33-.99.64-1.35.32-.35.71-.63,1.12-.92.86-.53,1.79-1,2.76-1.89-1.83,1.76-.15.61-.08,1.25.31-.04.68-.11.96-.14.28,0,.46.04.37.15.43-.39.89-.47,1.39-.53.51-.02,1.04-.16,1.74-.61.1.19,1.15-.11.95.4,1.36-.28-.35-.32-.26-.56.52-.26,1.14-.27,1.78-.25.65,0,1.32.16,2.02.33,1.4.3,2.81.82,4.49.88.68.17,1.24.28,1.74.35.5.09.93.16,1.35.23.87.12,1.68.33,2.95.88.3.39.05.43-.28.38-.33-.03-.74-.15-.74-.15.57.47,1.05.89,1.58,1.23.53.33,1.07.64,1.69.97-.33-.03-.18.26.02.68.91.61,1.02-.1,1.98,1.04-.33,0-.8.07-1.35-.09,1.12.66,2.32,1.23,3.44,2.02.04.49-.95-.17-1.45-.31,1.24.86,3.07,2.45,3.78,2.41l-.56-.83c.41.38-.12.53-.48.31-1.24-.59-1.23-1.43-1.16-1.63l.79.58c.08-1.55-3.01-2.51-4.48-3.73.39-.06.77-.11,1.15-.15-.66-.26-1.35-.45-2.02-.67-.21-.43-.18-.99.68-.5-.9-1.19-1.2-.48-1.95-1.55-.07-.14,0-.13.12-.09-.43-.2-.87-.36-1.32-.52.33-.01.1-.62.78-.08-.97-.85-1.94-1.23-2.76-1.45-.79-.26-1.41-.38-1.74-.84l.22.03c-1.69-.55-1.84-.36-1.88-.17-.04.21-.01.49-1.32.46-.4-.67-.87-1.24-1.36-1.86l-.45.53c-.35-.12-1.05-.23-.89-.45-1.4.28.19.29-.63.6-.82-.41-2.03-.33-3.05-.3-1.02.09-1.87.17-2.15-.28-.53.55,1.7.12-.07.71-.35-.46-.88-.29-1.51-.04-.61.32-1.31.71-2.13.79.24-.71,1.84-.9.11-.84-.3.62-1.02.88-1.85,1.12-.79.29-1.73.5-2.23,1,.19.34-.42.76-1.19,1.43-.79.63-1.76,1.5-2.44,2.42-.02-.07-.22.08-.54.38-.32.29-.76.72-1.19,1.26-.22.27-.45.55-.68.83-.21.3-.42.61-.63.9-.44.59-.78,1.19-1.07,1.66l-.08-.11c.46.68-.52,2.65-.69,4.27-.41-.16-.51-.48-.47-1.41l-.39,1.51c.15.41.21.91.14,1.9l-.49-.45c-.22,2.12.39,4.19.62,6.82.27,0,.47-.57.79-.82.31-.25.59-.16,1.1,1.03-.24.16-.67.39-.96-.26.09.22.43.73.44,1.2l-.72-.91c.12,1.19.49.5.77,1.38-.38.11-.03.74-.37.72-.11-.22-.14-.82-.39-1.12.27,1.03.52,2.34.47,2.85.16-.18.48-.22.87.46,1,1.76-.08.83.35,1.99.47.3,1.04,1.51,1.52,1.19.34.49.21.73.23,1.01.44.33,1.26,1.26,2.01,1.87.71.65,1.33.94,1.08.34l-.18-.2s.09.06.15.09h0s0,0,0,0c1.46.9,2.82,1.95,4.3,2.9.18.13.38.22.57.33l.52.29c.27.17.54.32.82.43.27.12.54.23.82.33.29.07.59.14.93.19l-.31.1c.37.06.76.09,1.15.12l.59.06h.15s.16.02.08.04l-.19.1c-.63.29-1.14.68-1.34,1.06-.42.32-1.32.58-1.43.39-.29.34-.41.6-.65.87-.13.16-.33.4-.57.64-.25.25-.57.52-.96.95.68-1.47-.61.19.82-1.4-.74.67-1.2,1.14-1.62,1.67-.22.25-.38.55-.54.91-.15.37-.35.78-.45,1.35-.11-.93-1.29,1.15-1.44,2.18.29-.42.55-.85.86-1.24-.35,1.05-.71,1.95-.98,2.9l-.5-.69c-.98,2.03-.84,4.18-.45,5.99.41,1.85.97,3.37.94,5.21.82.92-.48-2.38.39-1.56.14.47.21.97.29,1.46.11.48.19.95.26,1.4.17.87.36,1.59.52,1.87.67,1.27,1.28,1.64,1.93,1.94.63.33,1.28.6,2.26,1.6-.14-.41.04-1.06,1.74-.04,1.48,1.07,1.47,2.09.31,1.61-.41-.24-.56-.42-.5-.48-.59-.25-1.29-.73-.83-.02.12-.01.23-.02.35-.04.35.35,1.08.95,1.7,1.34.61.41,1.04.73.67.76.74.24.93.18.81.05-.12-.14-.54-.4-1-.73.51.39,1.03.64,1.51.87.48.24.96.4,1.44.55.48.16.97.3,1.5.42.53.14,1.09.3,1.74.44-.4-.19-.72-.53-.32-.46.93.23,1.51.31,1.89.28.38,0,.56-.06.69-.14.27-.14.39-.35,1.64-.44,1.47.25-.46.95,2.11.34,1.62-.11.48.56-.17.86,2.38-.82,4.58-.97,5.94-1.57-.35.28-.74.52-1.13.75.71-.4,1.27-.74,1.86-1.05l-.89-.06c.72-.29,1.29-.61,1.37-.44.49-.69-.9-.35.13-1.54.49-.15,1.02-.68,1.53-1.1.51-.42.93-.82,1.28-.7-1.2.98-1.07,1-.82,1.08.24.06.57.11-.47.99.36-.39.88-.76,1.49-1.23.13-.03,0,.17-.12.34,1.34-.83,1.44-1.26,1.5-1.69.07-.44.1-.9,1.04-2.12.02.26.27.22.54.05.26-.18.54-.49.65-.73-.72,1.06-.81.15-.42-.92,1.24-1.55.85-1.96,1.31-2.86l-.6.99c-.17-.52.33-1.33.66-2.63.3-.02-.24,1.2.04.8-.02-.41.09-.78.25-1.16.15-.39.34-.78.56-1.2.23-.41.39-.87.55-1.35.16-.48.22-1,.17-1.53.34-.96.69-.03.92-.9-.19-1.25-.07-1.9.02-2.54.1-.64.2-1.29-.05-2.36-.44.66-.33.75-.85-.75.14,1.17.37,2.39.52,3.73-.26-.85-.55-1.64-.82-2.42.06,1.11.46,2.39.35,3.14-.39-1.22-.29-1.07-.66-.51.68-1.64-.64-3.1-.13-4.82l1.18.08c.29-1.17.27-2.03.48-2.87.2-.82.69-1.69,2.11-2.16-.31.07-.61.14-.9.24.06-.63,1.59-.87,2.59-1.33.02.41.7.35,1.24.45-.14-.27,2.47-.68,2.56-1.53l1.65.07c2.78-.58,2.79-1.97,5.44-2.59-.67.64.6.57-1.07,1.36.87-.25,1.68-.4,1.62-.67.58.09,2.27-1.21,3.18-1.08.32-.27.33-.7,1.31-.95.13.05.05.19.05.19-.05-.19,1.46-.7.48-.87,3.03.41,7.49-2.24,10.12-1.9,1.87-.67,4.13-1.45,5.85-1.98-.08.15.05.19-.29.25,2.49-.33,1.15-1.51,3.98-1.89,1.56.22-1.35.75-.41.73.73,1.14,3.23-1.11,5.26-.91l-.42.2c1.52.02,3.27-1.45,5.57-2.02,0,0-.08.14.04.19,1.38-1.08,4.27-2.14,6.41-2.95-.54.68-.92.54-.36.92.96-.35-.52-.71,1.41-1.42.71.08,2.2-.09,2.54.39l-1.84.56c1.15.41,2.39-.71,3.4-.87l-.04.34c2.81-.91,2.63-1.68,5.7-2.5l-.38-.14c1.45-1.23,1.52.02,3.02-1.01l.72.61c1.11-.46,3.5-2.07,5.32-1.54-.59.11-1.31.23-2.04.52-.74.27-1.54.68-2.22,1.05.55-.15,1.41-.43,2.1-.58.69-.18,1.23-.2,1.49-.35-.36.01-.75.17-1.1.08.51-.35,1.17-.53,1.96-.39.79.13,1.64.6,2.41,1.34-.64.43.23,1.38,1.21,2.74.51.67,1.02,1.43,1.53,2.14.5.7.88,1.36.96,1.89,1.68,1.37,3.22,2.79,4.96,4.16.42.37.87.69,1.34,1,.47.32.95.64,1.43.96.97.64,2.08,1.12,3.21,1.66-.56-.92-.22-.77.27-.56.5.21,1.18.42,1.26-.2,1.08.31,1.47.48,1.54.59.98.62,2.04,1.08,3.1,1.64.72.56-1.12-.02-1.09.27,1.21.38,1.45.56,1.58.74.13.18.14.38.95.68-.26-.51.98-.42,2.41-.09-.66-.22-1.3-.58-1.94-.87,1.78.02,2.5.27,3.25.61.37.16.75.32,1.26.42.51.09,1.17.05,2.07-.1l-1.15.39c.93-.12,2.65-.06,4.35-.37,1.7-.18,3.34-.79,4.11-1.41.35.08.85.32.07.56,1.09-.17,2.2-.61,3.32-.99,1.1-.46,2.16-1.05,3.2-1.56.99-.63,1.96-1.22,2.87-1.75.87-.6,1.7-1.11,2.5-1.47l-.1.43c.65-.53.82-1.27,1.86-1.79.04.13-.07.47.26.19.14-.21.51-.72.91-1.36.4-.64.82-1.41,1.17-2.02-.06.41-.15.82-.27,1.22.84-1.13,1.22-2.46,1.27-3.57.06-1.13-.15-2.09-.44-2.93-.6-1.68-1.47-2.97-2.37-4.49.83-.37-.52-3.58-1.51-5l.14-.02c-1.49-2.09-3.1-3.6-4.84-4.8-1.74-1.2-3.52-2.21-5.58-3.2-.46-.59-1.26-1.12-2.19-1.72-.48-.27-1.01-.53-1.56-.8-.19-.09-.39-.19-.59-.29-.49-.23-1.25-.36-.9-.46h.04c-.16,0-.26.02-.3.03-.27.03-.29.03-.55.06-.62.06-1.47.11-1.85.12.02,0,0-.01-.07-.02-.06,0,.02-.02,0-.04,0-.03-.06-.05-.06-.08,0-.06.21-.12,1.31-.14l-.16.04c1.29-.09,1.78-.12,2.01-.16.23-.04.25-.09.39-.14-.57-.13-1.1-.27-1.62-.43,1.07-.04,1.51-.07,1.88-.2.06-.02.06-.02.16-.07l.45-.22.89-.48c.59-.33,1.16-.69,1.71-1.05,1.11-.73,2.11-1.4,3.11-2.09.99-.68,1.87-1.41,2.64-1.91.32-.7.65-1.49.8-2.31.19-.82.16-1.67,0-2.35l.57.05c-.02-1.05-.21-1.92-.46-2.66-.25-.76-.56-1.41-.94-2.03-.75-1.24-1.71-2.41-3.33-3.69.3.08.61.16.91.26-.88-.82-1.74-.95-2.56-.99-.81-.04-1.55.05-2.39-.42-.03-.34-.06-.7-.12-1.03-1.67-.82-3.32-1.75-5.11-2.35-1.76-.66-3.64-.99-5.5-.86.07-.11.21-.34.82-.29-.86-.17-2.55-.46-3.96-.49-.7,0-1.33.03-1.74.14-.41.13-.59.33-.42.61-.03-.37-1-.35-2.18-.12-.59.14-1.23.32-1.84.5-.61.2-1.17.45-1.64.63l.18-.61c-.75.51-1.11.84-1.55,1.14-.44.32-1,.51-2.03,1.01-.53.12-.6-.25.13-.37-1.82.36-1.15.94-3.25,1.6l.6-.67c-1.74.73-1.49.91-2.19,1.75-.91.73-3.02,1.79-3.55,1.57-.02.4-.56,1.34-1.46,1.93-.23-.05-.01-.39.1-.57-2.59,1.72-2.9,3.52-4.77,4.48-.16-.11-.32-.09-.48-.02,1.72-1.56,3.16-2.88,3.06-2.72-.35-.38-1.83.87-1.18-.7-.89,1.35-2.19,3.76-3.72,4.72-.1.02-.19.03-.29.02l.1-.16c-.34.23-.6.49-.81.77-.51.26-.84.41-1.28.72-.43-.23-1.77,1.04-2.59,1.43.36.44-.72.97.48.8-.15.04.12-.14.63-.47.11-.09.25-.17.3-.25,0,.02-.02.05-.02.08.48-.36,1.11-.82,1.82-1.35-.42.64-.89,1.31-1.91,1.61-.21.54-.48,1.13-.65,1.43-.77-.03-1.68.23-2.54.33-.85.11-1.56.2-1.81.05-1.15.79-2.72,1.35-4.07,2.06-1.41.59-2.67,1.27-3.4,2.01-.76.34-.99-.06-1.32-.14.43-.22.97-.35,1.17-.56-.75.33-1.9.66-2.9,1.01-1.01.3-1.86.63-1.97,1.04-2.09.11.99-.9-1.75-.2l.33-.29c-5.64-.11-8.68,3.34-15.1,2.75.44.03.66.04.77.15-3.58.18-7.22.9-10.83,1.72-3.61.86-7.16,1.83-10.72,2.52-1.99.49-2.04,1.01-3.05,1.81l-.63-.4c-.57.47-1.13.97-1.68,1.46-2.5,1.65-5.36.81-8.28,3.43l.62.14c-1.24.55-3.66,2.24-3.68,1.73-.08.13-.18.58-.75.66l-.19-.26-2.62,2.11c-2.34,1.09-.28-1.29-3.56.55-1.14.81-2.95,2.81-2.39,2.72.49-.27,1.33-.56,1.53-.31l-1.01.79c.28.92-.08,2.24,2.94,1.21l1.58-1.59.83.04-1.56.95c1.11-.16,1.48-.81,1.99-1.41.27.12.62.11,1.03-.02l1.4-1.83c.4.19-.47,1.09.87.57.66-.85-1.23-.24.07-1.29,1.11-.14,1.01.31,1.89-.59.26.13.11.39-.25.71.8-.78,2.43-1.46,2.69-2.16,1.19-.04,3.16-1.77,3.46-.93.2-.34,1.39-1.44,2.26-1.89-1.19,1.69,3.37-1.45,3.39-.19.84-1.4,4.22-2.16,6.26-3.34-.1.11-.3.33-.51.35,1.27-.31,1.71-.17,2.56-.21-.06-.79,1.86-1.5,2.83-2.24,1.75.38-.75,1.11-.07,1.71-.24-.62,2.58-1.22,1.93-1.63,1.31.19,1.09-.01,1.84.5.02-1,1.1-.37,2-1.15,1.85.15.61.81,2.51.19.98.15-.7.77-.7.77ZM669.99,602.9s0,0,0,0c-.32.28-.59.53-.76.68.16-.14.37-.34.75-.69ZM673,600.16c-.37.32-.82.73-1.3,1.18-.24-.05-.26-.3.05-.57-.07.25.7-.32,1.25-.61ZM664.1,602.47c.44-.41.66-.44.8-.39-.22.17-.48.38-.81.66,0,.03-.02.07-.02.1-.01-.12-.02-.24.03-.37Z" fill="#202020"/>
      <path d="M663.61,603.69c-.07.05-.1.1-.19.16.13-.02.26-.04.38-.08.03-.09.07-.17.09-.26-.09.06-.19.12-.28.17Z" fill="#202020"/>
      <path d="M554.98,645.54l.06.07c-.04-.06-.08-.12-.09-.18.03.06.02.07.03.11Z" fill="#202020"/>
      <path d="M712.16,602.83l.11.09c.02-.08.03-.16.04-.24-.05.05-.09.1-.15.15Z" fill="#202020"/>
      <path d="M550.46,625.29c.06-.02.14-.08.23-.21-.04,0-.13.09-.23.21Z" fill="#202020"/>
      <path d="M555.18,617.74l1.04-.74c-.47.29-.79.54-1.04.74Z" fill="#202020"/>
      <path d="M560.88,614.02c.04-.12.03-.2.02-.27,0,0-.01,0-.01,0v.27Z" fill="#202020"/>
      <path d="M588.13,669.06c.03-.08.06-.16.08-.24.15-.58.02-.2-.08.24Z" fill="#202020"/>
      <path d="M561.84,674.8c.32.18.65.33.95.53-.39-.43-.72-.73-.95-.53Z" fill="#202020"/>
      <path d="M611.09,642.5s0,0,0,.01c.08-.02.15-.04.23-.07l-.23.06Z" fill="#202020"/>
      <path d="M563.95,676.3c-.39-.45-.79-.7-1.16-.96.31.37.73.74,1.16.96Z" fill="#202020"/>
      <path d="M587.4,622.91l.23.26s.06-.04.09-.04l-.32-.22Z" fill="#202020"/>
      <path d="M587.73,623.13l.32.23c-.12-.13-.24-.23-.32-.23Z" fill="#202020"/>
      <path d="M588.72,623.83l-.67-.47c.2.2.43.46.67.47Z" fill="#202020"/>
      <path d="M580.31,616.74l-.2.11c.07,0,.14-.04.2-.11Z" fill="#202020"/>
      <path d="M577.88,615.33c.55.4,1.25,1.18,2.07,1.61l.16-.09c-.51-.01-1.51-1.5-2.24-1.53Z" fill="#202020"/>
      <path d="M566.77,610.05l1.3.07c.43.01.86.05,1.28.14-.43-.26-1.02-.61.18-.55-.81-.26-1.2-.28-1.34-.27-.15.01-.07.09,0,.19.15.19.28.45-1.42.42Z" fill="#202020"/>
      <path d="M558.89,611.89c1.24-.71-.17-.3-.15-.42-.71.62-.86.77.15.42Z" fill="#202020"/>
      <path d="M561.12,651.93c-.15-.09-.31-.17-.47-.25-.27.35.19.1.47.25Z" fill="#202020"/>
      <path d="M558.59,661.78c.15-.28.36-.54.53-.81l-.34-.55c-.06.46-.16.9-.19,1.35Z" fill="#202020"/>
      <path d="M554.93,668.14c-.06-.16-.13-.33-.17-.5.17.64.39,1.27.59,1.89l-.43-1.39Z" fill="#202020"/>
      <path d="M622.82,644.27l-.47-.52c-.63.3-.58,1.02.47.52Z" fill="#202020"/>
      <path d="M661.25,632.57c.51.18,1.65.07,2.23-.42-.88.21-1.81.22-2.23.42Z" fill="#202020"/>
      <path d="M707.41,611.57c.01.07.04.13.09.19,0-.07.04-.14.09-.23l-.18.04Z" fill="#202020"/>
    </g>
  </g>
</svg>